<?xml version="1.0" encoding="UTF-8"?>
<!DOCTYPE svg PUBLIC "-//W3C//DTD SVG 1.1//EN" "http://www.w3.org/Graphics/SVG/1.1/DTD/svg11.dtd">
<svg xmlns="http://www.w3.org/2000/svg" version="1.1" width="500px" height="500px" style="shape-rendering:geometricPrecision; text-rendering:geometricPrecision; image-rendering:optimizeQuality; fill-rule:evenodd; clip-rule:evenodd" xmlns:xlink="http://www.w3.org/1999/xlink">
<g><path style="opacity:1" fill="#fefefe" d="M -0.5,-0.5 C 166.167,-0.5 332.833,-0.5 499.5,-0.5C 499.5,166.167 499.5,332.833 499.5,499.5C 332.833,499.5 166.167,499.5 -0.5,499.5C -0.5,332.833 -0.5,166.167 -0.5,-0.5 Z"/></g>
<g><path style="opacity:1" fill="#5c5c5c" d="M 240.5,111.5 C 247.982,112.492 255.648,112.825 263.5,112.5C 253.963,113.215 244.296,113.882 234.5,114.5C 230.106,114.844 225.772,115.51 221.5,116.5C 220.398,114.908 221.065,114.075 223.5,114C 229.156,113.025 234.823,112.192 240.5,111.5 Z"/></g>
<g><path style="opacity:1" fill="#c4c4c4" d="M 263.5,112.5 C 266.456,113.137 269.456,113.637 272.5,114C 270.167,114.333 267.833,114.667 265.5,115C 267.167,115.333 268.833,115.667 270.5,116C 269.5,116.167 268.5,116.333 267.5,116.5C 255.48,115.359 243.48,115.192 231.5,116C 232.737,115.768 233.737,115.268 234.5,114.5C 244.296,113.882 253.963,113.215 263.5,112.5 Z"/></g>
<g><path style="opacity:1" fill="#1a1a1a" d="M 240.5,111.5 C 234.823,112.192 229.156,113.025 223.5,114C 221.065,114.075 220.398,114.908 221.5,116.5C 217.4,117.192 213.4,118.192 209.5,119.5C 201.732,122.217 194.065,125.217 186.5,128.5C 187.463,127.637 187.463,126.97 186.5,126.5C 184.739,127.035 183.406,128.035 182.5,129.5C 175.571,133.102 168.905,137.102 162.5,141.5C 191.386,117.47 224.719,107.303 262.5,111C 255.174,111.5 247.841,111.666 240.5,111.5 Z"/></g>
<g><path style="opacity:1" fill="#898989" d="M 186.5,128.5 C 185.167,128.833 183.833,129.167 182.5,129.5C 183.406,128.035 184.739,127.035 186.5,126.5C 187.463,126.97 187.463,127.637 186.5,128.5 Z"/></g>
<g><path style="opacity:1" fill="#0d0d0d" d="M 202.5,124.5 C 190.724,130.892 179.391,138.059 168.5,146C 164.167,150.333 159.833,154.667 155.5,159C 156.167,159.667 156.833,159.667 157.5,159C 159.441,156.546 161.775,154.713 164.5,153.5C 146.806,170.539 134.473,190.872 127.5,214.5C 122.41,229.828 120.743,245.495 122.5,261.5C 129.662,322.17 162.662,361.004 221.5,378C 274.535,387.324 318.702,371.824 354,331.5C 358.057,325.616 361.89,319.616 365.5,313.5C 366.222,313.918 366.722,314.584 367,315.5C 369.735,310.701 371.902,305.701 373.5,300.5C 375.431,298.206 376.264,295.539 376,292.5C 375.722,293.416 375.222,294.082 374.5,294.5C 374.629,292.784 374.962,291.117 375.5,289.5C 376.222,289.918 376.722,290.584 377,291.5C 379.014,286.96 380.514,282.294 381.5,277.5C 381.674,275.139 382.007,272.806 382.5,270.5C 383.404,271.209 383.737,272.209 383.5,273.5C 381.885,284.248 378.885,294.581 374.5,304.5C 372.312,306.506 371.646,308.839 372.5,311.5C 349.776,355.393 313.776,380.893 264.5,388C 247.941,389.44 231.608,388.274 215.5,384.5C 216.609,383.71 217.942,383.21 219.5,383C 213.178,381.058 206.844,379.225 200.5,377.5C 203.405,378.911 205.738,380.245 207.5,381.5C 199.033,379.266 191.033,375.933 183.5,371.5C 184.648,370.836 185.981,370.669 187.5,371C 149.182,348.992 126.015,316.158 118,272.5C 117.667,274.5 117.333,276.5 117,278.5C 115.694,270.704 115.194,263.037 115.5,255.5C 115.461,254.417 115.127,253.417 114.5,252.5C 115.495,246.886 116.162,241.22 116.5,235.5C 123.507,188.627 147.507,153.461 188.5,130C 193.087,127.87 197.753,126.037 202.5,124.5 Z"/></g>
<g><path style="opacity:1" fill="#9e9e9e" d="M 341.5,148.5 C 341.897,147.475 342.563,147.308 343.5,148C 345.954,149.74 347.454,151.907 348,154.5C 345.963,152.294 343.797,150.294 341.5,148.5 Z"/></g>
<g><path style="opacity:1" fill="#4b4b4b" d="M 164.5,153.5 C 165.254,151.554 166.588,150.721 168.5,151C 167.529,152.481 166.196,153.315 164.5,153.5 Z"/></g>
<g><path style="opacity:1" fill="#414141" d="M 186.5,128.5 C 171.395,137.265 158.061,148.265 146.5,161.5C 145.521,161.458 144.521,161.458 143.5,161.5C 145.934,159.079 147.934,156.412 149.5,153.5C 153.201,148.799 157.534,144.799 162.5,141.5C 168.905,137.102 175.571,133.102 182.5,129.5C 183.833,129.167 185.167,128.833 186.5,128.5 Z"/></g>
<g><path style="opacity:1" fill="#777777" d="M 363.5,172.5 C 365.085,173.002 365.585,174.002 365,175.5C 363.961,174.756 363.461,173.756 363.5,172.5 Z"/></g>
<g><path style="opacity:1" fill="#888888" d="M 368.5,180.5 C 371.748,184.33 373.915,188.663 375,193.5C 372.295,189.423 370.128,185.09 368.5,180.5 Z"/></g>
<g><path style="opacity:1" fill="#d4d4d4" d="M 209.5,119.5 C 210.609,120.29 211.942,120.79 213.5,121C 209.979,122.674 206.313,123.84 202.5,124.5C 197.753,126.037 193.087,127.87 188.5,130C 147.507,153.461 123.507,188.627 116.5,235.5C 115.596,234.791 115.263,233.791 115.5,232.5C 118.721,205.43 129.054,181.763 146.5,161.5C 158.061,148.265 171.395,137.265 186.5,128.5C 194.065,125.217 201.732,122.217 209.5,119.5 Z"/></g>
<g><path style="opacity:1" fill="#101010" d="M 239.5,262.5 C 239.56,263.043 239.893,263.376 240.5,263.5C 241.828,243.337 241.828,223.337 240.5,203.5C 240.586,202.504 240.252,201.671 239.5,201C 238.062,200.781 236.729,200.281 235.5,199.5C 240.5,198.167 245.5,198.167 250.5,199.5C 248.807,200.228 247.307,201.228 246,202.5C 245.5,225.831 245.333,249.164 245.5,272.5C 241.484,273.1 237.984,272.1 235,269.5C 220.157,249.137 205.324,228.804 190.5,208.5C 190.217,207.711 189.717,207.044 189,206.5C 188.171,226.671 188.338,246.671 189.5,266.5C 190.129,269.129 191.795,270.796 194.5,271.5C 189.5,272.833 184.5,272.833 179.5,271.5C 181.193,270.772 182.693,269.772 184,268.5C 184.667,246.5 184.667,224.5 184,202.5C 182.693,201.228 181.193,200.228 179.5,199.5C 184.22,198.187 188.887,198.353 193.5,200C 209.209,220.596 224.542,241.429 239.5,262.5 Z"/></g>
<g><path style="opacity:1" fill="#0a0a0a" d="M 260.5,198.5 C 273.504,198.333 286.504,198.5 299.5,199C 315.945,201.13 321.112,209.963 315,225.5C 312.408,228.762 309.241,231.262 305.5,233C 317.168,237.495 321.668,245.995 319,258.5C 318.152,261.698 316.652,264.531 314.5,267C 310.475,269.514 306.141,271.181 301.5,272C 287.821,272.833 274.154,272.666 260.5,271.5C 262.709,270.937 264.209,269.604 265,267.5C 265.667,245.833 265.667,224.167 265,202.5C 263.141,201.421 261.641,200.088 260.5,198.5 Z"/></g>
<g><path style="opacity:1" fill="#636363" d="M 120.5,199.5 C 121.043,199.56 121.376,199.893 121.5,200.5C 120.051,205.548 118.051,210.215 115.5,214.5C 116.196,209.079 117.863,204.079 120.5,199.5 Z"/></g>
<g><path style="opacity:1" fill="#1e1e1e" d="M 149.5,153.5 C 147.934,156.412 145.934,159.079 143.5,161.5C 144.521,161.458 145.521,161.458 146.5,161.5C 129.054,181.763 118.721,205.43 115.5,232.5C 113.59,240.938 113.09,249.605 114,258.5C 115.039,257.756 115.539,256.756 115.5,255.5C 115.194,263.037 115.694,270.704 117,278.5C 117.333,276.5 117.667,274.5 118,272.5C 126.015,316.158 149.182,348.992 187.5,371C 185.981,370.669 184.648,370.836 183.5,371.5C 131.546,341.27 107.713,295.937 112,235.5C 112.741,228.385 113.908,221.385 115.5,214.5C 118.051,210.215 120.051,205.548 121.5,200.5C 121.376,199.893 121.043,199.56 120.5,199.5C 125.663,184.839 133.163,171.506 143,159.5C 145.037,157.294 147.203,155.294 149.5,153.5 Z"/></g>
<g><path style="opacity:1" fill="#fcfcfc" d="M 273.5,202.5 C 283.233,202.109 292.9,202.609 302.5,204C 307.671,206.343 310.005,210.343 309.5,216C 309.871,222.267 307.204,226.601 301.5,229C 292.248,230.417 282.915,230.917 273.5,230.5C 273.5,221.167 273.5,211.833 273.5,202.5 Z"/></g>
<g><path style="opacity:1" fill="#757575" d="M 190.5,208.5 C 189.503,227.659 189.17,246.993 189.5,266.5C 188.338,246.671 188.171,226.671 189,206.5C 189.717,207.044 190.217,207.711 190.5,208.5 Z"/></g>
<g><path style="opacity:1" fill="#a1a1a1" d="M 240.5,203.5 C 241.828,223.337 241.828,243.337 240.5,263.5C 239.893,263.376 239.56,263.043 239.5,262.5C 240.497,243.007 240.83,223.34 240.5,203.5 Z"/></g>
<g><path style="opacity:1" fill="#fafafa" d="M 273.5,234.5 C 280.841,234.334 288.174,234.5 295.5,235C 309.123,237.651 314.289,245.817 311,259.5C 307.812,265.015 302.978,267.848 296.5,268C 288.841,268.5 281.174,268.666 273.5,268.5C 273.5,257.167 273.5,245.833 273.5,234.5 Z"/></g>
<g><path style="opacity:1" fill="#a4a4a4" d="M 127.5,214.5 C 124.333,229.995 122.666,245.662 122.5,261.5C 120.743,245.495 122.41,229.828 127.5,214.5 Z"/></g>
<g><path style="opacity:1" fill="#8c8c8c" d="M 115.5,232.5 C 115.263,233.791 115.596,234.791 116.5,235.5C 116.162,241.22 115.495,246.886 114.5,252.5C 115.127,253.417 115.461,254.417 115.5,255.5C 115.539,256.756 115.039,257.756 114,258.5C 113.09,249.605 113.59,240.938 115.5,232.5 Z"/></g>
<g><path style="opacity:1" fill="#5c5c5c" d="M 383.5,273.5 C 383.737,272.209 383.404,271.209 382.5,270.5C 382.649,269.448 382.483,268.448 382,267.5C 381.301,272.281 380.801,272.447 380.5,268C 380.762,265.453 381.262,262.953 382,260.5C 382.333,262.5 382.667,264.5 383,266.5C 383.17,264.285 383.837,262.285 385,260.5C 385.02,264.981 384.52,269.315 383.5,273.5 Z"/></g>
<g><path style="opacity:1" fill="#717171" d="M 381.5,277.5 C 380.514,282.294 379.014,286.96 377,291.5C 376.722,290.584 376.222,289.918 375.5,289.5C 377.148,283.911 378.648,278.245 380,272.5C 380.198,274.382 380.698,276.048 381.5,277.5 Z"/></g>
<g><path style="opacity:1" fill="#4a4a4a" d="M 308.5,307.5 C 308.5,307.833 308.5,308.167 308.5,308.5C 308.657,309.873 308.49,311.207 308,312.5C 307.667,308.833 307.333,305.167 307,301.5C 306.623,302.942 305.79,303.942 304.5,304.5C 307.576,298.955 306.743,298.288 302,302.5C 301.833,302.167 301.667,301.833 301.5,301.5C 302.881,299.309 304.881,297.976 307.5,297.5C 309.102,293.193 310.602,288.86 312,284.5C 310.053,291.98 308.886,299.647 308.5,307.5 Z"/></g>
<g><path style="opacity:1" fill="#494949" d="M 191.5,293.5 C 191.722,290.924 193.055,290.09 195.5,291C 193.394,296.992 191.894,303.159 191,309.5C 190.241,303.935 191.074,298.602 193.5,293.5C 193.03,292.537 192.363,292.537 191.5,293.5 Z"/></g>
<g><path style="opacity:1" fill="#8f8f8f" d="M 221.5,290.5 C 222.88,291.19 224.214,291.524 225.5,291.5C 223.861,292.322 222.195,292.989 220.5,293.5C 220.263,292.209 220.596,291.209 221.5,290.5 Z"/></g>
<g><path style="opacity:1" fill="#828282" d="M 267.5,294.5 C 269.488,292.535 270.988,290.202 272,287.5C 272.515,291.138 271.015,293.471 267.5,294.5 Z"/></g>
<g><path style="opacity:1" fill="#4d4d4d" d="M 188.5,295.5 C 186.885,297.328 186.552,299.328 187.5,301.5C 186.013,304.473 184.513,307.473 183,310.5C 182.346,311.696 181.846,311.696 181.5,310.5C 183.836,303.824 186.17,297.157 188.5,290.5C 188.833,291 189.167,291.5 189.5,292C 189.011,293.138 188.678,294.305 188.5,295.5 Z"/></g>
<g><path style="opacity:1" fill="#868686" d="M 373.5,300.5 C 374.096,298.602 374.096,296.935 373.5,295.5C 373.5,294.833 373.833,294.5 374.5,294.5C 375.222,294.082 375.722,293.416 376,292.5C 376.264,295.539 375.431,298.206 373.5,300.5 Z"/></g>
<g><path style="opacity:1" fill="#aeaeae" d="M 191.5,293.5 C 190.528,296.437 189.195,299.103 187.5,301.5C 186.552,299.328 186.885,297.328 188.5,295.5C 189.5,294.833 190.5,294.167 191.5,293.5 Z"/></g>
<g><path style="opacity:1" fill="#2e2e2e" d="M 314.5,304.5 C 313.833,304.5 313.167,304.5 312.5,304.5C 311.092,300.069 312.759,298.236 317.5,299C 313.194,299.693 312.194,301.527 314.5,304.5 Z"/></g>
<g><path style="opacity:1" fill="#4f4f4f" d="M 227.5,299.5 C 225.445,301.555 223.779,303.888 222.5,306.5C 223.183,308.176 224.517,308.843 226.5,308.5C 225.415,310.582 223.915,310.916 222,309.5C 220.98,304.537 222.813,301.203 227.5,299.5 Z"/></g>
<g><path style="opacity:1" fill="#8c8c8c" d="M 275.5,299.5 C 277.27,300.599 279.27,300.599 281.5,299.5C 279.563,300.954 277.897,302.621 276.5,304.5C 276.784,302.585 276.451,300.919 275.5,299.5 Z"/></g>
<g><path style="opacity:1" fill="#9e9e9e" d="M 227.5,299.5 C 228.844,303.544 227.177,305.878 222.5,306.5C 223.779,303.888 225.445,301.555 227.5,299.5 Z"/></g>
<g><path style="opacity:1" fill="#454545" d="M 280.5,309.5 C 278.943,305.247 280.277,301.913 284.5,299.5C 284.833,299.667 285.167,299.833 285.5,300C 282.227,302.319 280.56,305.486 280.5,309.5 Z"/></g>
<g><path style="opacity:1" fill="#2b2b2b" d="M 230.5,309.5 C 230.5,307.833 230.5,306.167 230.5,304.5C 231.046,302.697 231.88,301.03 233,299.5C 233.148,301.905 232.648,304.239 231.5,306.5C 231.68,307.554 232.013,308.554 232.5,309.5C 231.743,310.773 231.077,310.773 230.5,309.5 Z"/></g>
<g><path style="opacity:1" fill="#292929" d="M 285.5,306.5 C 285.5,305.833 285.167,305.5 284.5,305.5C 285.228,303.488 286.062,301.488 287,299.5C 287.228,302.643 286.728,304.976 285.5,306.5 Z"/></g>
<g><path style="opacity:1" fill="#555555" d="M 221.5,290.5 C 220.596,291.209 220.263,292.209 220.5,293.5C 218.463,298.617 216.796,303.95 215.5,309.5C 213.32,308.883 211.32,307.883 209.5,306.5C 212.327,298.851 211.493,298.517 207,305.5C 206.28,307.112 206.446,308.612 207.5,310C 204.441,305.51 205.774,302.01 211.5,299.5C 212.167,299.833 212.833,300.167 213.5,300.5C 212.276,302.839 212.276,305.172 213.5,307.5C 215.314,303.265 216.98,298.932 218.5,294.5C 213.343,293.013 213.676,292.347 219.5,292.5C 219.231,290.571 219.731,288.905 221,287.5C 221.483,288.448 221.649,289.448 221.5,290.5 Z"/></g>
<g><path style="opacity:1" fill="#2a2a2a" d="M 236.5,299.5 C 237.5,299.5 238.5,299.5 239.5,299.5C 238.498,310.153 237.498,310.153 236.5,299.5 Z"/></g>
<g><path style="opacity:1" fill="#7b7b7b" d="M 284.5,305.5 C 285.167,305.5 285.5,305.833 285.5,306.5C 284.636,307.688 283.636,308.855 282.5,310C 281.563,310.692 280.897,310.525 280.5,309.5C 282.194,308.473 283.527,307.139 284.5,305.5 Z"/></g>
<g><path style="opacity:1" fill="#707070" d="M 302.5,307.5 C 301.341,309.377 299.674,309.877 297.5,309C 295.977,306.566 294.977,303.899 294.5,301C 295.025,300.308 295.692,299.808 296.5,299.5C 297.318,302.107 297.818,304.774 298,307.5C 298.915,306.672 299.581,305.672 300,304.5C 300.236,306.119 301.069,307.119 302.5,307.5 Z"/></g>
<g><path style="opacity:1" fill="#3e3e3e" d="M 304.5,304.5 C 304.573,306.027 303.906,307.027 302.5,307.5C 302.427,305.973 303.094,304.973 304.5,304.5 Z"/></g>
<g><path style="opacity:1" fill="#b5b5b5" d="M 312.5,304.5 C 313.167,304.5 313.833,304.5 314.5,304.5C 313.92,306.749 312.587,308.415 310.5,309.5C 309.833,309.167 309.167,308.833 308.5,308.5C 308.5,308.167 308.5,307.833 308.5,307.5C 309.526,306.147 310.859,305.147 312.5,304.5 Z"/></g>
<g><path style="opacity:1" fill="#959595" d="M 230.5,304.5 C 230.5,306.167 230.5,307.833 230.5,309.5C 229.778,309.082 229.278,308.416 229,307.5C 228.329,308.252 227.496,308.586 226.5,308.5C 227.5,306.833 228.833,305.5 230.5,304.5 Z"/></g>
<g><path style="opacity:1" fill="#505050" d="M 245.5,298.5 C 246.5,298.5 247.5,298.5 248.5,298.5C 248.762,299.978 248.429,301.311 247.5,302.5C 247.089,301.738 246.923,300.738 247,299.5C 243.725,301.711 242.392,304.711 243,308.5C 244.333,307.167 245.667,305.833 247,304.5C 247.285,311.596 244.618,317.263 239,321.5C 236.749,320.937 235.749,319.603 236,317.5C 238,320.167 240,320.167 242,317.5C 243.442,314.95 244.608,312.284 245.5,309.5C 244.418,309.251 243.085,309.085 241.5,309C 240.978,308.439 240.645,307.772 240.5,307C 241.541,303.743 243.208,300.91 245.5,298.5 Z"/></g>
<g><path style="opacity:1" fill="#686868" d="M 267.5,294.5 C 264.713,296.205 265.046,297.372 268.5,298C 267.062,298.219 265.729,298.719 264.5,299.5C 263.455,302.806 262.122,305.973 260.5,309C 263.192,309.43 265.859,309.263 268.5,308.5C 268.389,309.117 268.056,309.617 267.5,310C 264.574,310.218 261.74,310.718 259,311.5C 258.905,306.464 259.405,301.464 260.5,296.5C 261.978,296.762 263.311,296.429 264.5,295.5C 265.18,293.111 266.014,290.778 267,288.5C 266.716,290.679 266.883,292.679 267.5,294.5 Z"/></g>
<g><path style="opacity:1" fill="#f4f4f4" d="M 261.5,297.5 C 262.376,297.369 263.043,297.702 263.5,298.5C 262.568,300.795 261.735,303.129 261,305.5C 260.825,302.843 260.992,300.176 261.5,297.5 Z"/></g>
<g><path style="opacity:1" fill="#656565" d="M 290.5,299.5 C 291.245,301.671 291.412,304.005 291,306.5C 291.419,305.328 292.085,304.328 293,303.5C 292.929,306.308 291.763,308.641 289.5,310.5C 288.235,306.687 288.569,303.02 290.5,299.5 Z"/></g>
<g><path style="opacity:1" fill="#4b4b4b" d="M 275.5,299.5 C 276.451,300.919 276.784,302.585 276.5,304.5C 275.59,306.019 274.757,307.685 274,309.5C 273.667,308.167 273.333,306.833 273,305.5C 271.871,307.141 270.371,308.141 268.5,308.5C 270.596,306.567 272.096,304.233 273,301.5C 273.333,302.5 273.667,303.5 274,304.5C 274.608,302.846 275.108,301.179 275.5,299.5 Z"/></g>
<g><path style="opacity:1" fill="#464646" d="M 204.5,299.5 C 204.343,306.826 202.176,313.826 198,320.5C 197,321.167 196,321.833 195,322.5C 198.362,317.761 200.696,312.428 202,306.5C 197.855,311.118 196.189,310.452 197,304.5C 197.5,303.5 198,302.5 198.5,301.5C 199.002,300.479 199.668,300.312 200.5,301C 199.373,302.753 198.373,304.587 197.5,306.5C 198.002,307.521 198.668,307.688 199.5,307C 201.808,304.872 203.474,302.372 204.5,299.5 Z"/></g>
<g><path style="opacity:1" fill="#333333" d="M 314.5,304.5 C 315.761,307.319 314.761,309.319 311.5,310.5C 310.893,310.376 310.56,310.043 310.5,309.5C 312.587,308.415 313.92,306.749 314.5,304.5 Z"/></g>
<g><path style="opacity:1" fill="#515151" d="M 372.5,311.5 C 371.646,308.839 372.312,306.506 374.5,304.5C 375.363,303.537 376.03,303.537 376.5,304.5C 375.392,307.059 374.059,309.392 372.5,311.5 Z"/></g>
<g><path style="opacity:1" fill="#747474" d="M 215.5,309.5 C 218.603,308.203 218.937,308.536 216.5,310.5C 215.893,310.376 215.56,310.043 215.5,309.5 Z"/></g>
<g><path style="opacity:1" fill="#494949" d="M 373.5,295.5 C 374.096,296.935 374.096,298.602 373.5,300.5C 371.902,305.701 369.735,310.701 367,315.5C 366.722,314.584 366.222,313.918 365.5,313.5C 368.716,307.736 371.383,301.736 373.5,295.5 Z"/></g>
<g><path style="opacity:1" fill="#696969" d="M 200.5,377.5 C 197.984,377.245 195.65,376.411 193.5,375C 196.242,374.705 198.575,375.538 200.5,377.5 Z"/></g>
<g><path style="opacity:1" fill="#494949" d="M 200.5,377.5 C 206.844,379.225 213.178,381.058 219.5,383C 217.942,383.21 216.609,383.71 215.5,384.5C 212.514,384.097 209.848,383.097 207.5,381.5C 205.738,380.245 203.405,378.911 200.5,377.5 Z"/></g>
</svg>
