<?xml version="1.0" encoding="UTF-8"?>
<!DOCTYPE svg PUBLIC "-//W3C//DTD SVG 1.1//EN" "http://www.w3.org/Graphics/SVG/1.1/DTD/svg11.dtd">
<svg xmlns="http://www.w3.org/2000/svg" version="1.1" width="490px" height="103px" style="shape-rendering:geometricPrecision; text-rendering:geometricPrecision; image-rendering:optimizeQuality; fill-rule:evenodd; clip-rule:evenodd" xmlns:xlink="http://www.w3.org/1999/xlink">
<g><path style="opacity:1" fill="#fdfdfe" d="M -0.5,-0.5 C 162.833,-0.5 326.167,-0.5 489.5,-0.5C 489.5,33.8333 489.5,68.1667 489.5,102.5C 326.167,102.5 162.833,102.5 -0.5,102.5C -0.5,68.1667 -0.5,33.8333 -0.5,-0.5 Z"/></g>
<g><path style="opacity:1" fill="#b0b8d7" d="M 5.5,5.5 C 50.997,4.50124 96.6636,4.1679 142.5,4.5C 142.831,35.3379 142.498,66.0045 141.5,96.5C 141.5,96.1667 141.5,95.8333 141.5,95.5C 141.5,65.5 141.5,35.5 141.5,5.5C 96.5,5.5 51.5,5.5 6.5,5.5C 6.16667,5.5 5.83333,5.5 5.5,5.5 Z"/></g>
<g><path style="opacity:1" fill="#0e4f9d" d="M 6.5,5.5 C 51.5,5.5 96.5,5.5 141.5,5.5C 141.5,35.5 141.5,65.5 141.5,95.5C 96.5,95.5 51.5,95.5 6.5,95.5C 6.5,65.5 6.5,35.5 6.5,5.5 Z"/></g>
<g><path style="opacity:1" fill="#7f8bbc" d="M 166.5,21.5 C 169.625,20.5206 172.958,20.1872 176.5,20.5C 176.5,19.5 176.5,18.5 176.5,17.5C 171.833,17.5 167.167,17.5 162.5,17.5C 162.5,24.8333 162.5,32.1667 162.5,39.5C 161.508,32.0182 161.175,24.3516 161.5,16.5C 166.833,16.5 172.167,16.5 177.5,16.5C 177.5,18.1667 177.5,19.8333 177.5,21.5C 173.833,21.5 170.167,21.5 166.5,21.5 Z"/></g>
<g><path style="opacity:1" fill="#114b9c" d="M 166.5,21.5 C 166.5,23.1667 166.5,24.8333 166.5,26.5C 169.5,26.5 172.5,26.5 175.5,26.5C 175.5,27.5 175.5,28.5 175.5,29.5C 172.5,29.5 169.5,29.5 166.5,29.5C 166.5,32.8333 166.5,36.1667 166.5,39.5C 165.167,39.5 163.833,39.5 162.5,39.5C 162.5,32.1667 162.5,24.8333 162.5,17.5C 167.167,17.5 171.833,17.5 176.5,17.5C 176.5,18.5 176.5,19.5 176.5,20.5C 172.958,20.1872 169.625,20.5206 166.5,21.5 Z"/></g>
<g><path style="opacity:1" fill="#1b4e9e" d="M 266.5,17.5 C 267.833,17.5 269.167,17.5 270.5,17.5C 270.5,24.8333 270.5,32.1667 270.5,39.5C 268.549,39.7733 267.049,39.1066 266,37.5C 261.751,40.5134 258.084,39.8467 255,35.5C 252.965,28.9016 255.132,24.5682 261.5,22.5C 263.055,22.722 264.389,23.3887 265.5,24.5C 266.474,22.2573 266.808,19.924 266.5,17.5 Z"/></g>
<g><path style="opacity:1" fill="#f3e82e" d="M 73.5,16.5 C 74.404,17.209 74.7373,18.209 74.5,19.5C 77.999,19.259 78.3323,20.0924 75.5,22C 76.4506,22.7175 76.6172,23.5509 76,24.5C 74.6667,23.1667 73.3333,23.1667 72,24.5C 71.8008,22.5975 70.9675,21.0975 69.5,20C 71.9102,19.9428 73.2435,18.7761 73.5,16.5 Z"/></g>
<g><path style="opacity:1" fill="#f0e532" d="M 58.5,20.5 C 59.404,21.209 59.7373,22.209 59.5,23.5C 64.2203,23.2254 64.5537,24.0588 60.5,26C 61.4506,26.7175 61.6172,27.5509 61,28.5C 59.6667,27.1667 58.3333,27.1667 57,28.5C 56.8008,26.5975 55.9675,25.0975 54.5,24C 56.9102,23.9428 58.2435,22.7761 58.5,20.5 Z"/></g>
<g><path style="opacity:1" fill="#e8dd3d" d="M 88.5,20.5 C 89.404,21.209 89.7373,22.209 89.5,23.5C 92.999,23.259 93.3323,24.0924 90.5,26C 91.7112,26.8928 91.7112,27.7261 90.5,28.5C 89.2798,27.2889 88.1131,27.2889 87,28.5C 86.7265,26.6711 85.8932,25.1711 84.5,24C 86.5503,23.5838 87.8836,22.4171 88.5,20.5 Z"/></g>
<g><path style="opacity:1" fill="#23509f" d="M 207.5,22.5 C 210.325,22.0807 212.491,23.0807 214,25.5C 214.499,30.1548 214.666,34.8215 214.5,39.5C 213.167,39.5 211.833,39.5 210.5,39.5C 210.666,35.4862 210.499,31.4862 210,27.5C 208.333,26.1667 206.667,26.1667 205,27.5C 204.501,31.4862 204.334,35.4862 204.5,39.5C 202.833,39.5 201.167,39.5 199.5,39.5C 199.5,34.1667 199.5,28.8333 199.5,23.5C 201.451,23.2267 202.951,23.8934 204,25.5C 205.145,24.3636 206.312,23.3636 207.5,22.5 Z"/></g>
<g><path style="opacity:1" fill="#1f4e9d" d="M 229.5,17.5 C 230.833,17.5 232.167,17.5 233.5,17.5C 233.5,24.8333 233.5,32.1667 233.5,39.5C 229.573,38.9336 225.573,38.7669 221.5,39C 218.64,35.3186 217.807,31.1519 219,26.5C 221.664,22.1653 224.997,21.4987 229,24.5C 229.497,22.1902 229.663,19.8568 229.5,17.5 Z"/></g>
<g><path style="opacity:1" fill="#204e9e" d="M 283.5,17.5 C 284.833,17.5 286.167,17.5 287.5,17.5C 287.337,19.8568 287.503,22.1902 288,24.5C 292.003,21.4987 295.336,22.1653 298,26.5C 299.193,31.1519 298.36,35.3186 295.5,39C 291.427,38.7669 287.427,38.9336 283.5,39.5C 283.5,32.1667 283.5,24.8333 283.5,17.5 Z"/></g>
<g><path style="opacity:1" fill="#f6f6fa" d="M 223.5,26.5 C 229.204,26.1464 231.037,28.813 229,34.5C 227,37.1667 225,37.1667 223,34.5C 222.278,31.7395 222.445,29.0728 223.5,26.5 Z"/></g>
<g><path style="opacity:1" fill="#ebecf5" d="M 260.5,26.5 C 266.786,27.3146 268.12,30.4812 264.5,36C 261.783,37.033 259.949,36.1997 259,33.5C 258.167,30.829 258.667,28.4957 260.5,26.5 Z"/></g>
<g><path style="opacity:1" fill="#f6f6fa" d="M 288.5,26.5 C 293.984,26.4382 295.817,29.1048 294,34.5C 292,37.1667 290,37.1667 288,34.5C 287.278,31.7395 287.445,29.0728 288.5,26.5 Z"/></g>
<g><path style="opacity:1" fill="#204d9d" d="M 241.5,22.5 C 248.549,22.216 251.883,25.5493 251.5,32.5C 248.167,32.5 244.833,32.5 241.5,32.5C 241.33,33.8221 241.663,34.9887 242.5,36C 245.076,36.6058 247.41,36.1058 249.5,34.5C 250.167,34.8333 250.833,35.1667 251.5,35.5C 248.813,39.3137 245.147,40.4804 240.5,39C 235.045,33.2053 235.379,27.7053 241.5,22.5 Z"/></g>
<g><path style="opacity:1" fill="#f8f9fb" d="M 242.5,26.5 C 244.665,26.1159 246.332,26.7826 247.5,28.5C 245.5,29.8333 243.5,29.8333 241.5,28.5C 241.863,27.8165 242.196,27.1499 242.5,26.5 Z"/></g>
<g><path style="opacity:1" fill="#1e4e9e" d="M 300.5,24.5 C 301.919,23.5489 303.585,23.2155 305.5,23.5C 306.16,27.3127 307.326,30.9793 309,34.5C 310.202,31.2265 311.202,27.8931 312,24.5C 313.494,23.2528 314.994,23.2528 316.5,24.5C 313.902,31.1279 311.402,37.7946 309,44.5C 306.619,45.435 304.119,45.7683 301.5,45.5C 301.5,44.5 301.5,43.5 301.5,42.5C 304.233,42.8039 305.899,41.6372 306.5,39C 304.767,33.9451 302.767,29.1117 300.5,24.5 Z"/></g>
<g><path style="opacity:1" fill="#ece137" d="M 47.5,31.5 C 48.4268,33.5762 50.0935,34.7428 52.5,35C 51.0325,36.0975 50.1992,37.5975 50,39.5C 48.6667,38.1667 47.3333,38.1667 46,39.5C 45.3828,38.5509 45.5494,37.7175 46.5,37C 43.6677,35.0924 44.001,34.259 47.5,34.5C 47.5,33.5 47.5,32.5 47.5,31.5 Z"/></g>
<g><path style="opacity:1" fill="#e2d844" d="M 98.5,31.5 C 100.048,31.8212 100.715,32.8212 100.5,34.5C 103.999,34.259 104.332,35.0924 101.5,37C 102.711,37.8928 102.711,38.7261 101.5,39.5C 99.8651,38.6698 98.1984,38.5031 96.5,39C 97.727,37.4126 97.3937,36.0793 95.5,35C 96.448,34.5172 97.448,34.3505 98.5,34.5C 98.5,33.5 98.5,32.5 98.5,31.5 Z"/></g>
<g><path style="opacity:1" fill="#2c54a1" d="M 180.5,23.5 C 182.167,23.5 183.833,23.5 185.5,23.5C 185.334,27.5138 185.501,31.5138 186,35.5C 187.938,36.8602 189.604,36.5268 191,34.5C 191.499,30.8484 191.665,27.1817 191.5,23.5C 192.833,23.5 194.167,23.5 195.5,23.5C 195.5,28.8333 195.5,34.1667 195.5,39.5C 193.549,39.7733 192.049,39.1066 191,37.5C 187.87,40.1217 184.703,40.1217 181.5,37.5C 180.557,32.8999 180.223,28.2332 180.5,23.5 Z"/></g>
<g><path style="opacity:1" fill="#f1e72f" d="M 43.5,46.5 C 44.3164,48.1436 45.6498,49.3103 47.5,50C 46.7734,51.3988 46.2734,52.8988 46,54.5C 44.6667,51.8333 43.3333,51.8333 42,54.5C 41.3828,53.5509 41.5494,52.7175 42.5,52C 41.8333,51.3333 41.1667,50.6667 40.5,50C 42.4257,49.5776 43.4257,48.4109 43.5,46.5 Z"/></g>
<g><path style="opacity:1" fill="#e4da41" d="M 102.5,46.5 C 104.048,46.8212 104.715,47.8212 104.5,49.5C 105.552,49.3505 106.552,49.5172 107.5,50C 106.123,52.3078 104.123,53.8078 101.5,54.5C 100.709,53.9344 100.709,53.101 101.5,52C 98.6105,50.1082 98.9438,49.2749 102.5,49.5C 102.5,48.5 102.5,47.5 102.5,46.5 Z"/></g>
<g><path style="opacity:1" fill="#114a9b" d="M 232.5,63.5 C 232.5,64.5 232.5,65.5 232.5,66.5C 228.833,66.5 225.167,66.5 221.5,66.5C 221.5,68.8333 221.5,71.1667 221.5,73.5C 225.833,73.5 230.167,73.5 234.5,73.5C 234.5,74.5 234.5,75.5 234.5,76.5C 228.833,76.5 223.167,76.5 217.5,76.5C 217.5,69.1667 217.5,61.8333 217.5,54.5C 222.833,54.5 228.167,54.5 233.5,54.5C 233.5,55.8333 233.5,57.1667 233.5,58.5C 229.5,58.5 225.5,58.5 221.5,58.5C 221.5,60.1667 221.5,61.8333 221.5,63.5C 225.167,63.5 228.833,63.5 232.5,63.5 Z"/></g>
<g><path style="opacity:1" fill="#144a9c" d="M 370.5,54.5 C 371.833,54.5 373.167,54.5 374.5,54.5C 374.334,60.1764 374.501,65.8431 375,71.5C 377.667,74.1667 380.333,74.1667 383,71.5C 383.499,65.8431 383.666,60.1764 383.5,54.5C 384.833,54.5 386.167,54.5 387.5,54.5C 387.666,60.8421 387.5,67.1754 387,73.5C 381.639,78.7559 376.305,78.7559 371,73.5C 370.5,67.1754 370.334,60.8421 370.5,54.5 Z"/></g>
<g><path style="opacity:1" fill="#264e9d" d="M 411.5,54.5 C 412.833,54.5 414.167,54.5 415.5,54.5C 415.5,55.8333 415.5,57.1667 415.5,58.5C 414.167,58.5 412.833,58.5 411.5,58.5C 411.5,57.1667 411.5,55.8333 411.5,54.5 Z"/></g>
<g><path style="opacity:1" fill="#3358a2" d="M 164.5,55.5 C 166.256,56.5521 166.923,58.2188 166.5,60.5C 167.5,60.5 168.5,60.5 169.5,60.5C 169.5,61.8333 169.5,63.1667 169.5,64.5C 168.5,64.5 167.5,64.5 166.5,64.5C 166.5,67.5 166.5,70.5 166.5,73.5C 167.5,73.5 168.5,73.5 169.5,73.5C 169.915,75.9477 168.915,77.2811 166.5,77.5C 164.399,77.3684 162.899,76.3684 162,74.5C 161.697,70.4705 161.197,66.4705 160.5,62.5C 160.734,59.3913 162.068,57.058 164.5,55.5 Z"/></g>
<g><path style="opacity:1" fill="#184c9c" d="M 172.5,54.5 C 173.833,54.5 175.167,54.5 176.5,54.5C 176.336,57.1873 176.503,59.854 177,62.5C 180,59.8333 183,59.8333 186,62.5C 186.499,67.1548 186.666,71.8215 186.5,76.5C 185.167,76.5 183.833,76.5 182.5,76.5C 182.666,72.4862 182.499,68.4862 182,64.5C 180.062,63.1398 178.396,63.4732 177,65.5C 176.501,69.1516 176.335,72.8183 176.5,76.5C 175.167,76.5 173.833,76.5 172.5,76.5C 172.5,69.1667 172.5,61.8333 172.5,54.5 Z"/></g>
<g><path style="opacity:1" fill="#1f4e9e" d="M 257.5,60.5 C 260.772,60.9484 264.106,61.2817 267.5,61.5C 266.324,63.6773 264.49,65.0107 262,65.5C 261.501,69.1516 261.335,72.8183 261.5,76.5C 260.167,76.5 258.833,76.5 257.5,76.5C 257.5,71.1667 257.5,65.8333 257.5,60.5 Z"/></g>
<g><path style="opacity:1" fill="#2b52a0" d="M 327.5,60.5 C 331.603,59.7691 335.103,60.7691 338,63.5C 338.499,67.8206 338.666,72.1539 338.5,76.5C 336.856,76.7135 335.356,76.3802 334,75.5C 327.676,79.2641 324.343,77.5974 324,70.5C 326.344,68.2256 329.178,67.0589 332.5,67C 333.337,65.9887 333.67,64.8221 333.5,63.5C 330.91,63.3962 328.577,64.0629 326.5,65.5C 325.833,65.1667 325.167,64.8333 324.5,64.5C 325.524,63.1482 326.524,61.8149 327.5,60.5 Z"/></g>
<g><path style="opacity:1" fill="#3156a2" d="M 342.5,60.5 C 344.451,60.2267 345.951,60.8934 347,62.5C 350.619,59.6572 353.952,59.9905 357,63.5C 357.499,68.1548 357.666,72.8215 357.5,77.5C 355.833,77.5 354.167,77.5 352.5,77.5C 352.666,73.1539 352.499,68.8206 352,64.5C 350.062,63.1398 348.396,63.4732 347,65.5C 346.501,69.1516 346.335,72.8183 346.5,76.5C 345.167,76.5 343.833,76.5 342.5,76.5C 342.5,71.1667 342.5,65.8333 342.5,60.5 Z"/></g>
<g><path style="opacity:1" fill="#1b4d9d" d="M 392.5,60.5 C 394.451,60.2267 395.951,60.8934 397,62.5C 400.204,59.887 403.37,59.887 406.5,62.5C 407.443,67.1001 407.777,71.7668 407.5,76.5C 406.167,76.5 404.833,76.5 403.5,76.5C 403.665,72.8183 403.499,69.1516 403,65.5C 401,62.8333 399,62.8333 397,65.5C 396.501,69.1516 396.335,72.8183 396.5,76.5C 395.167,76.5 393.833,76.5 392.5,76.5C 392.5,71.1667 392.5,65.8333 392.5,60.5 Z"/></g>
<g><path style="opacity:1" fill="#23509e" d="M 424.5,60.5 C 432.01,59.8523 435.843,63.1857 436,70.5C 434.775,75.0534 431.775,77.3867 427,77.5C 420.582,76.008 418.249,72.008 420,65.5C 421.025,63.313 422.525,61.6464 424.5,60.5 Z"/></g>
<g><path style="opacity:1" fill="#204f9e" d="M 273.5,60.5 C 281.448,59.9494 285.282,63.6161 285,71.5C 281.025,77.8951 276.025,78.8951 270,74.5C 267.267,68.7222 268.434,64.0555 273.5,60.5 Z"/></g>
<g><path style="opacity:1" fill="#1f4e9d" d="M 288.5,60.5 C 290.451,60.2267 291.951,60.8934 293,62.5C 297.767,59.2425 301.434,60.2425 304,65.5C 305.444,71.5361 303.277,75.5361 297.5,77.5C 295.813,77.2395 294.313,76.5728 293,75.5C 292.503,78.146 292.336,80.8127 292.5,83.5C 291.167,83.5 289.833,83.5 288.5,83.5C 288.5,75.8333 288.5,68.1667 288.5,60.5 Z"/></g>
<g><path style="opacity:1" fill="#ede236" d="M 47.5,61.5 C 48.3164,63.1436 49.6498,64.3103 51.5,65C 50.7734,66.3988 50.2734,67.8988 50,69.5C 48.6667,66.8333 47.3333,66.8333 46,69.5C 45.7266,67.8988 45.2266,66.3988 44.5,65C 46.4257,64.5776 47.4257,63.4109 47.5,61.5 Z"/></g>
<g><path style="opacity:1" fill="#e3d941" d="M 98.5,61.5 C 100.048,61.8212 100.715,62.8212 100.5,64.5C 103.999,64.259 104.332,65.0924 101.5,67C 102.451,67.7175 102.617,68.5509 102,69.5C 100.213,68.6569 98.3801,68.4902 96.5,69C 97.9255,67.2859 97.5922,65.9525 95.5,65C 96.448,64.5172 97.448,64.3505 98.5,64.5C 98.5,63.5 98.5,62.5 98.5,61.5 Z"/></g>
<g><path style="opacity:1" fill="#f0f1f7" d="M 275.5,63.5 C 277.39,63.2965 278.89,63.9632 280,65.5C 282.011,73.1699 279.678,75.1699 273,71.5C 272.018,68.2253 272.851,65.5586 275.5,63.5 Z"/></g>
<g><path style="opacity:1" fill="#f3f4f9" d="M 294.5,63.5 C 296.39,63.2965 297.89,63.9632 299,65.5C 299.769,68.0991 299.602,70.5991 298.5,73C 293,73.5571 291.167,71.0571 293,65.5C 293.717,64.9558 294.217,64.2891 294.5,63.5 Z"/></g>
<g><path style="opacity:1" fill="#eff0f7" d="M 426.5,63.5 C 428.39,63.2965 429.89,63.9632 431,65.5C 433.011,73.1699 430.678,75.1699 424,71.5C 423.018,68.2253 423.851,65.5586 426.5,63.5 Z"/></g>
<g><path style="opacity:1" fill="#25509e" d="M 310.5,60.5 C 318.01,59.6789 321.677,63.0122 321.5,70.5C 317.818,70.3347 314.152,70.5014 310.5,71C 311.119,72.7571 312.286,73.9238 314,74.5C 315.974,72.628 318.141,72.2947 320.5,73.5C 315.502,79.1365 311.002,78.8031 307,72.5C 305.593,67.6427 306.76,63.6427 310.5,60.5 Z"/></g>
<g><path style="opacity:1" fill="#e1e4f0" d="M 312.5,63.5 C 314.912,63.244 316.579,64.244 317.5,66.5C 315.167,67.8333 312.833,67.8333 310.5,66.5C 311.193,65.4822 311.859,64.4822 312.5,63.5 Z"/></g>
<g><path style="opacity:1" fill="#3258a3" d="M 439.5,60.5 C 441.451,60.2267 442.951,60.8934 444,62.5C 447.696,59.5749 451.029,59.9083 454,63.5C 454.499,68.1548 454.666,72.8215 454.5,77.5C 452.833,77.5 451.167,77.5 449.5,77.5C 449.666,73.1539 449.499,68.8206 449,64.5C 447.062,63.1398 445.396,63.4732 444,65.5C 443.501,69.1516 443.335,72.8183 443.5,76.5C 442.167,76.5 440.833,76.5 439.5,76.5C 439.5,71.1667 439.5,65.8333 439.5,60.5 Z"/></g>
<g><path style="opacity:1" fill="#eeeff6" d="M 330.5,69.5 C 331.5,69.5 332.5,69.5 333.5,69.5C 333.99,71.9484 333.157,73.615 331,74.5C 327.928,73.119 327.761,71.4523 330.5,69.5 Z"/></g>
<g><path style="opacity:1" fill="#3356a2" d="M 411.5,60.5 C 413.167,60.5 414.833,60.5 416.5,60.5C 416.5,66.1667 416.5,71.8333 416.5,77.5C 414.833,77.5 413.167,77.5 411.5,77.5C 411.5,71.8333 411.5,66.1667 411.5,60.5 Z"/></g>
<g><path style="opacity:1" fill="#204e9e" d="M 238.5,60.5 C 239.833,60.5 241.167,60.5 242.5,60.5C 242.334,64.8461 242.501,69.1794 243,73.5C 244.938,74.8602 246.604,74.5268 248,72.5C 248.499,68.5138 248.666,64.5138 248.5,60.5C 249.833,60.5 251.167,60.5 252.5,60.5C 252.5,65.8333 252.5,71.1667 252.5,76.5C 250.856,76.7135 249.356,76.3802 248,75.5C 245,78.1667 242,78.1667 239,75.5C 238.501,70.5111 238.334,65.5111 238.5,60.5 Z"/></g>
<g><path style="opacity:1" fill="#abb3d4" d="M 232.5,63.5 C 233.434,64.5676 233.768,65.901 233.5,67.5C 229.833,67.5 226.167,67.5 222.5,67.5C 222.5,69.1667 222.5,70.8333 222.5,72.5C 226.702,72.1832 230.702,72.5166 234.5,73.5C 230.167,73.5 225.833,73.5 221.5,73.5C 221.5,71.1667 221.5,68.8333 221.5,66.5C 225.167,66.5 228.833,66.5 232.5,66.5C 232.5,65.5 232.5,64.5 232.5,63.5 Z"/></g>
<g><path style="opacity:1" fill="#254f9e" d="M 194.5,60.5 C 201.963,59.6287 205.629,62.962 205.5,70.5C 201.774,70.1774 198.107,70.5108 194.5,71.5C 196.688,75.1217 199.354,75.4551 202.5,72.5C 203.167,72.8333 203.833,73.1667 204.5,73.5C 199.96,78.7883 195.46,78.7883 191,73.5C 190.333,70.5 190.333,67.5 191,64.5C 191.69,62.6498 192.856,61.3164 194.5,60.5 Z"/></g>
<g><path style="opacity:1" fill="#eff0f6" d="M 196.5,63.5 C 199.5,63.1667 200.833,64.5 200.5,67.5C 198.396,67.7989 196.396,67.4656 194.5,66.5C 195.193,65.4822 195.859,64.4822 196.5,63.5 Z"/></g>
<g><path style="opacity:1" fill="#e7dd3d" d="M 58.5,72.5 C 59.3164,74.1436 60.6498,75.3103 62.5,76C 61.7734,77.3988 61.2734,78.8988 61,80.5C 59.6667,77.8333 58.3333,77.8333 57,80.5C 56.7266,78.8988 56.2266,77.3988 55.5,76C 57.4257,75.5776 58.4257,74.4109 58.5,72.5 Z"/></g>
<g><path style="opacity:1" fill="#e9df3b" d="M 88.5,72.5 C 89.404,73.209 89.7373,74.209 89.5,75.5C 92.7973,75.3287 93.1306,75.9954 90.5,77.5C 91.8303,80.8488 91.3303,81.1821 89,78.5C 88.1627,80.0074 86.9961,80.5074 85.5,80C 86.8333,78.6667 86.8333,77.3333 85.5,76C 87.0557,75.2798 88.0557,74.1132 88.5,72.5 Z"/></g>
<g><path style="opacity:1" fill="#eee433" d="M 73.5,76.5 C 74.404,77.209 74.7373,78.209 74.5,79.5C 77.7973,79.3287 78.1306,79.9954 75.5,81.5C 76.8303,84.8488 76.3303,85.1821 74,82.5C 73.1627,84.0074 71.9961,84.5074 70.5,84C 71.8333,82.6667 71.8333,81.3333 70.5,80C 72.4257,79.5776 73.4257,78.4109 73.5,76.5 Z"/></g>
<g><path style="opacity:1" fill="#5874b0" d="M 5.5,5.5 C 5.83333,5.5 6.16667,5.5 6.5,5.5C 6.5,35.5 6.5,65.5 6.5,95.5C 51.5,95.5 96.5,95.5 141.5,95.5C 141.5,95.8333 141.5,96.1667 141.5,96.5C 96.1667,96.5 50.8333,96.5 5.5,96.5C 5.5,66.1667 5.5,35.8333 5.5,5.5 Z"/></g>
</svg>
