<?xml version="1.0" standalone="no"?>
<!DOCTYPE svg PUBLIC "-//W3C//DTD SVG 20010904//EN"
 "http://www.w3.org/TR/2001/REC-SVG-20010904/DTD/svg10.dtd">
<svg version="1.0" xmlns="http://www.w3.org/2000/svg"
 width="300.000000pt" height="168.000000pt" viewBox="0 0 300.000000 168.000000"
 preserveAspectRatio="xMidYMid meet">

<g transform="translate(0.000000,168.000000) scale(0.100000,-0.100000)"
fill="#000000" stroke="none">
<path d="M1336 1484 c-233 -56 -428 -254 -487 -494 -17 -71 -17 -229 0 -300
48 -193 182 -361 356 -445 94 -46 181 -65 295 -65 114 0 201 19 295 65 174 84
308 252 356 445 17 71 17 229 0 300 -60 243 -255 439 -491 494 -81 19 -245 19
-324 0z m164 -229 c0 -9 9 -15 21 -15 18 0 19 -2 9 -15 -7 -8 -10 -24 -7 -36
4 -16 3 -18 -9 -8 -8 6 -23 9 -34 6 -14 -4 -20 0 -20 12 0 9 -5 22 -12 29 -9
9 -7 12 10 12 13 0 22 6 22 15 0 8 5 15 10 15 6 0 10 -7 10 -15z m-168 -65
c21 -1 22 -1 5 -11 -14 -8 -17 -18 -12 -37 5 -22 4 -24 -9 -13 -9 7 -24 10
-37 6 -18 -6 -21 -4 -15 10 4 11 0 22 -11 31 -17 12 -17 13 4 14 13 0 24 8 29
22 l7 23 8 -23 c5 -14 17 -22 31 -22z m391 0 c21 -1 21 -1 3 -15 -12 -9 -17
-22 -13 -34 4 -18 2 -19 -15 -10 -14 8 -23 7 -35 -2 -13 -11 -14 -10 -11 7 1
12 -3 28 -11 37 -12 15 -11 17 7 17 11 0 23 8 27 18 6 16 7 16 16 0 6 -10 20
-18 32 -18z m-535 -140 c26 -1 26 -1 8 -15 -12 -9 -17 -22 -13 -34 4 -18 2
-19 -15 -10 -14 8 -23 7 -35 -2 -13 -11 -14 -10 -11 7 1 12 -3 28 -11 37 -12
15 -11 17 7 17 11 0 23 8 27 18 8 16 8 16 12 0 3 -12 14 -18 31 -18z m668 -10
c13 0 14 -3 4 -15 -7 -8 -10 -22 -6 -30 6 -17 -9 -21 -19 -5 -4 7 -13 6 -27
-1 -17 -9 -19 -8 -14 9 5 14 1 24 -11 31 -16 10 -16 10 4 11 13 0 24 8 29 22
l7 23 8 -23 c5 -12 16 -22 25 -22z m-746 -165 c0 -8 9 -15 20 -15 24 0 27 -15
5 -24 -13 -4 -14 -10 -5 -26 12 -22 1 -27 -18 -8 -8 8 -15 8 -28 -3 -16 -13
-17 -12 -12 9 4 15 2 25 -8 29 -21 8 -17 23 6 23 11 0 20 7 20 15 0 8 5 15 10
15 6 0 10 -7 10 -15z m804 -15 c20 0 21 -16 2 -23 -10 -4 -12 -14 -8 -29 5
-21 4 -22 -12 -9 -13 11 -20 11 -28 3 -19 -19 -26 -14 -20 13 2 15 0 25 -7 25
-6 0 -11 5 -11 10 0 6 9 10 20 10 12 0 20 7 20 18 1 16 1 16 14 0 7 -10 21
-18 30 -18z m-722 -200 c21 0 21 -1 3 -14 -11 -8 -16 -19 -12 -30 7 -18 -4
-21 -20 -5 -8 8 -13 8 -17 0 -12 -19 -28 -12 -21 8 4 13 0 23 -12 30 -16 10
-16 10 4 11 13 0 24 8 29 22 l7 23 8 -23 c5 -14 17 -22 31 -22z m670 0 c22 -1
22 -1 5 -15 -14 -10 -17 -20 -11 -37 6 -21 5 -22 -10 -9 -14 12 -21 12 -38 2
-18 -11 -19 -10 -13 9 5 15 1 26 -12 35 -17 14 -17 14 5 15 16 0 26 7 30 22
l5 22 8 -22 c5 -14 17 -22 31 -22z m-530 -140 c20 0 20 -1 4 -19 -10 -11 -14
-25 -10 -36 6 -15 4 -16 -15 -5 -18 9 -26 9 -39 -2 -14 -11 -15 -11 -9 6 5 12
1 26 -9 37 -16 18 -16 19 5 19 12 0 24 7 28 16 5 15 7 15 15 0 5 -9 18 -16 30
-16z m386 0 c26 -1 26 -1 8 -15 -12 -9 -17 -22 -13 -35 6 -22 -3 -26 -21 -8
-8 8 -15 8 -28 -2 -14 -12 -16 -12 -12 6 1 12 -3 28 -11 37 -12 15 -11 17 7
17 11 0 23 8 27 18 8 16 8 16 12 0 3 -12 14 -18 31 -18z m-193 -50 c15 0 16
-2 4 -17 -8 -9 -12 -25 -11 -37 3 -17 2 -18 -11 -7 -12 9 -21 10 -35 2 -17 -9
-19 -8 -15 10 4 12 -1 25 -13 34 -18 14 -18 14 4 15 12 0 25 7 29 16 6 16 7
16 18 0 7 -9 20 -16 30 -16z"/>
</g>
</svg>
