<?xml version="1.0" standalone="no"?>
<!DOCTYPE svg PUBLIC "-//W3C//DTD SVG 20010904//EN"
 "http://www.w3.org/TR/2001/REC-SVG-20010904/DTD/svg10.dtd">
<svg version="1.0" xmlns="http://www.w3.org/2000/svg"
 width="300.000000pt" height="168.000000pt" viewBox="0 0 300.000000 168.000000"
 preserveAspectRatio="xMidYMid meet">

<g transform="translate(0.000000,168.000000) scale(0.100000,-0.100000)"
fill="#000000" stroke="none">
<path d="M1600 1302 l0 -159 82 -18 c44 -11 76 -21 71 -22 -6 -2 -41 3 -78 12
-82 19 -77 19 -73 -7 2 -19 15 -26 73 -40 65 -16 57 -17 -37 -1 -36 5 -38 4
-38 -20 0 -28 15 -35 135 -59 33 -6 55 -13 49 -15 -6 -2 -50 5 -98 16 l-86 19
0 -184 0 -184 190 0 190 0 0 100 0 100 -75 0 -75 0 0 310 0 310 -115 0 -115 0
0 -158z m197 -208 c-3 -3 -12 -4 -19 -1 -8 3 -5 6 6 6 11 1 17 -2 13 -5z m-20
-50 c-3 -3 -12 -4 -19 -1 -8 3 -5 6 6 6 11 1 17 -2 13 -5z"/>
<path d="M1080 1323 l0 -48 230 -59 c126 -32 236 -56 245 -52 12 4 15 25 15
106 l0 100 -245 0 -245 0 0 -47z"/>
<path d="M817 1333 c-4 -3 -7 -156 -7 -339 0 -308 -1 -333 -18 -355 -13 -15
-30 -23 -55 -23 l-37 -1 0 -97 0 -97 46 -7 c123 -18 237 38 278 138 13 31 16
87 16 316 l0 279 -60 18 c-75 23 -72 31 4 12 l56 -15 0 27 c0 25 -6 29 -76 49
-42 13 -75 25 -72 27 2 2 24 -2 48 -9 98 -29 102 -29 98 -4 -2 18 -15 26 -67
41 -76 22 -77 32 -1 12 71 -19 70 -19 70 10 l0 25 -108 0 c-60 0 -112 -3 -115
-7z"/>
<path d="M1080 1242 c0 -16 11 -24 53 -36 60 -17 293 -76 301 -76 3 0 6 8 6
19 0 15 -26 25 -167 61 -92 23 -173 44 -180 47 -8 3 -13 -3 -13 -15z"/>
<path d="M1080 1180 c0 -18 7 -20 64 -20 59 0 65 -2 68 -22 3 -19 16 -25 93
-44 50 -13 100 -26 113 -29 21 -5 23 -2 20 20 -3 25 -10 28 -176 71 -95 24
-175 44 -178 44 -2 0 -4 -9 -4 -20z"/>
<path d="M1210 870 l0 -230 115 0 115 0 -2 202 -3 202 -90 22 c-49 13 -100 26
-112 29 l-23 5 0 -230z"/>
<path d="M1345 580 c-3 -5 -1 -10 4 -10 6 0 11 5 11 10 0 6 -2 10 -4 10 -3 0
-8 -4 -11 -10z"/>
<path d="M1390 580 c0 -5 5 -10 11 -10 5 0 7 5 4 10 -3 6 -8 10 -11 10 -2 0
-4 -4 -4 -10z"/>
<path d="M1610 540 c0 -27 5 -50 10 -50 6 0 10 23 10 50 0 28 -4 50 -10 50 -5
0 -10 -22 -10 -50z"/>
<path d="M1100 545 c0 -24 -5 -35 -15 -35 -8 0 -15 -4 -15 -10 0 -14 23 -13
38 2 14 14 16 78 2 78 -5 0 -10 -16 -10 -35z"/>
<path d="M1468 573 c7 -2 12 -22 12 -44 0 -21 5 -39 10 -39 6 0 10 18 10 39 0
29 5 41 18 44 9 3 -1 5 -23 5 -22 0 -34 -2 -27 -5z"/>
<path d="M1140 551 c0 -6 7 -8 15 -5 8 4 15 1 15 -5 0 -6 -7 -11 -15 -11 -8 0
-15 -9 -15 -20 0 -15 6 -19 25 -18 22 2 26 7 23 33 -2 22 -9 31 -25 33 -13 2
-23 -1 -23 -7z m40 -35 c0 -3 -4 -8 -10 -11 -5 -3 -10 -1 -10 4 0 6 5 11 10
11 6 0 10 -2 10 -4z"/>
<path d="M1220 525 c0 -19 5 -35 10 -35 6 0 10 11 10 25 0 14 5 25 10 25 6 0
10 -11 10 -25 0 -14 5 -25 10 -25 6 0 10 11 10 25 0 14 5 25 10 25 6 0 10 -11
10 -25 0 -14 5 -25 11 -25 6 0 9 14 7 33 -3 31 -5 32 -50 35 l-48 2 0 -35z"/>
<path d="M1353 525 c0 -22 2 -30 4 -17 2 12 2 30 0 40 -3 9 -5 -1 -4 -23z"/>
<path d="M1390 525 c0 -19 5 -35 10 -35 6 0 10 16 10 35 0 19 -4 35 -10 35 -5
0 -10 -16 -10 -35z"/>
<path d="M1540 545 c-10 -12 -11 -21 -3 -33 12 -20 53 -29 53 -12 0 7 -7 10
-15 7 -8 -4 -17 -2 -20 3 -4 6 3 10 15 10 15 0 20 5 18 17 -4 24 -32 28 -48 8z
m30 -5 c0 -5 -5 -10 -11 -10 -5 0 -7 5 -4 10 3 6 8 10 11 10 2 0 4 -4 4 -10z"/>
<path d="M1660 539 c-9 -15 -8 -24 1 -35 13 -16 49 -19 49 -3 0 5 -4 8 -8 5
-4 -2 -14 -1 -22 5 -11 6 -8 9 13 9 25 0 27 2 17 20 -14 26 -36 26 -50 -1z
m35 1 c3 -5 -1 -10 -10 -10 -9 0 -13 5 -10 10 3 6 8 10 10 10 2 0 7 -4 10 -10z"/>
<path d="M1740 545 c-14 -17 -7 -43 15 -51 23 -9 33 6 12 17 -21 12 -22 29 -2
29 8 0 15 5 15 10 0 15 -26 12 -40 -5z"/>
<path d="M1810 546 c-27 -33 18 -72 48 -42 13 13 14 20 6 34 -15 23 -38 26
-54 8z m36 -32 c-5 -13 -10 -14 -18 -6 -6 6 -8 18 -4 28 5 13 10 14 18 6 6 -6
8 -18 4 -28z"/>
<path d="M1890 525 c0 -19 5 -35 10 -35 6 0 10 11 10 25 0 14 5 25 10 25 6 0
10 -11 10 -25 0 -14 5 -25 10 -25 6 0 10 11 10 25 0 14 5 25 10 25 6 0 10 -11
10 -25 0 -14 5 -25 11 -25 6 0 9 14 7 33 -3 31 -5 32 -50 35 l-48 2 0 -35z"/>
<path d="M1300 251 c0 -13 -8 -21 -22 -23 -19 -2 -23 -9 -23 -38 0 -27 5 -36
20 -38 19 -4 19 -3 1 10 -22 17 -18 51 7 56 13 3 17 -3 17 -27 0 -16 5 -33 10
-36 6 -4 10 17 10 54 0 34 -4 61 -10 61 -5 0 -10 -9 -10 -19z"/>
<path d="M460 253 c1 -5 7 -19 15 -33 8 -14 15 -36 16 -50 1 -23 2 -23 8 5 4
17 13 41 20 53 7 13 10 26 8 29 -3 3 -12 -8 -20 -24 l-15 -28 -11 28 c-10 25
-21 36 -21 20z"/>
<path d="M817 253 c19 -4 23 -12 26 -56 l3 -52 2 52 c2 40 6 53 20 56 9 3 -3
5 -28 4 -25 0 -35 -2 -23 -4z"/>
<path d="M1380 206 c0 -51 2 -56 23 -56 36 0 45 13 44 60 -2 43 -3 45 -34 48
l-33 3 0 -55z m53 37 c9 -9 -12 -33 -29 -33 -8 0 -14 9 -14 20 0 19 28 28 43
13z m5 -60 c-2 -10 -13 -19 -26 -21 -17 -3 -22 2 -22 17 0 16 6 21 26 21 19 0
25 -5 22 -17z"/>
<path d="M2031 203 c1 -32 4 -46 6 -31 3 20 11 28 31 30 21 2 27 8 27 28 0 21
-5 26 -32 28 l-33 3 1 -58z m54 27 c0 -8 -10 -16 -22 -18 -18 -3 -23 2 -23 18
0 16 5 21 23 18 12 -2 22 -10 22 -18z"/>
<path d="M1118 239 c-2 -6 -2 -28 0 -50 3 -28 9 -39 21 -38 10 0 11 2 4 6 -15
5 -18 60 -4 65 5 2 3 8 -4 15 -9 8 -15 9 -17 2z"/>
<path d="M2258 237 c-2 -7 -2 -28 2 -47 3 -25 11 -36 25 -38 18 -2 18 -2 3 8
-19 11 -25 56 -9 62 5 2 3 8 -4 15 -10 9 -14 9 -17 0z"/>
<path d="M544 216 c-11 -28 1 -61 22 -64 28 -4 48 22 40 53 -5 18 -13 25 -32
25 -13 0 -27 -6 -30 -14z m50 -11 c8 -22 -4 -46 -23 -43 -9 2 -17 15 -19 31
-3 21 1 27 16 27 11 0 22 -7 26 -15z"/>
<path d="M633 195 c2 -36 5 -40 30 -41 25 -1 27 1 26 40 l-2 41 -6 -35 c-4
-22 -12 -35 -21 -35 -9 0 -18 13 -22 35 l-6 35 1 -40z"/>
<path d="M721 185 l1 -40 8 34 c4 18 14 37 21 42 10 6 7 8 -9 6 -19 -1 -22 -7
-21 -42z"/>
<path d="M902 188 l1 -43 4 37 c3 24 10 38 21 41 12 3 11 5 -5 6 -21 1 -23 -3
-21 -41z"/>
<path d="M953 195 c2 -37 4 -40 32 -40 28 -1 30 2 30 37 0 21 -3 38 -7 38 -5
0 -8 -13 -8 -29 0 -28 -15 -49 -27 -38 -3 4 -9 21 -14 39 -8 33 -8 33 -6 -7z"/>
<path d="M1040 215 c0 -8 9 -19 20 -25 11 -6 20 -16 20 -22 0 -5 -9 -8 -20 -5
-11 3 -20 1 -20 -4 0 -16 40 -10 47 7 4 11 -2 23 -17 34 l-24 18 25 5 c23 4
23 4 -3 6 -19 1 -28 -4 -28 -14z"/>
<path d="M1170 215 c-19 -23 2 -65 32 -64 l23 0 -22 9 c-31 13 -29 30 3 30 19
0 25 5 22 18 -4 22 -41 27 -58 7z m50 -5 c0 -5 -9 -10 -20 -10 -11 0 -20 5
-20 10 0 6 9 10 20 10 11 0 20 -4 20 -10z"/>
<path d="M1482 192 c-2 -41 -1 -42 28 -40 28 2 30 5 29 43 l-2 40 -6 -35 c-9
-51 -38 -53 -44 -3 l-4 38 -1 -43z"/>
<path d="M1564 218 c-4 -7 2 -18 14 -26 28 -18 29 -36 2 -29 -11 3 -18 1 -14
-4 9 -14 41 -10 48 6 3 9 -5 22 -21 32 l-26 17 24 7 c23 7 23 7 2 8 -12 1 -25
-4 -29 -11z"/>
<path d="M1643 190 c0 -25 2 -35 4 -22 2 12 2 32 0 45 -2 12 -4 2 -4 -23z"/>
<path d="M1681 185 l2 -40 6 35 c9 51 38 53 44 3 l4 -38 1 43 c2 41 1 42 -28
40 -28 -2 -30 -5 -29 -43z"/>
<path d="M1770 211 c-15 -28 3 -61 33 -60 l22 0 -22 9 c-31 13 -29 30 3 30 19
0 25 5 22 18 -5 25 -44 27 -58 3z m50 -1 c0 -5 -9 -10 -20 -10 -11 0 -20 5
-20 10 0 6 9 10 20 10 11 0 20 -4 20 -10z"/>
<path d="M1850 215 c0 -8 9 -19 20 -25 11 -6 20 -16 20 -22 0 -5 -9 -8 -20 -5
-11 3 -20 1 -20 -5 0 -5 10 -8 22 -6 30 4 35 34 9 43 -28 8 -27 23 2 28 19 4
18 4 -5 6 -19 1 -28 -4 -28 -14z"/>
<path d="M1920 215 c0 -8 9 -19 20 -25 11 -6 20 -16 20 -22 0 -5 -9 -8 -20 -5
-11 3 -20 1 -20 -5 0 -5 10 -8 22 -6 30 4 35 34 9 43 -28 8 -27 23 2 28 19 4
18 4 -5 6 -19 1 -28 -4 -28 -14z"/>
<path d="M2138 223 c30 -6 28 -19 -4 -27 -35 -9 -29 -41 9 -42 25 -1 27 2 27
37 0 36 -2 39 -27 38 -24 -2 -25 -2 -5 -6z m22 -42 c0 -14 -18 -23 -30 -16 -6
4 -8 11 -5 16 8 12 35 12 35 0z"/>
<path d="M2201 185 c2 -33 3 -35 6 -10 2 17 11 35 20 42 13 10 13 12 -6 10
-18 -1 -21 -7 -20 -42z"/>
<path d="M2322 188 l1 -43 4 38 c6 50 35 48 45 -3 l6 -35 -1 40 c-2 36 -5 40
-29 43 -27 3 -28 2 -26 -40z"/>
<path d="M2404 205 c-8 -31 11 -55 40 -54 l21 2 -22 4 c-12 2 -24 11 -27 19
-4 10 3 14 25 14 24 0 30 4 25 16 -3 9 -6 18 -6 20 0 2 -11 4 -25 4 -18 0 -26
-7 -31 -25z m51 5 c4 -6 -5 -10 -20 -10 -15 0 -24 4 -20 10 3 6 12 10 20 10 8
0 17 -4 20 -10z"/>
<path d="M2491 185 c2 -33 3 -35 6 -10 2 17 11 35 20 42 13 10 13 12 -6 10
-18 -1 -21 -7 -20 -42z"/>
</g>
</svg>
