<?xml version="1.0" encoding="UTF-8"?>
<!DOCTYPE svg PUBLIC "-//W3C//DTD SVG 1.1//EN" "http://www.w3.org/Graphics/SVG/1.1/DTD/svg11.dtd">
<svg xmlns="http://www.w3.org/2000/svg" version="1.1" width="300px" height="168px" style="shape-rendering:geometricPrecision; text-rendering:geometricPrecision; image-rendering:optimizeQuality; fill-rule:evenodd; clip-rule:evenodd" xmlns:xlink="http://www.w3.org/1999/xlink">
<g><path style="opacity:1" fill="#fcfcfc" d="M -0.5,-0.5 C 99.5,-0.5 199.5,-0.5 299.5,-0.5C 299.5,55.5 299.5,111.5 299.5,167.5C 199.5,167.5 99.5,167.5 -0.5,167.5C -0.5,111.5 -0.5,55.5 -0.5,-0.5 Z"/></g>
<g><path style="opacity:1" fill="#75a94f" d="M 126.5,12.5 C 140.171,12.3334 153.837,12.5001 167.5,13C 175.232,13.5626 182.898,14.5626 190.5,16C 147.177,11.4974 106.177,19.164 67.5,39C 52.1312,46.7013 41.2979,58.5346 35,74.5C 33.4403,83.129 34.9403,91.129 39.5,98.5C 39.3333,98.8333 39.1667,99.1667 39,99.5C 22.1988,81.2023 22.3654,63.0356 39.5,45C 56.018,31.7423 74.6847,22.7423 95.5,18C 105.993,16.2375 116.326,14.4042 126.5,12.5 Z"/></g>
<g><path style="opacity:1" fill="#bab9b9" d="M 182.5,21.5 C 183.497,41.6598 183.83,61.9931 183.5,82.5C 188.363,82.1805 193.03,82.5139 197.5,83.5C 192.5,83.5 187.5,83.5 182.5,83.5C 182.5,79.5 182.5,75.5 182.5,71.5C 182.5,71.1667 182.5,70.8333 182.5,70.5C 182.5,68.5 182.5,66.5 182.5,64.5C 174.806,63.3264 167.139,61.9931 159.5,60.5C 159.5,59.8333 159.5,59.1667 159.5,58.5C 167.079,60.5492 174.746,62.2159 182.5,63.5C 182.5,49.5 182.5,35.5 182.5,21.5 Z"/></g>
<g><path style="opacity:1" fill="#201c1d" d="M 182.5,21.5 C 182.5,35.5 182.5,49.5 182.5,63.5C 174.746,62.2159 167.079,60.5492 159.5,58.5C 159.157,56.5168 159.824,55.1834 161.5,54.5C 167.296,56.3589 173.296,57.5256 179.5,58C 173.814,56.4317 168.147,54.9317 162.5,53.5C 161.5,53.5 160.5,53.5 159.5,53.5C 159.5,42.8333 159.5,32.1667 159.5,21.5C 167.167,21.5 174.833,21.5 182.5,21.5 Z"/></g>
<g><path style="opacity:1" fill="#201c1d" d="M 155.5,30.5 C 155.5,37.1667 155.5,43.8333 155.5,50.5C 153.5,50.5 151.5,50.5 149.5,50.5C 148.5,50.5 147.5,50.5 146.5,50.5C 135.652,47.3344 124.652,44.3344 113.5,41.5C 111.565,40.8505 109.565,40.5172 107.5,40.5C 107.5,37.1667 107.5,33.8333 107.5,30.5C 123.5,30.5 139.5,30.5 155.5,30.5 Z"/></g>
<g><path style="opacity:1" fill="#757374" d="M 155.5,30.5 C 156.491,37.3134 156.825,44.3134 156.5,51.5C 153.941,51.8016 151.607,51.4682 149.5,50.5C 151.5,50.5 153.5,50.5 155.5,50.5C 155.5,43.8333 155.5,37.1667 155.5,30.5 Z"/></g>
<g><path style="opacity:1" fill="#5f5e5e" d="M 103.5,33.5 C 103.5,33.8333 103.5,34.1667 103.5,34.5C 98.6367,34.1805 93.97,34.5139 89.5,35.5C 86.9039,34.7347 84.2372,34.4013 81.5,34.5C 81.8306,55.6733 81.4973,76.6733 80.5,97.5C 80.5,76.1667 80.5,54.8333 80.5,33.5C 88.1667,33.5 95.8333,33.5 103.5,33.5 Z"/></g>
<g><path style="opacity:1" fill="#181415" d="M 89.5,35.5 C 93.97,34.5139 98.6367,34.1805 103.5,34.5C 103.5,35.8333 103.5,37.1667 103.5,38.5C 98.9061,37.185 94.2394,36.185 89.5,35.5 Z"/></g>
<g><path style="opacity:1" fill="#211d1e" d="M 89.5,35.5 C 93.9559,37.5425 98.6225,39.2091 103.5,40.5C 103.762,41.9778 103.429,43.3112 102.5,44.5C 98.5969,42.9141 94.5969,42.0808 90.5,42C 94.7155,43.6842 99.0488,44.8509 103.5,45.5C 103.5,47.5 103.5,49.5 103.5,51.5C 103.167,51.5 102.833,51.5 102.5,51.5C 97.0762,49.2268 91.4095,47.7268 85.5,47C 91.0314,49.2985 96.698,51.1318 102.5,52.5C 103.166,61.6606 103.5,70.9939 103.5,80.5C 103.619,91.222 103.119,101.889 102,112.5C 94.5596,124.91 83.7263,129.243 69.5,125.5C 69.5,119.167 69.5,112.833 69.5,106.5C 76.5249,107.468 80.1916,104.468 80.5,97.5C 81.4973,76.6733 81.8306,55.6733 81.5,34.5C 84.2372,34.4013 86.9039,34.7347 89.5,35.5 Z"/></g>
<g><path style="opacity:1" fill="#aaa9a9" d="M 103.5,33.5 C 104.756,35.7257 104.756,38.059 103.5,40.5C 98.6225,39.2091 93.9559,37.5425 89.5,35.5C 94.2394,36.185 98.9061,37.185 103.5,38.5C 103.5,37.1667 103.5,35.8333 103.5,34.5C 103.5,34.1667 103.5,33.8333 103.5,33.5 Z"/></g>
<g><path style="opacity:1" fill="#bab9b9" d="M 103.5,40.5 C 104.833,44.1667 104.833,47.8333 103.5,51.5C 103.5,49.5 103.5,47.5 103.5,45.5C 99.0488,44.8509 94.7155,43.6842 90.5,42C 94.5969,42.0808 98.5969,42.9141 102.5,44.5C 103.429,43.3112 103.762,41.9778 103.5,40.5 Z"/></g>
<g><path style="opacity:1" fill="#75a94f" d="M 199.5,74.5 C 202.273,75.6572 205.273,76.3239 208.5,76.5C 216.866,77.9978 225.2,77.8311 233.5,76C 236.167,74.3333 236.167,72.6667 233.5,71C 236.232,70.587 238.899,69.9203 241.5,69C 242.337,67.9887 242.67,66.8221 242.5,65.5C 246.327,65.6129 249.827,64.6129 253,62.5C 252.983,60.4324 251.983,58.7657 250,57.5C 249.274,60.288 247.44,61.788 244.5,62C 227.51,64.577 210.843,63.7436 194.5,59.5C 194.751,57.8297 195.418,56.3297 196.5,55C 203.205,55.0065 209.872,55.3398 216.5,56C 210.832,54.5733 205.165,53.2399 199.5,52C 201.208,49.9565 203.208,48.2899 205.5,47C 210.179,46.8363 214.845,46.8363 219.5,47C 216.211,46.1184 212.877,45.4517 209.5,45C 223.75,38.7094 237.75,39.376 251.5,47C 262.982,59.3187 261.649,70.3187 247.5,80C 231.581,87.6492 215.915,87.3158 200.5,79C 199.167,77.6667 197.833,76.3333 196.5,75C 197.448,74.5172 198.448,74.3505 199.5,74.5 Z"/></g>
<g><path style="opacity:1" fill="#1e1b1c" d="M 112.5,42.5 C 122.788,45.6554 133.121,48.6554 143.5,51.5C 143.5,52.5 143.5,53.5 143.5,54.5C 131.395,51.9093 119.395,48.9093 107.5,45.5C 107.238,44.0222 107.571,42.6888 108.5,41.5C 109.736,42.2458 111.07,42.5792 112.5,42.5 Z"/></g>
<g><path style="opacity:1" fill="#d8d7d7" d="M 107.5,45.5 C 119.395,48.9093 131.395,51.9093 143.5,54.5C 143.5,55.1667 143.5,55.8333 143.5,56.5C 135.71,54.9022 128.044,52.9022 120.5,50.5C 119.391,50.4431 118.391,50.1098 117.5,49.5C 114.123,49.0405 110.789,48.3739 107.5,47.5C 107.5,46.8333 107.5,46.1667 107.5,45.5 Z"/></g>
<g><path style="opacity:1" fill="#d2d1d1" d="M 113.5,41.5 C 124.652,44.3344 135.652,47.3344 146.5,50.5C 145.609,51.1098 144.609,51.4431 143.5,51.5C 133.121,48.6554 122.788,45.6554 112.5,42.5C 113.167,42.5 113.5,42.1667 113.5,41.5 Z"/></g>
<g><path style="opacity:1" fill="#9f9e9e" d="M 102.5,51.5 C 102.5,51.8333 102.5,52.1667 102.5,52.5C 96.698,51.1318 91.0314,49.2985 85.5,47C 91.4095,47.7268 97.0762,49.2268 102.5,51.5 Z"/></g>
<g><path style="opacity:1" fill="#151112" d="M 107.5,47.5 C 110.789,48.3739 114.123,49.0405 117.5,49.5C 114.375,50.4794 111.042,50.8128 107.5,50.5C 107.5,49.5 107.5,48.5 107.5,47.5 Z"/></g>
<g><path style="opacity:1" fill="#716f70" d="M 117.5,49.5 C 118.391,50.1098 119.391,50.4431 120.5,50.5C 120.5,50.8333 120.5,51.1667 120.5,51.5C 115.968,51.8182 111.634,51.4849 107.5,50.5C 111.042,50.8128 114.375,50.4794 117.5,49.5 Z"/></g>
<g><path style="opacity:1" fill="#1e1b1b" d="M 120.5,50.5 C 128.044,52.9022 135.71,54.9022 143.5,56.5C 143.785,58.288 143.452,59.9547 142.5,61.5C 135.3,59.1999 127.967,57.5332 120.5,56.5C 120.5,54.8333 120.5,53.1667 120.5,51.5C 120.5,51.1667 120.5,50.8333 120.5,50.5 Z"/></g>
<g><path style="opacity:1" fill="#a7a6a6" d="M 162.5,53.5 C 168.147,54.9317 173.814,56.4317 179.5,58C 173.296,57.5256 167.296,56.3589 161.5,54.5C 162.167,54.5 162.5,54.1667 162.5,53.5 Z"/></g>
<g><path style="opacity:1" fill="#75a94f" d="M 114.5,131.5 C 114.842,130.662 115.508,130.328 116.5,130.5C 158.017,133.165 197.017,124.665 233.5,105C 244.333,98.1667 253.167,89.3333 260,78.5C 266.112,65.3485 264.279,53.5151 254.5,43C 254.833,42.8333 255.167,42.6667 255.5,42.5C 277.115,63.2754 276.782,83.7754 254.5,104C 232.92,119.087 208.92,128.087 182.5,131C 159.833,134.097 137.166,134.264 114.5,131.5 Z"/></g>
<g><path style="opacity:1" fill="#ecf3e8" d="M 208.5,76.5 C 214.167,75.8333 219.833,75.1667 225.5,74.5C 228.059,74.6104 230.392,73.9438 232.5,72.5C 219.375,71.6346 206.375,69.9679 193.5,67.5C 193.5,67.1667 193.5,66.8333 193.5,66.5C 208.127,68.6542 222.793,68.9876 237.5,67.5C 238.289,67.2172 238.956,66.7172 239.5,66C 234.511,65.5007 229.511,65.3341 224.5,65.5C 214.139,64.7818 203.806,63.7818 193.5,62.5C 193.263,61.209 193.596,60.209 194.5,59.5C 210.843,63.7436 227.51,64.577 244.5,62C 247.44,61.788 249.274,60.288 250,57.5C 251.983,58.7657 252.983,60.4324 253,62.5C 249.827,64.6129 246.327,65.6129 242.5,65.5C 242.67,66.8221 242.337,67.9887 241.5,69C 238.899,69.9203 236.232,70.587 233.5,71C 236.167,72.6667 236.167,74.3333 233.5,76C 225.2,77.8311 216.866,77.9978 208.5,76.5 Z"/></g>
<g><path style="opacity:1" fill="#211d1e" d="M 120.5,57.5 C 128.022,59.8045 135.688,61.4711 143.5,62.5C 143.5,76.1667 143.5,89.8333 143.5,103.5C 135.833,103.5 128.167,103.5 120.5,103.5C 120.5,88.1667 120.5,72.8333 120.5,57.5 Z"/></g>
<g><path style="opacity:1" fill="#1d191a" d="M 159.5,60.5 C 167.139,61.9931 174.806,63.3264 182.5,64.5C 182.5,66.5 182.5,68.5 182.5,70.5C 175.091,69.1477 167.758,67.4811 160.5,65.5C 159.549,64.0813 159.216,62.4147 159.5,60.5 Z"/></g>
<g><path style="opacity:1" fill="#73a84c" d="M 193.5,62.5 C 203.806,63.7818 214.139,64.7818 224.5,65.5C 228.833,66.1667 233.167,66.8333 237.5,67.5C 222.793,68.9876 208.127,68.6542 193.5,66.5C 193.5,65.1667 193.5,63.8333 193.5,62.5 Z"/></g>
<g><path style="opacity:1" fill="#b9d2a8" d="M 224.5,65.5 C 229.511,65.3341 234.511,65.5007 239.5,66C 238.956,66.7172 238.289,67.2172 237.5,67.5C 233.167,66.8333 228.833,66.1667 224.5,65.5 Z"/></g>
<g><path style="opacity:1" fill="#221e1f" d="M 160.5,66.5 C 167.548,68.9125 174.881,70.5792 182.5,71.5C 182.5,75.5 182.5,79.5 182.5,83.5C 187.5,83.5 192.5,83.5 197.5,83.5C 197.5,90.1667 197.5,96.8333 197.5,103.5C 184.833,103.5 172.167,103.5 159.5,103.5C 159.171,90.9887 159.505,78.6554 160.5,66.5 Z"/></g>
<g><path style="opacity:1" fill="#8c8b8b" d="M 160.5,65.5 C 167.758,67.4811 175.091,69.1477 182.5,70.5C 182.5,70.8333 182.5,71.1667 182.5,71.5C 174.881,70.5792 167.548,68.9125 160.5,66.5C 160.5,66.1667 160.5,65.8333 160.5,65.5 Z"/></g>
<g><path style="opacity:1" fill="#72a84b" d="M 193.5,67.5 C 206.375,69.9679 219.375,71.6346 232.5,72.5C 230.392,73.9438 228.059,74.6104 225.5,74.5C 216.833,74.5 208.167,74.5 199.5,74.5C 195.903,73.6927 193.903,71.3593 193.5,67.5 Z"/></g>
<g><path style="opacity:1" fill="#bbd4ab" d="M 199.5,74.5 C 208.167,74.5 216.833,74.5 225.5,74.5C 219.833,75.1667 214.167,75.8333 208.5,76.5C 205.273,76.3239 202.273,75.6572 199.5,74.5 Z"/></g>
<g><path style="opacity:1" fill="#1f1e1e" d="M 109.5,109.5 C 110.725,110.152 111.392,111.319 111.5,113C 111.685,116.997 110.019,118.497 106.5,117.5C 107.325,116.614 108.325,116.281 109.5,116.5C 109.5,114.167 109.5,111.833 109.5,109.5 Z"/></g>
<g><path style="opacity:1" fill="#424142" d="M 134.5,108.5 C 137.137,110.154 136.803,110.654 133.5,110C 134.056,109.617 134.389,109.117 134.5,108.5 Z"/></g>
<g><path style="opacity:1" fill="#282526" d="M 160.5,108.5 C 161.777,109.694 162.444,111.36 162.5,113.5C 162.167,115.167 161.833,116.833 161.5,118.5C 160.513,115.232 160.18,111.898 160.5,108.5 Z"/></g>
<g><path style="opacity:1" fill="#191718" d="M 121.5,111.5 C 124.672,111.928 127.672,112.095 130.5,112C 131.769,114.139 131.769,116.305 130.5,118.5C 129.167,111.833 127.833,111.833 126.5,118.5C 125.167,111.833 123.833,111.833 122.5,118.5C 121.526,116.257 121.192,113.924 121.5,111.5 Z"/></g>
<g><path style="opacity:1" fill="#120f10" d="M 138.5,111.5 C 139.725,112.152 140.392,113.319 140.5,115C 140.167,116.167 139.833,117.333 139.5,118.5C 138.526,116.257 138.192,113.924 138.5,111.5 Z"/></g>
<g><path style="opacity:1" fill="#151314" d="M 145.5,110.5 C 149.991,109.259 151.324,109.259 149.5,110.5C 149.813,113.247 149.48,115.914 148.5,118.5C 148.08,115.384 147.08,112.717 145.5,110.5 Z"/></g>
<g><path style="opacity:1" fill="#272626" d="M 166.5,111.5 C 172.846,113.324 172.846,114.824 166.5,116C 167.938,116.219 169.271,116.719 170.5,117.5C 164.794,118.458 163.46,116.458 166.5,111.5 Z"/></g>
<g><path style="opacity:1" fill="#1f1d1e" d="M 174.5,111.5 C 178.243,111.459 178.41,112.126 175,113.5C 174.517,114.448 174.351,115.448 174.5,116.5C 175.675,116.281 176.675,116.614 177.5,117.5C 172.396,117.905 171.396,115.905 174.5,111.5 Z"/></g>
<g><path style="opacity:1" fill="#131112" d="M 181.5,111.5 C 186.493,111.997 187.493,114.164 184.5,118C 179.382,117.824 178.382,115.658 181.5,111.5 Z"/></g>
<g><path style="opacity:1" fill="#211f20" d="M 154.5,112.5 C 157.33,110.965 158.663,111.965 158.5,115.5C 153.318,115.557 153.318,116.224 158.5,117.5C 155.506,119.003 153.506,118.169 152.5,115C 152.639,113.699 153.305,112.866 154.5,112.5 Z"/></g>
<g><path style="opacity:1" fill="#bdbcbc" d="M 154.5,112.5 C 156.337,112.639 156.67,113.306 155.5,114.5C 154.702,114.043 154.369,113.376 154.5,112.5 Z"/></g>
<g><path style="opacity:1" fill="#b4b3b3" d="M 167.5,112.5 C 170.137,114.154 169.803,114.654 166.5,114C 167.056,113.617 167.389,113.117 167.5,112.5 Z"/></g>
<g><path style="opacity:1" fill="#d4d4d4" d="M 182.5,112.5 C 184.898,113.882 185.065,115.549 183,117.5C 181.212,115.977 181.045,114.31 182.5,112.5 Z"/></g>
<g><path style="opacity:1" fill="#181617" d="M 188.5,111.5 C 191.672,111.928 194.672,112.095 197.5,112C 198.769,114.139 198.769,116.305 197.5,118.5C 196.167,111.833 194.833,111.833 193.5,118.5C 192.167,111.833 190.833,111.833 189.5,118.5C 188.526,116.257 188.192,113.924 188.5,111.5 Z"/></g>
<g><path style="opacity:1" fill="#161414" d="M 118.5,112.5 C 118.785,114.288 118.452,115.955 117.5,117.5C 117.511,116.559 117.011,115.892 116,115.5C 114.989,116.056 114.156,116.722 113.5,117.5C 113.5,116.5 113.5,115.5 113.5,114.5C 116.718,114.349 117.051,113.516 114.5,112C 115.928,111.421 117.262,111.588 118.5,112.5 Z"/></g>
<g><path style="opacity:1" fill="#636061" d="M 118.5,112.5 C 119.461,114.265 119.795,116.265 119.5,118.5C 117.265,118.795 115.265,118.461 113.5,117.5C 114.156,116.722 114.989,116.056 116,115.5C 117.011,115.892 117.511,116.559 117.5,117.5C 118.452,115.955 118.785,114.288 118.5,112.5 Z"/></g>
<g><path style="opacity:1" fill="#b9d2a8" d="M 116.5,130.5 C 115.508,130.328 114.842,130.662 114.5,131.5C 109.827,130.777 105.16,129.943 100.5,129C 106.03,128.672 111.363,129.172 116.5,130.5 Z"/></g>
<g><path style="opacity:1" fill="#080808" d="M 79.5,142.5 C 83.9666,141.138 85.6332,141.138 84.5,142.5C 84.1667,155.833 83.8333,155.833 83.5,142.5C 82.1667,142.5 80.8333,142.5 79.5,142.5 Z"/></g>
<g><path style="opacity:1" fill="#464444" d="M 129.5,140.5 C 131.423,144.029 132.089,148.029 131.5,152.5C 125.326,153.827 123.159,151.494 125,145.5C 127.495,144.238 127.828,144.571 126,146.5C 125.333,147.833 125.333,149.167 126,150.5C 127,151.833 128,151.833 129,150.5C 128.652,147.064 128.819,143.731 129.5,140.5 Z"/></g>
<g><path style="opacity:1" fill="#040303" d="M 142.5,141.5 C 142.5,141.833 142.5,142.167 142.5,142.5C 141.167,142.5 139.833,142.5 138.5,142.5C 138.5,143.5 138.5,144.5 138.5,145.5C 138.5,146.167 138.5,146.833 138.5,147.5C 138.5,148.833 138.5,150.167 138.5,151.5C 139.833,151.5 141.167,151.5 142.5,151.5C 141.081,152.451 139.415,152.784 137.5,152.5C 137.5,148.833 137.5,145.167 137.5,141.5C 139.167,141.5 140.833,141.5 142.5,141.5 Z"/></g>
<g><path style="opacity:1" fill="#6e6d6d" d="M 162.5,140.5 C 164.337,140.639 164.67,141.306 163.5,142.5C 162.702,142.043 162.369,141.376 162.5,140.5 Z"/></g>
<g><path style="opacity:1" fill="#101010" d="M 202.5,141.5 C 204.527,141.338 206.527,141.505 208.5,142C 209.99,144.2 209.657,146.034 207.5,147.5C 207.167,147.333 206.833,147.167 206.5,147C 209.244,143.538 208.244,142.038 203.5,142.5C 203.665,145.85 203.498,149.183 203,152.5C 202.501,148.848 202.335,145.182 202.5,141.5 Z"/></g>
<g><path style="opacity:1" fill="#f2f2f2" d="M 142.5,142.5 C 142.5,143.5 142.5,144.5 142.5,145.5C 141.167,145.5 139.833,145.5 138.5,145.5C 138.5,144.5 138.5,143.5 138.5,142.5C 139.833,142.5 141.167,142.5 142.5,142.5 Z"/></g>
<g><path style="opacity:1" fill="#252223" d="M 47.5,145.5 C 46.1522,144.473 45.6522,143.14 46,141.5C 47.1882,142.563 47.6882,143.897 47.5,145.5 Z"/></g>
<g><path style="opacity:1" fill="#2e2c2d" d="M 58.5,151.5 C 57.1155,152.801 55.6155,152.801 54,151.5C 52.083,145.66 53.9163,143.66 59.5,145.5C 61.0521,147.935 60.7188,149.935 58.5,151.5 Z"/></g>
<g><path style="opacity:1" fill="#0d0c0d" d="M 66.5,151.5 C 65.4583,152.791 64.2917,152.791 63,151.5C 62.3333,149.167 62.3333,146.833 63,144.5C 63.3333,146.5 63.6667,148.5 64,150.5C 64.6708,151.252 65.5041,151.586 66.5,151.5 Z"/></g>
<g><path style="opacity:1" fill="#121111" d="M 66.5,151.5 C 67.2096,149.254 67.7096,146.92 68,144.5C 68.6667,147.167 68.6667,149.833 68,152.5C 67.6174,151.944 67.1174,151.611 66.5,151.5 Z"/></g>
<g><path style="opacity:1" fill="#121212" d="M 167.5,144.5 C 169.5,144.5 171.5,144.5 173.5,144.5C 173.664,147.187 173.497,149.854 173,152.5C 172.503,150.19 172.337,147.857 172.5,145.5C 171.178,145.33 170.011,145.663 169,146.5C 168.667,148.5 168.333,150.5 168,152.5C 167.503,149.854 167.336,147.187 167.5,144.5 Z"/></g>
<g><path style="opacity:1" fill="#060506" d="M 248.5,144.5 C 249.289,144.783 249.956,145.283 250.5,146C 249.736,148.069 249.236,150.236 249,152.5C 248.503,149.854 248.336,147.187 248.5,144.5 Z"/></g>
<g><path style="opacity:1" fill="#ededed" d="M 58.5,151.5 C 54.65,151.299 53.65,149.466 55.5,146C 56.635,145.251 57.635,145.417 58.5,146.5C 59.5353,148.128 59.5353,149.795 58.5,151.5 Z"/></g>
<g><path style="opacity:1" fill="#615f60" d="M 94.5,144.5 C 96.0615,146.372 97.0615,148.705 97.5,151.5C 99.0245,149.517 100.024,147.184 100.5,144.5C 101.48,147.086 101.813,149.753 101.5,152.5C 95.0951,153.594 92.7618,150.927 94.5,144.5 Z"/></g>
<g><path style="opacity:1" fill="#323132" d="M 107.5,151.5 C 106.473,149.474 105.139,147.641 103.5,146C 104.631,143.181 106.298,142.847 108.5,145C 103.441,145.294 103.274,146.461 108,148.5C 108.74,149.749 108.573,150.749 107.5,151.5 Z"/></g>
<g><path style="opacity:1" fill="#111010" d="M 111.5,142.5 C 112.309,143.469 113.309,144.302 114.5,145C 111.833,147.333 111.833,149.667 114.5,152C 113.552,152.483 112.552,152.649 111.5,152.5C 111.163,148.989 111.163,145.656 111.5,142.5 Z"/></g>
<g><path style="opacity:1" fill="#bbbbbb" d="M 121.5,145.5 C 121.38,146.586 120.713,147.253 119.5,147.5C 118.287,147.253 117.62,146.586 117.5,145.5C 118.833,144.167 120.167,144.167 121.5,145.5 Z"/></g>
<g><path style="opacity:1" fill="#211d1e" d="M 147.5,144.5 C 148.165,146.698 148.832,149.031 149.5,151.5C 151.881,149.902 153.048,147.568 153,144.5C 153.667,147.167 153.667,149.833 153,152.5C 151.374,152.146 149.541,152.146 147.5,152.5C 147.5,149.833 147.5,147.167 147.5,144.5 Z"/></g>
<g><path style="opacity:1" fill="#b9b8b9" d="M 181.5,145.5 C 181.38,146.586 180.713,147.253 179.5,147.5C 178.287,147.253 177.62,146.586 177.5,145.5C 178.833,144.167 180.167,144.167 181.5,145.5 Z"/></g>
<g><path style="opacity:1" fill="#110f10" d="M 185.5,147.5 C 184.224,146.614 184.224,145.614 185.5,144.5C 186.087,145.233 186.087,146.233 185.5,147.5 Z"/></g>
<g><path style="opacity:1" fill="#373636" d="M 192.5,147.5 C 191.209,146.458 191.209,145.292 192.5,144C 194.074,143.301 195.407,143.635 196.5,145C 194.563,145.122 193.23,145.955 192.5,147.5 Z"/></g>
<g><path style="opacity:1" fill="#1e1d1d" d="M 214.5,151.5 C 215.914,149.402 215.248,148.402 212.5,148.5C 216.568,146.79 216.235,145.623 211.5,145C 213.134,144.506 214.801,144.34 216.5,144.5C 216.664,147.187 216.497,149.854 216,152.5C 215.617,151.944 215.117,151.611 214.5,151.5 Z"/></g>
<g><path style="opacity:1" fill="#131011" d="M 227.5,145.5 C 226.539,147.265 226.205,149.265 226.5,151.5C 225.784,149.444 225.117,147.277 224.5,145C 225.126,144.25 225.626,143.416 226,142.5C 226.5,143.667 227.333,144.5 228.5,145C 228.272,145.399 227.938,145.565 227.5,145.5 Z"/></g>
<g><path style="opacity:1" fill="#494646" d="M 71.5,144.5 C 73.0265,145.492 73.6932,146.992 73.5,149C 73.1667,150.167 72.8333,151.333 72.5,152.5C 71.52,149.914 71.1866,147.247 71.5,144.5 Z"/></g>
<g><path style="opacity:1" fill="#575455" d="M 142.5,141.5 C 144.805,143.045 145.138,145.045 143.5,147.5C 141.833,147.5 140.167,147.5 138.5,147.5C 138.5,146.833 138.5,146.167 138.5,145.5C 139.833,145.5 141.167,145.5 142.5,145.5C 142.5,144.5 142.5,143.5 142.5,142.5C 142.5,142.167 142.5,141.833 142.5,141.5 Z"/></g>
<g><path style="opacity:1" fill="#474546" d="M 156.5,144.5 C 161.041,144.331 161.374,144.998 157.5,146.5C 159.053,147.439 160.387,148.606 161.5,150C 160.591,152.319 158.925,152.986 156.5,152C 160.247,150.562 160.08,149.062 156,147.5C 155.53,146.423 155.697,145.423 156.5,144.5 Z"/></g>
<g><path style="opacity:1" fill="#010000" d="M 219.5,144.5 C 220.289,144.783 220.956,145.283 221.5,146C 220.736,148.069 220.236,150.236 220,152.5C 219.503,149.854 219.336,147.187 219.5,144.5 Z"/></g>
<g><path style="opacity:1" fill="#828181" d="M 227.5,145.5 C 227.083,148.079 227.75,150.246 229.5,152C 228.251,152.74 227.251,152.573 226.5,151.5C 226.205,149.265 226.539,147.265 227.5,145.5 Z"/></g>
<g><path style="opacity:1" fill="#292728" d="M 231.5,144.5 C 237.204,144.146 239.037,146.813 237,152.5C 236.667,150.5 236.333,148.5 236,146.5C 234.989,145.663 233.822,145.33 232.5,145.5C 232.663,147.857 232.497,150.19 232,152.5C 231.503,149.854 231.336,147.187 231.5,144.5 Z"/></g>
<g><path style="opacity:1" fill="#201f1f" d="M 47.5,145.5 C 48.1174,145.611 48.6174,145.944 49,146.5C 49.6667,145.167 50.3333,143.833 51,142.5C 51.6543,141.304 52.1543,141.304 52.5,142.5C 50.4807,145.538 49.314,148.871 49,152.5C 48.5604,150.134 48.0604,147.801 47.5,145.5 Z"/></g>
<g><path style="opacity:1" fill="#3b3839" d="M 89.5,144.5 C 93.554,144.21 94.054,144.877 91,146.5C 90.6667,148.5 90.3333,150.5 90,152.5C 89.5026,149.854 89.3359,147.187 89.5,144.5 Z"/></g>
<g><path style="opacity:1" fill="#ebebeb" d="M 138.5,147.5 C 140.167,147.5 141.833,147.5 143.5,147.5C 143.567,148.959 143.234,150.292 142.5,151.5C 141.167,151.5 139.833,151.5 138.5,151.5C 138.5,150.167 138.5,148.833 138.5,147.5 Z"/></g>
<g><path style="opacity:1" fill="#211f1f" d="M 240.5,146.5 C 240.791,145.351 241.624,144.684 243,144.5C 245.756,144.424 246.923,145.757 246.5,148.5C 240.304,148.574 239.97,149.741 245.5,152C 240.672,152.683 239.006,150.85 240.5,146.5 Z"/></g>
<g><path style="opacity:1" fill="#ecebeb" d="M 240.5,146.5 C 242.31,145.045 243.977,145.212 245.5,147C 243.613,147.78 241.946,147.613 240.5,146.5 Z"/></g>
<g><path style="opacity:1" fill="#262525" d="M 185.5,147.5 C 189.035,147.337 190.035,148.67 188.5,151.5C 188.229,149.57 187.229,148.236 185.5,147.5 Z"/></g>
<g><path style="opacity:1" fill="#262425" d="M 192.5,147.5 C 196.035,147.337 197.035,148.67 195.5,151.5C 195.229,149.57 194.229,148.236 192.5,147.5 Z"/></g>
<g><path style="opacity:1" fill="#ededed" d="M 212.5,148.5 C 215.248,148.402 215.914,149.402 214.5,151.5C 211.993,151.368 211.326,150.368 212.5,148.5 Z"/></g>
<g><path style="opacity:1" fill="#1b1819" d="M 143.5,147.5 C 144.124,147.917 144.457,148.584 144.5,149.5C 144.253,150.713 143.586,151.38 142.5,151.5C 143.234,150.292 143.567,148.959 143.5,147.5 Z"/></g>
<g><path style="opacity:1" fill="#1f1d1d" d="M 212.5,148.5 C 211.326,150.368 211.993,151.368 214.5,151.5C 212.623,152.928 211.289,152.428 210.5,150C 210.836,148.97 211.503,148.47 212.5,148.5 Z"/></g>
<g><path style="opacity:1" fill="#201f20" d="M 107.5,151.5 C 106.292,152.782 104.958,152.782 103.5,151.5C 104.557,151.094 105.891,151.094 107.5,151.5 Z"/></g>
<g><path style="opacity:1" fill="#2f2d2d" d="M 117.5,145.5 C 117.62,146.586 118.287,147.253 119.5,147.5C 120.713,147.253 121.38,146.586 121.5,145.5C 122.404,146.209 122.737,147.209 122.5,148.5C 116.304,148.574 115.97,149.741 121.5,152C 118.143,153.141 116.143,151.975 115.5,148.5C 115.453,146.962 116.12,145.962 117.5,145.5 Z"/></g>
<g><path style="opacity:1" fill="#312f30" d="M 177.5,145.5 C 177.62,146.586 178.287,147.253 179.5,147.5C 180.713,147.253 181.38,146.586 181.5,145.5C 182.404,146.209 182.737,147.209 182.5,148.5C 176.304,148.574 175.97,149.741 181.5,152C 178.143,153.141 176.143,151.975 175.5,148.5C 175.453,146.962 176.12,145.962 177.5,145.5 Z"/></g>
<g><path style="opacity:1" fill="#1e1e1e" d="M 188.5,151.5 C 187.292,152.782 185.958,152.782 184.5,151.5C 185.557,151.094 186.891,151.094 188.5,151.5 Z"/></g>
<g><path style="opacity:1" fill="#1e1e1e" d="M 195.5,151.5 C 194.292,152.782 192.958,152.782 191.5,151.5C 192.557,151.094 193.891,151.094 195.5,151.5 Z"/></g>
</svg>
