<?xml version="1.0" standalone="no"?>
<!DOCTYPE svg PUBLIC "-//W3C//DTD SVG 20010904//EN"
 "http://www.w3.org/TR/2001/REC-SVG-20010904/DTD/svg10.dtd">
<svg version="1.0" xmlns="http://www.w3.org/2000/svg"
 width="225.000000pt" height="225.000000pt" viewBox="0 0 225.000000 225.000000"
 preserveAspectRatio="xMidYMid meet">

<g transform="translate(0.000000,225.000000) scale(0.100000,-0.100000)"
fill="#000000" stroke="none">
<path d="M105 2226 c-35 -15 -83 -67 -90 -99 -3 -12 -4 -471 -3 -1019 3 -989
3 -997 24 -1024 11 -15 33 -37 48 -48 27 -21 33 -21 1041 -21 1008 0 1014 0
1041 21 15 11 37 33 48 48 21 27 21 33 21 1041 0 1008 0 1014 -21 1041 -11 15
-33 37 -48 48 -27 21 -35 21 -1029 23 -818 2 -1008 0 -1032 -11z m505 -320
c72 -47 106 -142 80 -220 -44 -133 -215 -181 -313 -88 -109 103 -77 277 60
328 52 19 127 11 173 -20z m1092 -503 c60 -27 128 -90 155 -145 51 -102 55
-138 60 -540 l5 -378 -170 0 -171 0 -3 333 c-3 320 -4 334 -25 377 -63 128
-260 114 -319 -22 -16 -38 -19 -80 -22 -365 l-3 -323 -170 0 -169 0 2 533 3
532 163 3 162 2 0 -70 0 -70 41 45 c85 92 150 116 304 112 85 -3 121 -8 157
-24z m-1032 -528 l0 -535 -165 0 -165 0 0 535 0 535 165 0 165 0 0 -535z"/>
</g>
</svg>
