<?xml version="1.0" encoding="UTF-8"?>
<!DOCTYPE svg PUBLIC "-//W3C//DTD SVG 1.1//EN" "http://www.w3.org/Graphics/SVG/1.1/DTD/svg11.dtd">
<svg xmlns="http://www.w3.org/2000/svg" version="1.1" width="600px" height="72px" style="shape-rendering:geometricPrecision; text-rendering:geometricPrecision; image-rendering:optimizeQuality; fill-rule:evenodd; clip-rule:evenodd" xmlns:xlink="http://www.w3.org/1999/xlink">
<g><path style="opacity:1" fill="#fafafa" d="M -0.5,-0.5 C 199.5,-0.5 399.5,-0.5 599.5,-0.5C 599.5,23.5 599.5,47.5 599.5,71.5C 399.5,71.5 199.5,71.5 -0.5,71.5C -0.5,47.5 -0.5,23.5 -0.5,-0.5 Z"/></g>
<g><path style="opacity:1" fill="#131313" d="M 110.5,10.5 C 112.337,10.6395 112.67,11.3061 111.5,12.5C 110.702,12.0431 110.369,11.3764 110.5,10.5 Z"/></g>
<g><path style="opacity:1" fill="#161616" d="M 131.5,10.5 C 133.337,10.6395 133.67,11.3061 132.5,12.5C 131.702,12.0431 131.369,11.3764 131.5,10.5 Z"/></g>
<g><path style="opacity:1" fill="#000000" d="M 217.5,10.5 C 216.081,11.4511 214.415,11.7845 212.5,11.5C 211.674,16.3165 211.174,21.3165 211,26.5C 210.501,21.5111 210.334,16.5111 210.5,11.5C 208.801,11.6602 207.134,11.4935 205.5,11C 209.486,10.5012 213.486,10.3345 217.5,10.5 Z"/></g>
<g><path style="opacity:1" fill="#85271a" d="M 28.5,20.5 C 28.1667,20.5 27.8333,20.5 27.5,20.5C 27.2503,18.326 26.2503,16.6594 24.5,15.5C 21.2518,11.6703 19.0851,7.33694 18,2.5C 23.0774,7.70595 26.5774,13.706 28.5,20.5 Z"/></g>
<g><path style="opacity:1" fill="#8c2a1f" d="M 50.5,16.5 C 49.6554,17.6715 48.9887,19.0048 48.5,20.5C 47.8333,20.8333 47.1667,21.1667 46.5,21.5C 48.665,13.7076 52.665,7.70757 58.5,3.5C 56.5601,8.3997 53.8934,12.733 50.5,16.5 Z"/></g>
<g><path style="opacity:1" fill="#363636" d="M 318.5,10.5 C 319.814,12.9151 320.481,15.7485 320.5,19C 320.167,21.8333 319.833,24.6667 319.5,27.5C 318.505,21.8722 318.171,16.2055 318.5,10.5 Z"/></g>
<g><path style="opacity:1" fill="#10100f" d="M 46.5,21.5 C 46.5,22.1667 46.5,22.8333 46.5,23.5C 40.8333,24.8333 35.1667,24.8333 29.5,23.5C 28.8902,22.609 28.5569,21.609 28.5,20.5C 29.1174,20.6107 29.6174,20.944 30,21.5C 32.3661,18.1396 35.0327,15.1396 38,12.5C 41.2899,15.0895 44.1233,18.0895 46.5,21.5 Z"/></g>
<g><path style="opacity:1" fill="#050505" d="M 147.5,11.5 C 147.833,11.5 148.167,11.5 148.5,11.5C 148.182,16.0323 148.515,20.3656 149.5,24.5C 149.918,25.2216 150.584,25.7216 151.5,26C 150.207,26.49 148.873,26.6567 147.5,26.5C 147.813,22.9581 147.479,19.6248 146.5,16.5C 147.301,14.9582 147.634,13.2915 147.5,11.5 Z"/></g>
<g><path style="opacity:1" fill="#191919" d="M 197.5,9.5 C 202.539,9.45107 202.705,10.1177 198,11.5C 197.517,12.448 197.351,13.448 197.5,14.5C 201.5,15.1667 201.5,15.8333 197.5,16.5C 197.82,19.8984 197.487,23.2317 196.5,26.5C 195.998,22.634 194.998,18.9674 193.5,15.5C 195.019,13.5763 196.353,11.5763 197.5,9.5 Z"/></g>
<g><path style="opacity:1" fill="#131313" d="M 301.5,11.5 C 301.182,16.0323 301.515,20.3656 302.5,24.5C 302.918,25.2216 303.584,25.7216 304.5,26C 303.207,26.49 301.873,26.6567 300.5,26.5C 300.5,23.1667 300.5,19.8333 300.5,16.5C 297.956,16.1043 295.789,16.771 294,18.5C 293.503,21.146 293.336,23.8127 293.5,26.5C 292.213,25.1286 291.547,23.2953 291.5,21C 291.667,19.1667 291.833,17.3333 292,15.5C 292.705,17.9856 293.538,17.9856 294.5,15.5C 296.379,14.6586 298.379,14.3253 300.5,14.5C 300.263,13.209 300.596,12.209 301.5,11.5 Z"/></g>
<g><path style="opacity:1" fill="#262626" d="M 341.5,9.5 C 346.539,9.45107 346.705,10.1177 342,11.5C 341.517,12.448 341.351,13.448 341.5,14.5C 345.5,15.1667 345.5,15.8333 341.5,16.5C 341.823,20.226 341.489,23.8927 340.5,27.5C 340.014,23.303 339.014,19.303 337.5,15.5C 338.857,13.4346 340.19,11.4346 341.5,9.5 Z"/></g>
<g><path style="opacity:1" fill="#282828" d="M 377.5,11.5 C 379.048,11.8212 379.715,12.8212 379.5,14.5C 383.5,15.1667 383.5,15.8333 379.5,16.5C 379.5,19.5 379.5,22.5 379.5,25.5C 380.552,25.3505 381.552,25.5172 382.5,26C 380.866,26.4935 379.199,26.6602 377.5,26.5C 377.979,22.5656 377.312,18.8989 375.5,15.5C 376.853,14.4763 377.52,13.143 377.5,11.5 Z"/></g>
<g><path style="opacity:1" fill="#232323" d="M 419.5,11.5 C 421.048,11.8212 421.715,12.8212 421.5,14.5C 425.5,15.1667 425.5,15.8333 421.5,16.5C 421.5,19.5 421.5,22.5 421.5,25.5C 422.552,25.3505 423.552,25.5172 424.5,26C 422.866,26.4935 421.199,26.6602 419.5,26.5C 419.979,22.5656 419.312,18.8989 417.5,15.5C 418.853,14.4763 419.52,13.143 419.5,11.5 Z"/></g>
<g><path style="opacity:1" fill="#919191" d="M 217.5,10.5 C 213.486,10.3345 209.486,10.5012 205.5,11C 207.134,11.4935 208.801,11.6602 210.5,11.5C 210.334,16.5111 210.501,21.5111 211,26.5C 211.174,21.3165 211.674,16.3165 212.5,11.5C 212.5,16.8333 212.5,22.1667 212.5,27.5C 211.5,27.5 210.5,27.5 209.5,27.5C 209.5,22.5 209.5,17.5 209.5,12.5C 207.833,12.5 206.167,12.5 204.5,12.5C 204.5,11.5 204.5,10.5 204.5,9.5C 209.032,9.18178 213.366,9.51511 217.5,10.5 Z"/></g>
<g><path style="opacity:1" fill="#616161" d="M 110.5,14.5 C 111.5,14.5 112.5,14.5 113.5,14.5C 113.5,18.8333 113.5,23.1667 113.5,27.5C 112.5,27.5 111.5,27.5 110.5,27.5C 110.5,23.1667 110.5,18.8333 110.5,14.5 Z"/></g>
<g><path style="opacity:1" fill="#acacac" d="M 120.5,15.5 C 120.5,15.8333 120.5,16.1667 120.5,16.5C 119.504,16.5858 118.671,16.2524 118,15.5C 117.833,17.3333 117.667,19.1667 117.5,21C 117.547,23.2953 118.213,25.1286 119.5,26.5C 118.791,27.404 117.791,27.7373 116.5,27.5C 116.5,23.1667 116.5,18.8333 116.5,14.5C 117.959,14.4326 119.292,14.7659 120.5,15.5 Z"/></g>
<g><path style="opacity:1" fill="#030303" d="M 120.5,16.5 C 119.586,19.728 119.253,23.0613 119.5,26.5C 118.213,25.1286 117.547,23.2953 117.5,21C 117.667,19.1667 117.833,17.3333 118,15.5C 118.671,16.2524 119.504,16.5858 120.5,16.5 Z"/></g>
<g><path style="opacity:1" fill="#262626" d="M 120.5,16.5 C 120.5,16.1667 120.5,15.8333 120.5,15.5C 125.929,14.2584 128.263,16.5917 127.5,22.5C 127.167,24.1667 126.833,25.8333 126.5,27.5C 125.76,24.1637 125.094,20.8304 124.5,17.5C 123.311,16.5713 121.978,16.238 120.5,16.5 Z"/></g>
<g><path style="opacity:1" fill="#080808" d="M 131.5,14.5 C 132.794,16.0478 133.461,18.0478 133.5,20.5C 133.167,22.5 132.833,24.5 132.5,26.5C 131.509,22.5546 131.176,18.5546 131.5,14.5 Z"/></g>
<g><path style="opacity:1" fill="#292929" d="M 138.5,14.5 C 144.966,15.623 144.966,16.2896 138.5,16.5C 140.147,18.9974 141.813,21.4974 143.5,24C 142.175,27.3741 139.842,28.2074 136.5,26.5C 138.045,25.5481 139.712,25.2148 141.5,25.5C 141.649,24.448 141.483,23.448 141,22.5C 136.377,20.8084 135.544,18.1418 138.5,14.5 Z"/></g>
<g><path style="opacity:1" fill="#5e5e5e" d="M 147.5,11.5 C 147.634,13.2915 147.301,14.9582 146.5,16.5C 145.624,16.6309 144.957,16.2975 144.5,15.5C 145.694,14.2008 146.694,12.8675 147.5,11.5 Z"/></g>
<g><path style="opacity:1" fill="#1b1b1b" d="M 155.5,14.5 C 157.179,14.8923 158.846,15.3923 160.5,16C 159.975,16.6924 159.308,17.1924 158.5,17.5C 157.833,20.5 157.167,23.5 156.5,26.5C 155.509,22.5546 155.176,18.5546 155.5,14.5 Z"/></g>
<g><path style="opacity:1" fill="#0d0d0d" d="M 222.5,14.5 C 223.376,14.3691 224.043,14.7025 224.5,15.5C 223.24,16.3816 222.074,17.3816 221,18.5C 220.818,21.2263 220.318,23.8929 219.5,26.5C 218.341,22.878 218.175,19.2113 219,15.5C 220.217,17.6124 221.383,17.2791 222.5,14.5 Z"/></g>
<g><path style="opacity:1" fill="#242424" d="M 232.5,25.5 C 230.46,28.1339 228.293,28.1339 226,25.5C 225.37,23.0966 226.203,21.2633 228.5,20C 230.256,19.7978 231.922,19.2978 233.5,18.5C 233.291,17.914 232.957,17.414 232.5,17C 230.5,16.6667 228.5,16.3333 226.5,16C 229.757,13.7838 232.59,14.2838 235,17.5C 235.824,20.8823 235.657,24.2156 234.5,27.5C 233.818,26.7573 233.151,26.0906 232.5,25.5 Z"/></g>
<g><path style="opacity:1" fill="#b1b1b1" d="M 266.5,15.5 C 266.5,15.8333 266.5,16.1667 266.5,16.5C 265.504,16.5858 264.671,16.2524 264,15.5C 263.833,18.1667 263.667,20.8333 263.5,23.5C 263.522,26.5902 264.188,29.2568 265.5,31.5C 264.791,32.404 263.791,32.7373 262.5,32.5C 262.5,26.5 262.5,20.5 262.5,14.5C 263.959,14.4326 265.292,14.7659 266.5,15.5 Z"/></g>
<g><path style="opacity:1" fill="#000000" d="M 266.5,16.5 C 265.167,19.5 265.167,22.5 266.5,25.5C 265.539,27.2646 265.205,29.2646 265.5,31.5C 264.188,29.2568 263.522,26.5902 263.5,23.5C 263.667,20.8333 263.833,18.1667 264,15.5C 264.671,16.2524 265.504,16.5858 266.5,16.5 Z"/></g>
<g><path style="opacity:1" fill="#adadad" d="M 294.5,15.5 C 293.538,17.9856 292.705,17.9856 292,15.5C 291.833,17.3333 291.667,19.1667 291.5,21C 291.547,23.2953 292.213,25.1286 293.5,26.5C 292.791,27.404 291.791,27.7373 290.5,27.5C 290.5,23.1667 290.5,18.8333 290.5,14.5C 291.959,14.4326 293.292,14.7659 294.5,15.5 Z"/></g>
<g><path style="opacity:1" fill="#808080" d="M 328.5,15.5 C 328.5,15.8333 328.5,16.1667 328.5,16.5C 327.504,16.5858 326.671,16.2524 326,15.5C 325.333,19.1667 325.333,22.8333 326,26.5C 326.183,23.6353 326.683,20.9686 327.5,18.5C 327.5,21.5 327.5,24.5 327.5,27.5C 326.5,27.5 325.5,27.5 324.5,27.5C 324.5,23.1667 324.5,18.8333 324.5,14.5C 325.959,14.4326 327.292,14.7659 328.5,15.5 Z"/></g>
<g><path style="opacity:1" fill="#040404" d="M 328.5,16.5 C 328.167,17.1667 327.833,17.8333 327.5,18.5C 326.683,20.9686 326.183,23.6353 326,26.5C 325.333,22.8333 325.333,19.1667 326,15.5C 326.671,16.2524 327.504,16.5858 328.5,16.5 Z"/></g>
<g><path style="opacity:1" fill="#141414" d="M 385.5,14.5 C 386.75,14.5774 387.583,15.244 388,16.5C 388.965,14.7397 390.132,14.4063 391.5,15.5C 390.24,16.3816 389.074,17.3816 388,18.5C 387.818,21.2263 387.318,23.8929 386.5,26.5C 385.509,22.5546 385.176,18.5546 385.5,14.5 Z"/></g>
<g><path style="opacity:1" fill="#171717" d="M 396.5,23.5 C 397.183,25.1765 398.517,25.8432 400.5,25.5C 400.5,25.8333 400.5,26.1667 400.5,26.5C 397.803,28.0454 395.803,27.3787 394.5,24.5C 394.335,21.4816 394.502,18.4816 395,15.5C 395.183,18.3647 395.683,21.0314 396.5,23.5 Z"/></g>
<g><path style="opacity:1" fill="#171717" d="M 427.5,14.5 C 429.25,17.3554 430.083,20.6887 430,24.5C 431.938,25.8602 433.604,25.5268 435,23.5C 435.179,20.4465 435.679,17.4465 436.5,14.5C 437.833,18.8333 437.833,23.1667 436.5,27.5C 435.808,26.9747 435.308,26.3081 435,25.5C 432.861,26.7691 430.695,26.7691 428.5,25.5C 427.574,21.9062 427.241,18.2396 427.5,14.5 Z"/></g>
<g><path style="opacity:1" fill="#ac7216" d="M 60.5,13.5 C 63.1613,15.9092 62.9947,18.2425 60,20.5C 59.5831,19.244 58.7498,18.5774 57.5,18.5C 56.9033,18.2648 56.5699,17.7648 56.5,17C 57.6449,15.5979 58.9783,14.4312 60.5,13.5 Z"/></g>
<g><path style="opacity:1" fill="#1e1e1e" d="M 163.5,15.5 C 164.376,15.3691 165.043,15.7025 165.5,16.5C 167.532,24.4649 169.532,24.4649 171.5,16.5C 172.167,15.1667 172.833,15.1667 173.5,16.5C 171.667,20.8333 169.833,25.1667 168,29.5C 166.867,31.2112 165.367,31.7112 163.5,31C 165.227,29.6106 166.561,27.9439 167.5,26C 165.941,22.6048 164.607,19.1048 163.5,15.5 Z"/></g>
<g><path style="opacity:1" fill="#515151" d="M 240.5,16.5 C 239.167,19.8333 239.167,23.1667 240.5,26.5C 240.44,27.0431 240.107,27.3764 239.5,27.5C 238.167,23.1667 238.167,18.8333 239.5,14.5C 240.298,14.9569 240.631,15.6236 240.5,16.5 Z"/></g>
<g><path style="opacity:1" fill="#101010" d="M 240.5,26.5 C 239.167,23.1667 239.167,19.8333 240.5,16.5C 246.092,13.0649 248.759,14.7316 248.5,21.5C 248.167,23.1667 247.833,24.8333 247.5,26.5C 246.679,23.5535 246.179,20.5535 246,17.5C 244.062,16.1398 242.396,16.4732 241,18.5C 240.503,21.146 240.336,23.8127 240.5,26.5 Z"/></g>
<g><path style="opacity:1" fill="#797979" d="M 396.5,23.5 C 395.683,21.0314 395.183,18.3647 395,15.5C 394.502,18.4816 394.335,21.4816 394.5,24.5C 393.521,21.3752 393.187,18.0419 393.5,14.5C 394.5,14.5 395.5,14.5 396.5,14.5C 396.5,17.5 396.5,20.5 396.5,23.5 Z"/></g>
<g><path style="opacity:1" fill="#202020" d="M 403.5,14.5 C 403.666,18.5138 403.499,22.5138 403,26.5C 402.329,25.7476 401.496,25.4142 400.5,25.5C 400.775,21.4362 401.775,17.7695 403.5,14.5 Z"/></g>
<g><path style="opacity:1" fill="#a6a6a6" d="M 403.5,14.5 C 404.485,18.6344 404.818,22.9677 404.5,27.5C 403.041,27.5674 401.708,27.2341 400.5,26.5C 400.5,26.1667 400.5,25.8333 400.5,25.5C 401.496,25.4142 402.329,25.7476 403,26.5C 403.499,22.5138 403.666,18.5138 403.5,14.5 Z"/></g>
<g><path style="opacity:1" fill="#272727" d="M 409.5,14.5 C 417.32,15.4837 417.32,16.3171 409.5,17C 406.716,23.3113 408.716,26.3113 415.5,26C 412.243,28.2162 409.41,27.7162 407,24.5C 405.861,20.5789 406.695,17.2456 409.5,14.5 Z"/></g>
<g><path style="opacity:1" fill="#bd7e11" d="M 15.5,14.5 C 18.6343,14.7066 19.6343,16.0399 18.5,18.5C 17.596,19.209 17.2627,20.209 17.5,21.5C 17.1667,21.5 16.8333,21.5 16.5,21.5C 16.1667,21.5 15.8333,21.5 15.5,21.5C 15.0805,19.9064 14.4138,18.4064 13.5,17C 13.6387,15.699 14.3054,14.8656 15.5,14.5 Z"/></g>
<g><path style="opacity:1" fill="#352e2c" d="M 66.5,14.5 C 67.8641,16.22 68.8641,18.22 69.5,20.5C 69.0431,21.2975 68.3764,21.6309 67.5,21.5C 66.7814,19.2362 66.448,16.9029 66.5,14.5 Z"/></g>
<g><path style="opacity:1" fill="#606060" d="M 148.5,11.5 C 149.404,12.209 149.737,13.209 149.5,14.5C 153.5,15.1667 153.5,15.8333 149.5,16.5C 149.5,19.1667 149.5,21.8333 149.5,24.5C 148.515,20.3656 148.182,16.0323 148.5,11.5 Z"/></g>
<g><path style="opacity:1" fill="#202020" d="M 184.5,14.5 C 191.783,15.0609 193.95,18.7276 191,25.5C 185.484,28.827 181.984,27.327 180.5,21C 181.207,18.4131 182.541,16.2464 184.5,14.5 Z"/></g>
<g><path style="opacity:1" fill="#e9e9e9" d="M 184.5,16.5 C 190.643,17.0262 191.976,19.8595 188.5,25C 183.504,25.6643 181.67,23.4977 183,18.5C 183.717,17.9558 184.217,17.2891 184.5,16.5 Z"/></g>
<g><path style="opacity:1" fill="#ececec" d="M 266.5,16.5 C 268.199,16.3398 269.866,16.5065 271.5,17C 273.93,22.384 272.263,25.2173 266.5,25.5C 265.167,22.5 265.167,19.5 266.5,16.5 Z"/></g>
<g><path style="opacity:1" fill="#161616" d="M 266.5,25.5 C 272.263,25.2173 273.93,22.384 271.5,17C 269.866,16.5065 268.199,16.3398 266.5,16.5C 266.5,16.1667 266.5,15.8333 266.5,15.5C 274.614,14.9326 276.614,18.4326 272.5,26C 270.288,26.7891 268.288,26.6225 266.5,25.5 Z"/></g>
<g><path style="opacity:1" fill="#666666" d="M 301.5,11.5 C 302.404,12.209 302.737,13.209 302.5,14.5C 306.5,15.1667 306.5,15.8333 302.5,16.5C 302.5,19.1667 302.5,21.8333 302.5,24.5C 301.515,20.3656 301.182,16.0323 301.5,11.5 Z"/></g>
<g><path style="opacity:1" fill="#131313" d="M 334.5,17.5 C 334.665,20.5184 334.498,23.5184 334,26.5C 333.817,23.6353 333.317,20.9686 332.5,18.5C 331.713,16.8958 330.38,16.2291 328.5,16.5C 328.5,16.1667 328.5,15.8333 328.5,15.5C 331.08,13.9844 333.08,14.6511 334.5,17.5 Z"/></g>
<g><path style="opacity:1" fill="#080808" d="M 348.5,15.5 C 349.552,15.7711 350.885,15.9378 352.5,16C 351.058,16.3768 350.058,17.2101 349.5,18.5C 348.683,20.9686 348.183,23.6353 348,26.5C 347.19,22.6425 347.357,18.9758 348.5,15.5 Z"/></g>
<g><path style="opacity:1" fill="#151515" d="M 441.5,14.5 C 442.75,14.5774 443.583,15.244 444,16.5C 445.049,15.4829 446.216,15.3162 447.5,16C 446.069,16.4652 444.903,17.2986 444,18.5C 443.818,21.2263 443.318,23.8929 442.5,26.5C 441.509,22.5546 441.176,18.5546 441.5,14.5 Z"/></g>
<g><path style="opacity:1" fill="#151515" d="M 451.5,14.5 C 456.833,13.8333 459.167,16.1667 458.5,21.5C 455.428,21.1826 452.428,21.5159 449.5,22.5C 449.977,23.4776 450.643,24.3109 451.5,25C 453.833,25.3333 456.167,25.6667 458.5,26C 448.065,27.2011 445.732,23.3678 451.5,14.5 Z"/></g>
<g><path style="opacity:1" fill="#d9d9d9" d="M 451.5,16.5 C 454.278,16.0217 456.278,17.0217 457.5,19.5C 454.833,20.8333 452.167,20.8333 449.5,19.5C 450.193,18.4822 450.859,17.4822 451.5,16.5 Z"/></g>
<g><path style="opacity:1" fill="#4b310c" d="M 15.5,14.5 C 14.3054,14.8656 13.6387,15.699 13.5,17C 14.4138,18.4064 15.0805,19.9064 15.5,21.5C 13.2078,20.3139 10.8744,20.3139 8.5,21.5C 7.22218,15.9203 9.55551,12.5869 15.5,11.5C 15.5,12.5 15.5,13.5 15.5,14.5 Z"/></g>
<g><path style="opacity:1" fill="#362a2d" d="M 18.5,18.5 C 20.129,20.1959 19.7957,21.1959 17.5,21.5C 17.2627,20.209 17.596,19.209 18.5,18.5 Z"/></g>
<g><path style="opacity:1" fill="#1c1c1c" d="M 279.5,14.5 C 287.571,15.0929 289.571,18.9262 285.5,26C 278,27.8333 275.167,25 277,17.5C 278.045,16.6266 278.878,15.6266 279.5,14.5 Z"/></g>
<g><path style="opacity:1" fill="#ececec" d="M 279.5,16.5 C 281.467,16.2606 283.301,16.5939 285,17.5C 285.769,20.0991 285.602,22.5991 284.5,25C 282.741,25.7975 281.074,25.6309 279.5,24.5C 278.176,21.8023 278.176,19.1357 279.5,16.5 Z"/></g>
<g><path style="opacity:1" fill="#848484" d="M 334.5,17.5 C 335.479,20.6248 335.813,23.9581 335.5,27.5C 334.5,27.5 333.5,27.5 332.5,27.5C 332.5,24.5 332.5,21.5 332.5,18.5C 333.317,20.9686 333.817,23.6353 334,26.5C 334.498,23.5184 334.665,20.5184 334.5,17.5 Z"/></g>
<g><path style="opacity:1" fill="#8b8b8b" d="M 348.5,15.5 C 347.357,18.9758 347.19,22.6425 348,26.5C 348.183,23.6353 348.683,20.9686 349.5,18.5C 349.5,21.5 349.5,24.5 349.5,27.5C 348.5,27.5 347.5,27.5 346.5,27.5C 346.174,23.1161 346.508,18.7828 347.5,14.5C 348.107,14.6236 348.44,14.9569 348.5,15.5 Z"/></g>
<g><path style="opacity:1" fill="#bb7d19" d="M 24.5,15.5 C 26.2503,16.6594 27.2503,18.326 27.5,20.5C 26.3882,22.5994 25.7215,24.9327 25.5,27.5C 23.8212,27.7148 22.8212,27.0481 22.5,25.5C 24.017,22.4127 24.6837,19.0794 24.5,15.5 Z"/></g>
<g><path style="opacity:1" fill="#c1811a" d="M 50.5,16.5 C 52.2766,19.5046 53.2766,22.8379 53.5,26.5C 52.791,27.404 51.791,27.7373 50.5,27.5C 50.2785,24.9327 49.6118,22.5994 48.5,20.5C 48.9887,19.0048 49.6554,17.6715 50.5,16.5 Z"/></g>
<g><path style="opacity:1" fill="#292929" d="M 103.5,9.5 C 104.5,9.5 105.5,9.5 106.5,9.5C 106.934,15.5563 106.934,21.5563 106.5,27.5C 105.914,27.2907 105.414,26.9574 105,26.5C 104.667,22.1667 104.333,17.8333 104,13.5C 102.462,17.9444 100.629,22.2778 98.5,26.5C 95.8476,22.1891 94.0143,17.5224 93,12.5C 92.8283,17.2018 92.3283,21.8685 91.5,26.5C 90.5052,21.2079 90.1718,15.8746 90.5,10.5C 91.8333,10.5 93.1667,10.5 94.5,10.5C 95.5366,14.9724 97.0366,19.3057 99,23.5C 100.504,18.8096 102.004,14.143 103.5,9.5 Z"/></g>
<g><path style="opacity:1" fill="#dbdbdb" d="M 232.5,25.5 C 230.335,25.8841 228.668,25.2174 227.5,23.5C 228.939,21.4469 230.939,20.4469 233.5,20.5C 233.634,22.2915 233.301,23.9582 232.5,25.5 Z"/></g>
<g><path style="opacity:1" fill="#2b2b2b" d="M 368.5,14.5 C 370.288,14.2148 371.955,14.5481 373.5,15.5C 371.49,16.0653 369.824,17.0653 368.5,18.5C 371.171,19.6578 373.171,21.4911 374.5,24C 372.522,27.4944 369.856,28.1611 366.5,26C 368.941,25.964 370.941,25.1307 372.5,23.5C 370.578,22.289 368.745,20.9557 367,19.5C 366.387,17.5048 366.887,15.8381 368.5,14.5 Z"/></g>
<g><path style="opacity:1" fill="#91600c" d="M 15.5,21.5 C 15.5,22.5 15.5,23.5 15.5,24.5C 14.2101,23.9423 13.3768,22.9423 13,21.5C 11.3831,22.5358 11.2164,23.7025 12.5,25C 11.4335,27.012 10.1002,27.512 8.5,26.5C 7.28006,24.9504 7.28006,23.2837 8.5,21.5C 10.8744,20.3139 13.2078,20.3139 15.5,21.5 Z"/></g>
<g><path style="opacity:1" fill="#684510" d="M 66.5,14.5 C 66.448,16.9029 66.7814,19.2362 67.5,21.5C 68.8425,25.4941 67.8425,28.8274 64.5,31.5C 64.4216,30.3449 64.0883,29.0116 63.5,27.5C 62.1667,26.5 60.8333,25.5 59.5,24.5C 58.4728,25.7914 57.4728,25.7914 56.5,24.5C 57.6002,23.4415 58.9336,22.6082 60.5,22C 59.062,21.7811 57.7287,21.2811 56.5,20.5C 56.8627,19.8165 57.1961,19.1499 57.5,18.5C 58.7498,18.5774 59.5831,19.244 60,20.5C 62.9947,18.2425 63.1613,15.9092 60.5,13.5C 62.6834,12.1566 64.6834,12.49 66.5,14.5 Z"/></g>
<g><path style="opacity:1" fill="#b7aeac" d="M 27.5,20.5 C 27.8333,20.5 28.1667,20.5 28.5,20.5C 28.5569,21.609 28.8902,22.609 29.5,23.5C 28.6618,23.8417 28.3284,24.5084 28.5,25.5C 28.5,25.8333 28.5,26.1667 28.5,26.5C 28.5,26.8333 28.5,27.1667 28.5,27.5C 27.596,28.209 27.2627,29.209 27.5,30.5C 26.8333,30.1667 26.1667,29.8333 25.5,29.5C 25.5,28.8333 25.5,28.1667 25.5,27.5C 25.7215,24.9327 26.3882,22.5994 27.5,20.5 Z"/></g>
<g><path style="opacity:1" fill="#6b6b6b" d="M 29.5,23.5 C 35.1667,24.8333 40.8333,24.8333 46.5,23.5C 47.0431,23.56 47.3764,23.8933 47.5,24.5C 41.2015,25.4963 34.8682,25.8297 28.5,25.5C 28.3284,24.5084 28.6618,23.8417 29.5,23.5 Z"/></g>
<g><path style="opacity:1" fill="#2d2d2d" d="M 307.5,23.5 C 308.675,23.281 309.675,23.6143 310.5,24.5C 306.936,31.2168 305.936,30.8834 307.5,23.5 Z"/></g>
<g><path style="opacity:1" fill="#2e2e2e" d="M 355.5,14.5 C 358.044,14.1043 360.211,14.771 362,16.5C 362.498,19.8168 362.665,23.1501 362.5,26.5C 360.801,26.6204 359.135,26.9537 357.5,27.5C 353.826,26.7824 352.826,24.7824 354.5,21.5C 356.173,19.9137 358.173,19.2471 360.5,19.5C 360.5,18.5 360.5,17.5 360.5,16.5C 358.473,16.6621 356.473,16.4955 354.5,16C 355.056,15.6174 355.389,15.1174 355.5,14.5 Z"/></g>
<g><path style="opacity:1" fill="#efefef" d="M 356.5,21.5 C 357.833,21.5 359.167,21.5 360.5,21.5C 360.616,24.9103 358.95,26.2436 355.5,25.5C 355.433,24.0413 355.766,22.7079 356.5,21.5 Z"/></g>
<g><path style="opacity:1" fill="#d5d1cf" d="M 48.5,20.5 C 49.6118,22.5994 50.2785,24.9327 50.5,27.5C 50.5,28.1667 50.5,28.8333 50.5,29.5C 49.2223,29.2178 48.2223,28.5511 47.5,27.5C 41.3554,26.5098 35.0221,26.1765 28.5,26.5C 28.5,26.1667 28.5,25.8333 28.5,25.5C 34.8682,25.8297 41.2015,25.4963 47.5,24.5C 47.3764,23.8933 47.0431,23.56 46.5,23.5C 46.5,22.8333 46.5,22.1667 46.5,21.5C 47.1667,21.1667 47.8333,20.8333 48.5,20.5 Z"/></g>
<g><path style="opacity:1" fill="#272727" d="M 254.5,14.5 C 260.966,15.623 260.966,16.2896 254.5,16.5C 255.861,19.025 257.527,21.3584 259.5,23.5C 258.298,27.5496 255.965,28.3829 252.5,26C 254.134,25.5065 255.801,25.3398 257.5,25.5C 257.649,24.448 257.483,23.448 257,22.5C 252.377,20.8084 251.544,18.1418 254.5,14.5 Z"/></g>
<g><path style="opacity:1" fill="#453013" d="M 15.5,24.5 C 14.0378,25.8007 12.7044,27.3007 11.5,29C 12.3353,30.1309 12.3353,30.9642 11.5,31.5C 10.1103,30.1007 9.11028,28.4341 8.5,26.5C 10.1002,27.512 11.4335,27.012 12.5,25C 11.2164,23.7025 11.3831,22.5358 13,21.5C 13.3768,22.9423 14.2101,23.9423 15.5,24.5 Z"/></g>
<g><path style="opacity:1" fill="#cc8606" d="M 56.5,24.5 C 57.4728,25.7914 58.4728,25.7914 59.5,24.5C 60.8333,25.5 62.1667,26.5 63.5,27.5C 64.0883,29.0116 64.4216,30.3449 64.5,31.5C 64.8897,34.8394 65.3897,38.1727 66,41.5C 69.7658,45.5458 70.9325,44.8792 69.5,39.5C 71.4411,41.0106 71.9411,43.0106 71,45.5C 68.7452,46.0418 66.9119,47.2085 65.5,49C 66.5634,50.1882 67.8967,50.6882 69.5,50.5C 69.5,52.8333 69.5,55.1667 69.5,57.5C 68.5267,58.984 67.1933,59.484 65.5,59C 66.056,58.6174 66.3893,58.1174 66.5,57.5C 67.494,55.6656 67.494,53.9989 66.5,52.5C 62.0182,52.2652 60.0182,49.9319 60.5,45.5C 62.0898,45.3718 63.4231,44.7051 64.5,43.5C 61.7177,41.6865 59.3844,38.8532 57.5,35C 58.7763,32.7194 60.4429,30.7194 62.5,29C 58.8284,30.0041 55.1617,31.1708 51.5,32.5C 50.5,33.1667 49.5,33.8333 48.5,34.5C 47.2438,34.5386 46.2438,34.0386 45.5,33C 47.2331,31.8111 48.8998,30.6444 50.5,29.5C 53.8701,29.3712 55.8701,27.7046 56.5,24.5 Z"/></g>
<g><path style="opacity:1" fill="#ad180c" d="M 28.5,27.5 C 30.5273,27.3379 32.5273,27.5045 34.5,28C 33.7476,28.6708 33.4142,29.5041 33.5,30.5C 29.8827,28.934 29.216,29.434 31.5,32C 31.2716,32.3988 30.9382,32.5654 30.5,32.5C 29.2905,32.0679 28.2905,31.4013 27.5,30.5C 27.2627,29.209 27.596,28.209 28.5,27.5 Z"/></g>
<g><path style="opacity:1" fill="#3b260a" d="M 15.5,21.5 C 15.8333,21.5 16.1667,21.5 16.5,21.5C 17.8021,23.8218 19.8021,25.1551 22.5,25.5C 22.8212,27.0481 23.8212,27.7148 25.5,27.5C 25.5,28.1667 25.5,28.8333 25.5,29.5C 21.9271,28.2477 18.5938,26.581 15.5,24.5C 15.5,23.5 15.5,22.5 15.5,21.5 Z"/></g>
<g><path style="opacity:1" fill="#382b1f" d="M 56.5,24.5 C 55.8701,27.7046 53.8701,29.3712 50.5,29.5C 50.5,28.8333 50.5,28.1667 50.5,27.5C 51.791,27.7373 52.791,27.404 53.5,26.5C 54.5,25.8333 55.5,25.1667 56.5,24.5 Z"/></g>
<g><path style="opacity:1" fill="#75532b" d="M 68.5,32.5 C 68.1506,29.0098 69.6506,26.6765 73,25.5C 74.025,29.449 72.525,31.7824 68.5,32.5 Z"/></g>
<g><path style="opacity:1" fill="#53360e" d="M 23.5,32.5 C 22.7611,32.369 22.0944,32.5357 21.5,33C 20.6006,34.6516 19.6006,36.1516 18.5,37.5C 18.2724,33.8924 17.1057,30.8924 15,28.5C 17.7834,30.0606 20.6167,31.3939 23.5,32.5 Z"/></g>
<g><path style="opacity:1" fill="#8e3e37" d="M 33.5,30.5 C 32.2431,32.368 32.5764,34.0347 34.5,35.5C 33.7261,36.7112 32.8928,36.7112 32,35.5C 31.5357,36.0944 31.369,36.7611 31.5,37.5C 30.5326,36.1938 29.1993,35.5271 27.5,35.5C 27.5,35.1667 27.5,34.8333 27.5,34.5C 29.0269,34.573 30.0269,33.9063 30.5,32.5C 30.9382,32.5654 31.2716,32.3988 31.5,32C 29.216,29.434 29.8827,28.934 33.5,30.5 Z"/></g>
<g><path style="opacity:1" fill="#937f7e" d="M 28.5,27.5 C 28.5,27.1667 28.5,26.8333 28.5,26.5C 35.0221,26.1765 41.3554,26.5098 47.5,27.5C 44.1501,27.335 40.8168,27.5017 37.5,28C 38.056,28.3826 38.3893,28.8826 38.5,29.5C 44.4014,28.4443 45.7348,30.611 42.5,36C 41.255,36.7914 39.9217,37.2914 38.5,37.5C 37.8333,37.1667 37.1667,36.8333 36.5,36.5C 34.9582,37.3007 33.2915,37.634 31.5,37.5C 31.369,36.7611 31.5357,36.0944 32,35.5C 32.8928,36.7112 33.7261,36.7112 34.5,35.5C 32.5764,34.0347 32.2431,32.368 33.5,30.5C 33.4142,29.5041 33.7476,28.6708 34.5,28C 32.5273,27.5045 30.5273,27.3379 28.5,27.5 Z"/></g>
<g><path style="opacity:1" fill="#ae130e" d="M 38.5,29.5 C 38.7816,33.5878 38.1149,34.0878 36.5,31C 36.8361,29.9701 37.5028,29.4701 38.5,29.5 Z"/></g>
<g><path style="opacity:1" fill="#e6e5e6" d="M 23.5,32.5 C 25.0618,32.7329 26.3951,33.3995 27.5,34.5C 27.5,34.8333 27.5,35.1667 27.5,35.5C 27.5,37.1667 27.5,38.8333 27.5,40.5C 27.5,40.8333 27.5,41.1667 27.5,41.5C 26.0937,41.9731 25.427,42.9731 25.5,44.5C 22.0573,44.6499 20.0573,42.9832 19.5,39.5C 15.8391,40.8234 15.5057,40.1567 18.5,37.5C 19.6006,36.1516 20.6006,34.6516 21.5,33C 22.0944,32.5357 22.7611,32.369 23.5,32.5 Z"/></g>
<g><path style="opacity:1" fill="#eae8e9" d="M 51.5,32.5 C 52.552,32.3505 53.552,32.5172 54.5,33C 55.5853,35.172 56.9186,37.172 58.5,39C 57.2625,39.2321 56.2625,39.7321 55.5,40.5C 55.4754,43.179 54.142,44.5123 51.5,44.5C 50.8333,43.1667 49.8333,42.1667 48.5,41.5C 48.5,41.1667 48.5,40.8333 48.5,40.5C 48.5,38.5 48.5,36.5 48.5,34.5C 49.5,33.8333 50.5,33.1667 51.5,32.5 Z"/></g>
<g><path style="opacity:1" fill="#b60a03" d="M 47.5,27.5 C 48.2223,28.5511 49.2223,29.2178 50.5,29.5C 48.8998,30.6444 47.2331,31.8111 45.5,33C 46.2438,34.0386 47.2438,34.5386 48.5,34.5C 48.5,36.5 48.5,38.5 48.5,40.5C 45.1667,40.5 41.8333,40.5 38.5,40.5C 38.5,39.5 38.5,38.5 38.5,37.5C 39.9217,37.2914 41.255,36.7914 42.5,36C 45.7348,30.611 44.4014,28.4443 38.5,29.5C 38.3893,28.8826 38.056,28.3826 37.5,28C 40.8168,27.5017 44.1501,27.335 47.5,27.5 Z"/></g>
<g><path style="opacity:1" fill="#bd0503" d="M 27.5,35.5 C 29.1993,35.5271 30.5326,36.1938 31.5,37.5C 33.2915,37.634 34.9582,37.3007 36.5,36.5C 36.6399,38.1238 35.9733,39.2904 34.5,40C 32.1902,40.4966 29.8568,40.6633 27.5,40.5C 27.5,38.8333 27.5,37.1667 27.5,35.5 Z"/></g>
<g><path style="opacity:1" fill="#925c0f" d="M 68.5,32.5 C 68.448,34.9029 68.7814,37.2362 69.5,39.5C 68.0069,38.6879 67.3402,37.3545 67.5,35.5C 67.5195,34.2739 67.8529,33.2739 68.5,32.5 Z"/></g>
<g><path style="opacity:1" fill="#ca8507" d="M 15.5,24.5 C 18.5938,26.581 21.9271,28.2477 25.5,29.5C 26.1667,29.8333 26.8333,30.1667 27.5,30.5C 28.2905,31.4013 29.2905,32.0679 30.5,32.5C 30.0269,33.9063 29.0269,34.573 27.5,34.5C 26.3951,33.3995 25.0618,32.7329 23.5,32.5C 20.6167,31.3939 17.7834,30.0606 15,28.5C 17.1057,30.8924 18.2724,33.8924 18.5,37.5C 15.5057,40.1567 15.8391,40.8234 19.5,39.5C 20.0573,42.9832 22.0573,44.6499 25.5,44.5C 26.4916,44.3284 27.1583,44.6618 27.5,45.5C 26.1667,46.1667 24.8333,46.8333 23.5,47.5C 22.1667,47.8333 20.8333,48.1667 19.5,48.5C 18.596,47.791 18.2627,46.791 18.5,45.5C 17.791,44.596 16.791,44.2627 15.5,44.5C 15.6495,43.448 15.4828,42.448 15,41.5C 14.5,42.6667 13.6667,43.5 12.5,44C 13.0442,44.7172 13.7109,45.2172 14.5,45.5C 14.631,46.2389 14.4643,46.9056 14,47.5C 11.5397,46.245 10.373,44.245 10.5,41.5C 10.6159,38.1401 10.9492,34.8067 11.5,31.5C 12.3353,30.9642 12.3353,30.1309 11.5,29C 12.7044,27.3007 14.0378,25.8007 15.5,24.5 Z"/></g>
<g><path style="opacity:1" fill="#845a2b" d="M 8.5,44.5 C 8.83333,45.1667 9.16667,45.8333 9.5,46.5C 6.73947,47.0853 5.0728,46.0853 4.5,43.5C 5.64407,40.713 6.64407,37.8797 7.5,35C 5.7009,32.7016 4.03424,30.2016 2.5,27.5C 2.83333,26.8333 3.16667,26.1667 3.5,25.5C 6.95235,27.6667 8.61902,30.8333 8.5,35C 8.27327,37.6193 7.6066,40.1193 6.5,42.5C 6.74716,43.7133 7.41383,44.38 8.5,44.5 Z"/></g>
<g><path style="opacity:1" fill="#6b4921" d="M 60.5,45.5 C 59.5,45.5 58.5,45.5 57.5,45.5C 58.3984,44.8423 59.3984,44.1757 60.5,43.5C 59.6249,41.2275 57.9582,40.2275 55.5,40.5C 56.2625,39.7321 57.2625,39.2321 58.5,39C 56.9186,37.172 55.5853,35.172 54.5,33C 53.552,32.5172 52.552,32.3505 51.5,32.5C 55.1617,31.1708 58.8284,30.0041 62.5,29C 60.4429,30.7194 58.7763,32.7194 57.5,35C 59.3844,38.8532 61.7177,41.6865 64.5,43.5C 63.4231,44.7051 62.0898,45.3718 60.5,45.5 Z"/></g>
<g><path style="opacity:1" fill="#121212" d="M 485.5,46.5 C 488.178,43.7774 490.678,44.1107 493,47.5C 494.465,56.0539 491.465,58.3872 484,54.5C 483.667,55.1667 483.333,55.8333 483,56.5C 482.17,50.8041 482.337,45.1375 483.5,39.5C 484.168,41.9688 484.835,44.3021 485.5,46.5 Z"/></g>
<g><path style="opacity:1" fill="#1d1d1d" d="M 569.5,39.5 C 569.335,42.8499 569.502,46.1832 570,49.5C 571.529,48.2713 572.696,46.7713 573.5,45C 574.5,44.3333 575.5,44.3333 576.5,45C 574.773,46.3894 573.439,48.0561 572.5,50C 577.927,57.7883 577.26,58.2883 570.5,51.5C 569.548,53.0453 569.215,54.712 569.5,56.5C 568.186,54.0849 567.519,51.2515 567.5,48C 567.519,44.7485 568.186,41.9151 569.5,39.5 Z"/></g>
<g><path style="opacity:1" fill="#963d3a" d="M 36.5,36.5 C 37.1667,36.8333 37.8333,37.1667 38.5,37.5C 38.5,38.5 38.5,39.5 38.5,40.5C 41.8333,40.5 45.1667,40.5 48.5,40.5C 48.5,40.8333 48.5,41.1667 48.5,41.5C 41.5,41.5 34.5,41.5 27.5,41.5C 27.5,41.1667 27.5,40.8333 27.5,40.5C 29.8568,40.6633 32.1902,40.4966 34.5,40C 35.9733,39.2904 36.6399,38.1238 36.5,36.5 Z"/></g>
<g><path style="opacity:1" fill="#1a1a1a" d="M 101.5,56.5 C 101.5,53.8333 101.5,51.1667 101.5,48.5C 98.2869,48.19 95.2869,48.5233 92.5,49.5C 92.8076,51.924 92.4742,54.2573 91.5,56.5C 90.1667,50.8333 90.1667,45.1667 91.5,39.5C 92.48,42.0865 92.8134,44.7531 92.5,47.5C 95.5,47.5 98.5,47.5 101.5,47.5C 102.221,36.9576 102.887,37.1243 103.5,48C 103.481,51.2515 102.814,54.0849 101.5,56.5 Z"/></g>
<g><path style="opacity:1" fill="#2c2c2c" d="M 144.5,39.5 C 146.465,39.9483 146.798,40.9483 145.5,42.5C 144.614,41.675 144.281,40.675 144.5,39.5 Z"/></g>
<g><path style="opacity:1" fill="#0a0a0a" d="M 189.5,39.5 C 190.325,43.6472 190.825,47.9805 191,52.5C 193.303,56.027 195.97,56.3603 199,53.5C 199.172,48.7982 199.672,44.1315 200.5,39.5C 201.661,43.7953 201.828,48.1287 201,52.5C 198.947,56.2916 195.781,57.4582 191.5,56C 191,55.5 190.5,55 190,54.5C 189.501,49.5111 189.334,44.5111 189.5,39.5 Z"/></g>
<g><path style="opacity:1" fill="#636363" d="M 496.5,38.5 C 497.5,38.5 498.5,38.5 499.5,38.5C 499.5,44.8333 499.5,51.1667 499.5,57.5C 498.5,57.5 497.5,57.5 496.5,57.5C 496.5,51.1667 496.5,44.8333 496.5,38.5 Z"/></g>
<g><path style="opacity:1" fill="#2f2f2f" d="M 502.5,39.5 C 504.465,39.9483 504.798,40.9483 503.5,42.5C 502.614,41.675 502.281,40.675 502.5,39.5 Z"/></g>
<g><path style="opacity:1" fill="#9d9d9d" d="M 569.5,39.5 C 568.186,41.9151 567.519,44.7485 567.5,48C 567.519,51.2515 568.186,54.0849 569.5,56.5C 568.791,57.404 567.791,57.7373 566.5,57.5C 566.5,51.1667 566.5,44.8333 566.5,38.5C 567.791,38.2627 568.791,38.596 569.5,39.5 Z"/></g>
<g><path style="opacity:1" fill="#232323" d="M 396.5,41.5 C 398.048,41.8212 398.715,42.8212 398.5,44.5C 402.5,45.1667 402.5,45.8333 398.5,46.5C 397.989,50.0297 398.656,53.1963 400.5,56C 399.216,56.6838 398.049,56.5171 397,55.5C 396.963,51.9111 396.13,48.5778 394.5,45.5C 395.853,44.4763 396.52,43.143 396.5,41.5 Z"/></g>
<g><path style="opacity:1" fill="#c6c8c1" d="M 27.5,41.5 C 34.5,41.5 41.5,41.5 48.5,41.5C 48.1667,42.5 47.5,43.1667 46.5,43.5C 40.8333,43.5 35.1667,43.5 29.5,43.5C 29.5,44.5 29.5,45.5 29.5,46.5C 28.3406,47.4558 27.1739,48.4558 26,49.5C 24.699,49.3613 23.8656,48.6946 23.5,47.5C 24.8333,46.8333 26.1667,46.1667 27.5,45.5C 28.6857,44.2946 28.6857,42.9613 27.5,41.5 Z"/></g>
<g><path style="opacity:1" fill="#c5810d" d="M 55.5,40.5 C 57.9582,40.2275 59.6249,41.2275 60.5,43.5C 59.3984,44.1757 58.3984,44.8423 57.5,45.5C 57.5,46.5 57.5,47.5 57.5,48.5C 55.0459,48.6795 52.8792,48.0128 51,46.5C 50.2352,46.5699 49.7352,46.9033 49.5,47.5C 48.596,46.791 48.2627,45.791 48.5,44.5C 49.5,44.5 50.5,44.5 51.5,44.5C 54.142,44.5123 55.4754,43.179 55.5,40.5 Z"/></g>
<g><path style="opacity:1" fill="#1a1a1a" d="M 455.5,39.5 C 458.93,39.1065 462.096,39.7732 465,41.5C 466.5,47.8347 464,50.5013 457.5,49.5C 457.808,51.924 457.474,54.2573 456.5,56.5C 455.505,50.8722 455.171,45.2055 455.5,39.5 Z"/></g>
<g><path style="opacity:1" fill="#f0f0f0" d="M 457.5,41.5 C 463.158,40.6794 464.825,42.846 462.5,48C 460.866,48.4935 459.199,48.6602 457.5,48.5C 457.5,46.1667 457.5,43.8333 457.5,41.5 Z"/></g>
<g><path style="opacity:1" fill="#2d1d0d" d="M 18.5,45.5 C 17.5,45.5 16.5,45.5 15.5,45.5C 15.1667,45.5 14.8333,45.5 14.5,45.5C 13.7109,45.2172 13.0442,44.7172 12.5,44C 13.6667,43.5 14.5,42.6667 15,41.5C 15.4828,42.448 15.6495,43.448 15.5,44.5C 16.791,44.2627 17.791,44.596 18.5,45.5 Z"/></g>
<g><path style="opacity:1" fill="#563b25" d="M 27.5,41.5 C 28.6857,42.9613 28.6857,44.2946 27.5,45.5C 27.1583,44.6618 26.4916,44.3284 25.5,44.5C 25.427,42.9731 26.0937,41.9731 27.5,41.5 Z"/></g>
<g><path style="opacity:1" fill="#096516" d="M 46.5,43.5 C 46.2964,45.6854 45.6298,47.6854 44.5,49.5C 42.5509,51.727 40.3842,53.727 38,55.5C 35.6318,53.6284 33.4651,51.6284 31.5,49.5C 31.573,47.9731 30.9063,46.9731 29.5,46.5C 29.5,45.5 29.5,44.5 29.5,43.5C 35.1667,43.5 40.8333,43.5 46.5,43.5 Z"/></g>
<g><path style="opacity:1" fill="#202020" d="M 130.5,44.5 C 130.666,48.5138 130.499,52.5138 130,56.5C 129.667,55.8333 129.333,55.1667 129,54.5C 128.601,54.7284 128.435,55.0618 128.5,55.5C 122.743,57.75 120.076,55.75 120.5,49.5C 120.833,47.8333 121.167,46.1667 121.5,44.5C 122.321,47.4465 122.821,50.4465 123,53.5C 124.667,56.1667 126.333,56.1667 128,53.5C 127.93,50.008 128.763,47.008 130.5,44.5 Z"/></g>
<g><path style="opacity:1" fill="#121212" d="M 151.5,44.5 C 152.281,46.6281 153.281,46.7947 154.5,45C 157.872,43.8785 159.872,45.0451 160.5,48.5C 160.664,51.1873 160.497,53.854 160,56.5C 159.817,53.6353 159.317,50.9686 158.5,48.5C 156.962,45.9521 155.296,45.9521 153.5,48.5C 152.683,50.9686 152.183,53.6353 152,56.5C 151.501,52.5138 151.334,48.5138 151.5,44.5 Z"/></g>
<g><path style="opacity:1" fill="#0f0f0f" d="M 240.5,44.5 C 242.341,45.6733 244.174,45.6733 246,44.5C 247.303,44.9783 248.469,45.645 249.5,46.5C 249.665,49.8499 249.498,53.1832 249,56.5C 248.819,53.3054 248.319,50.3054 247.5,47.5C 245.545,46.0698 243.879,46.4031 242.5,48.5C 241.683,50.9686 241.183,53.6353 241,56.5C 240.501,52.5138 240.334,48.5138 240.5,44.5 Z"/></g>
<g><path style="opacity:1" fill="#202020" d="M 358.5,46.5 C 360.322,43.9621 362.322,43.9621 364.5,46.5C 365.833,49.8333 365.833,53.1667 364.5,56.5C 363.679,53.5535 363.179,50.5535 363,47.5C 361.644,46.6198 360.144,46.2865 358.5,46.5 Z"/></g>
<g><path style="opacity:1" fill="#212121" d="M 468.5,44.5 C 470.402,47.3373 471.069,50.6707 470.5,54.5C 472.467,54.7394 474.301,54.4061 476,53.5C 476.179,50.4465 476.679,47.4465 477.5,44.5C 478.833,48.5 478.833,52.5 477.5,56.5C 475.89,55.4478 474.223,55.4478 472.5,56.5C 470.971,56.4712 469.804,55.8045 469,54.5C 468.502,51.1832 468.335,47.8499 468.5,44.5 Z"/></g>
<g><path style="opacity:1" fill="#a4a4a4" d="M 130.5,44.5 C 131.485,48.6344 131.818,52.9677 131.5,57.5C 129.821,57.7148 128.821,57.0481 128.5,55.5C 128.435,55.0618 128.601,54.7284 129,54.5C 129.333,55.1667 129.667,55.8333 130,56.5C 130.499,52.5138 130.666,48.5138 130.5,44.5 Z"/></g>
<g><path style="opacity:1" fill="#2d2d2d" d="M 144.5,44.5 C 145.794,46.0478 146.461,48.0478 146.5,50.5C 146.167,52.5 145.833,54.5 145.5,56.5C 144.509,52.5546 144.176,48.5546 144.5,44.5 Z"/></g>
<g><path style="opacity:1" fill="#1c1c1c" d="M 214.5,39.5 C 216.036,41.0251 217.036,43.0251 217.5,45.5C 223.802,44.3048 226.302,46.9715 225,53.5C 224.626,54.4162 224.126,55.2496 223.5,56C 220.668,56.2121 218.002,56.3787 215.5,56.5C 214.505,50.8722 214.171,45.2055 214.5,39.5 Z"/></g>
<g><path style="opacity:1" fill="#111111" d="M 358.5,46.5 C 358.5,46.8333 358.5,47.1667 358.5,47.5C 357.681,50.3054 357.181,53.3054 357,56.5C 356.817,53.6353 356.317,50.9686 355.5,48.5C 354.545,46.2901 353.045,45.9568 351,47.5C 350.821,50.5535 350.321,53.5535 349.5,56.5C 348.167,52.5 348.167,48.5 349.5,44.5C 352.693,43.8884 355.693,44.5551 358.5,46.5 Z"/></g>
<g><path style="opacity:1" fill="#1c1c1c" d="M 502.5,44.5 C 503.794,46.0478 504.461,48.0478 504.5,50.5C 504.167,52.5 503.833,54.5 503.5,56.5C 502.509,52.5546 502.176,48.5546 502.5,44.5 Z"/></g>
<g><path style="opacity:1" fill="#e1e1e2" d="M 15.5,45.5 C 16.5,45.5 17.5,45.5 18.5,45.5C 18.2627,46.791 18.596,47.791 19.5,48.5C 19.2969,50.0443 18.6302,51.3777 17.5,52.5C 14.3417,53.0926 11.675,54.4259 9.5,56.5C 9.5,55.1667 9.5,53.8333 9.5,52.5C 13.9264,52.2797 15.9264,49.9464 15.5,45.5 Z"/></g>
<g><path style="opacity:1" fill="#dcdbd9" d="M 57.5,45.5 C 58.5,45.5 59.5,45.5 60.5,45.5C 60.0182,49.9319 62.0182,52.2652 66.5,52.5C 66.6309,53.3764 66.2975,54.0431 65.5,54.5C 63.8333,53.1667 62.1667,53.1667 60.5,54.5C 57.1499,52.8039 53.8165,51.1373 50.5,49.5C 50.1667,48.8333 49.8333,48.1667 49.5,47.5C 49.7352,46.9033 50.2352,46.5699 51,46.5C 52.8792,48.0128 55.0459,48.6795 57.5,48.5C 57.5,47.5 57.5,46.5 57.5,45.5 Z"/></g>
<g><path style="opacity:1" fill="#1a1a1a" d="M 171.5,60.5 C 172.355,59.4693 173.022,58.3026 173.5,57C 173.164,55.9701 172.497,55.4701 171.5,55.5C 167.168,57.3813 164.501,55.8813 163.5,51C 164.707,44.9773 167.873,43.4773 173,46.5C 173.333,45.8333 173.667,45.1667 174,44.5C 174.667,49.5 174.667,54.5 174,59.5C 173.329,60.2524 172.496,60.5858 171.5,60.5 Z"/></g>
<g><path style="opacity:1" fill="#dedede" d="M 171.5,55.5 C 166.828,55.5118 164.994,53.1785 166,48.5C 171.519,45.3341 173.852,47.0008 173,53.5C 172.283,54.0442 171.783,54.7109 171.5,55.5 Z"/></g>
<g><path style="opacity:1" fill="#242424" d="M 205.5,44.5 C 206.75,44.5774 207.583,45.244 208,46.5C 208.965,44.7397 210.132,44.4063 211.5,45.5C 210.24,46.3816 209.074,47.3816 208,48.5C 207.818,51.2263 207.318,53.8929 206.5,56.5C 205.509,52.5546 205.176,48.5546 205.5,44.5 Z"/></g>
<g><path style="opacity:1" fill="#ececec" d="M 217.5,46.5 C 223.067,45.7532 224.9,48.0866 223,53.5C 221.477,55.6201 219.644,55.9535 217.5,54.5C 216.271,51.8013 216.271,49.1346 217.5,46.5 Z"/></g>
<g><path style="opacity:1" fill="#262626" d="M 322.5,44.5 C 330.576,45.0094 332.576,48.8427 328.5,56C 321.672,57.8241 318.506,55.3241 319,48.5C 320.102,47.051 321.269,45.7177 322.5,44.5 Z"/></g>
<g><path style="opacity:1" fill="#efefef" d="M 322.5,46.5 C 328.067,45.7532 329.9,48.0866 328,53.5C 325.916,56.033 323.916,56.033 322,53.5C 321.297,51.0709 321.463,48.7375 322.5,46.5 Z"/></g>
<g><path style="opacity:1" fill="#171717" d="M 333.5,44.5 C 336.085,45.0724 338.751,45.2391 341.5,45C 345.105,48.3153 345.439,51.982 342.5,56C 340.231,56.7581 338.064,56.5914 336,55.5C 335.808,57.5767 335.308,59.5767 334.5,61.5C 333.505,55.8722 333.171,50.2055 333.5,44.5 Z"/></g>
<g><path style="opacity:1" fill="#f0f0f0" d="M 336.5,46.5 C 342.067,45.7532 343.9,48.0866 342,53.5C 340,56.1667 338,56.1667 336,53.5C 335.297,51.0709 335.463,48.7375 336.5,46.5 Z"/></g>
<g><path style="opacity:1" fill="#171717" d="M 382.5,44.5 C 383.222,44.9175 383.722,45.5842 384,46.5C 386.333,43.8333 388.667,43.8333 391,46.5C 391.824,49.8823 391.657,53.2156 390.5,56.5C 389.679,53.5535 389.179,50.5535 389,47.5C 387.085,46.0844 385.585,46.4178 384.5,48.5C 383.683,50.9686 383.183,53.6353 383,56.5C 382.501,52.5138 382.334,48.5138 382.5,44.5 Z"/></g>
<g><path style="opacity:1" fill="#171717" d="M 422.5,44.5 C 423.222,44.9175 423.722,45.5842 424,46.5C 426.333,43.8333 428.667,43.8333 431,46.5C 431.824,49.8823 431.657,53.2156 430.5,56.5C 429.679,53.5535 429.179,50.5535 429,47.5C 427.085,46.0844 425.585,46.4178 424.5,48.5C 423.683,50.9686 423.183,53.6353 423,56.5C 422.501,52.5138 422.334,48.5138 422.5,44.5 Z"/></g>
<g><path style="opacity:1" fill="#efefef" d="M 485.5,46.5 C 491.067,45.7532 492.9,48.0866 491,53.5C 489,56.1667 487,56.1667 485,53.5C 484.297,51.0709 484.463,48.7375 485.5,46.5 Z"/></g>
<g><path style="opacity:1" fill="#252525" d="M 523.5,39.5 C 526.07,43.7132 527.57,48.3799 528,53.5C 529.74,48.9647 530.906,44.2981 531.5,39.5C 532.5,39.5 533.5,39.5 534.5,39.5C 535.313,43.8095 536.147,48.1428 537,52.5C 539.252,48.4949 540.419,44.1615 540.5,39.5C 541.675,39.281 542.675,39.6143 543.5,40.5C 541.813,45.4228 540.313,50.4228 539,55.5C 537.989,56.3366 536.822,56.67 535.5,56.5C 534.105,40.6274 532.105,40.6274 529.5,56.5C 528.5,56.5 527.5,56.5 526.5,56.5C 525.186,50.8782 524.186,45.2116 523.5,39.5 Z"/></g>
<g><path style="opacity:1" fill="#1c1c1c" d="M 547.5,44.5 C 555.957,45.437 557.624,49.2703 552.5,56C 545.562,58.0597 542.729,55.5597 544,48.5C 544.69,46.6498 545.856,45.3164 547.5,44.5 Z"/></g>
<g><path style="opacity:1" fill="#eaeaea" d="M 547.5,46.5 C 553.661,46.9435 554.995,49.7768 551.5,55C 546.504,55.6643 544.67,53.4977 546,48.5C 546.717,47.9558 547.217,47.2891 547.5,46.5 Z"/></g>
<g><path style="opacity:1" fill="#242424" d="M 558.5,44.5 C 559.75,44.5774 560.583,45.244 561,46.5C 561.965,44.7397 563.132,44.4063 564.5,45.5C 563.24,46.3816 562.074,47.3816 561,48.5C 560.818,51.2263 560.318,53.8929 559.5,56.5C 558.509,52.5546 558.176,48.5546 558.5,44.5 Z"/></g>
<g><path style="opacity:1" fill="#a66d11" d="M 10.5,41.5 C 10.373,44.245 11.5397,46.245 14,47.5C 14.4643,46.9056 14.631,46.2389 14.5,45.5C 14.8333,45.5 15.1667,45.5 15.5,45.5C 15.9264,49.9464 13.9264,52.2797 9.5,52.5C 9.5,53.8333 9.5,55.1667 9.5,56.5C 10.6935,57.2719 11.6935,58.2719 12.5,59.5C 10.0747,61.1194 8.0747,60.7861 6.5,58.5C 6.5,55.8333 6.5,53.1667 6.5,50.5C 7.5,50.5 8.5,50.5 9.5,50.5C 9.5,49.1667 9.5,47.8333 9.5,46.5C 9.16667,45.8333 8.83333,45.1667 8.5,44.5C 8.93205,43.2905 9.59872,42.2905 10.5,41.5 Z"/></g>
<g><path style="opacity:1" fill="#181818" d="M 109.5,44.5 C 117.957,45.437 119.624,49.2703 114.5,56C 108.166,57.3286 105.332,54.8286 106,48.5C 106.69,46.6498 107.856,45.3164 109.5,44.5 Z"/></g>
<g><path style="opacity:1" fill="#e9e9e9" d="M 109.5,46.5 C 115.661,46.9435 116.995,49.7768 113.5,55C 108.504,55.6643 106.67,53.4977 108,48.5C 108.717,47.9558 109.217,47.2891 109.5,46.5 Z"/></g>
<g><path style="opacity:1" fill="#131313" d="M 303.5,44.5 C 308.811,43.9724 311.145,46.3057 310.5,51.5C 307.482,51.3354 304.482,51.502 301.5,52C 303.196,54.9823 305.863,56.3156 309.5,56C 302,57.8333 299.167,55 301,47.5C 302.045,46.6266 302.878,45.6266 303.5,44.5 Z"/></g>
<g><path style="opacity:1" fill="#f7f7f7" d="M 308.5,48.5 C 306.5,49.8333 304.5,49.8333 302.5,48.5C 303.134,47.0532 304.301,46.3866 306,46.5C 307.376,46.6842 308.209,47.3509 308.5,48.5 Z"/></g>
<g><path style="opacity:1" fill="#151515" d="M 371.5,44.5 C 376.833,43.8333 379.167,46.1667 378.5,51.5C 375.833,51.5 373.167,51.5 370.5,51.5C 370.33,52.8221 370.663,53.9887 371.5,55C 373.5,55.3333 375.5,55.6667 377.5,56C 370,57.8333 367.167,55 369,47.5C 370.045,46.6266 370.878,45.6266 371.5,44.5 Z"/></g>
<g><path style="opacity:1" fill="#f5f5f5" d="M 376.5,48.5 C 374.5,49.8333 372.5,49.8333 370.5,48.5C 371.134,47.0532 372.301,46.3866 374,46.5C 375.376,46.6842 376.209,47.3509 376.5,48.5 Z"/></g>
<g><path style="opacity:1" fill="#131313" d="M 444.5,39.5 C 445.814,41.9151 446.481,44.7485 446.5,48C 446.167,50.8333 445.833,53.6667 445.5,56.5C 442.998,56.3787 440.332,56.2121 437.5,56C 433.296,51.8445 433.629,48.1779 438.5,45C 440.235,44.3486 441.902,44.5153 443.5,45.5C 444.466,43.604 444.799,41.604 444.5,39.5 Z"/></g>
<g><path style="opacity:1" fill="#e7e7e7" d="M 438.5,46.5 C 444.067,45.7532 445.9,48.0866 444,53.5C 441.16,56.3707 438.826,56.0374 437,52.5C 436.252,50.1599 436.752,48.1599 438.5,46.5 Z"/></g>
<g><path style="opacity:1" fill="#191919" d="M 511.5,44.5 C 513.288,44.2148 514.955,44.5481 516.5,45.5C 509.672,46.1312 508.005,49.2978 511.5,55C 513.167,55.3333 514.833,55.6667 516.5,56C 510.166,57.3286 507.332,54.8286 508,48.5C 508.69,46.6498 509.856,45.3164 511.5,44.5 Z"/></g>
<g><path style="opacity:1" fill="#8f8a85" d="M 29.5,46.5 C 30.9063,46.9731 31.573,47.9731 31.5,49.5C 31.1667,49.5 30.8333,49.5 30.5,49.5C 30.5,48.8333 30.1667,48.5 29.5,48.5C 29.5,47.8333 29.5,47.1667 29.5,46.5 Z"/></g>
<g><path style="opacity:1" fill="#554f4c" d="M 48.5,41.5 C 49.8333,42.1667 50.8333,43.1667 51.5,44.5C 50.5,44.5 49.5,44.5 48.5,44.5C 48.2627,45.791 48.596,46.791 49.5,47.5C 49.8333,48.1667 50.1667,48.8333 50.5,49.5C 50.5,50.8333 49.8333,51.5 48.5,51.5C 47.7582,49.6503 46.7582,48.9836 45.5,49.5C 45.1667,49.5 44.8333,49.5 44.5,49.5C 45.6298,47.6854 46.2964,45.6854 46.5,43.5C 47.5,43.1667 48.1667,42.5 48.5,41.5 Z"/></g>
<g><path style="opacity:1" fill="#6c6c6c" d="M 92.5,49.5 C 95.2869,48.5233 98.2869,48.19 101.5,48.5C 101.5,51.1667 101.5,53.8333 101.5,56.5C 100.532,54.3926 100.198,52.0593 100.5,49.5C 97.8333,49.5 95.1667,49.5 92.5,49.5 Z"/></g>
<g><path style="opacity:1" fill="#191919" d="M 136.5,44.5 C 143.167,45.1667 143.167,45.8333 136.5,46.5C 137.861,49.025 139.527,51.3584 141.5,53.5C 141.392,54.4419 141.059,55.2753 140.5,56C 138.5,56.6667 136.5,56.6667 134.5,56C 136.134,55.5065 137.801,55.3398 139.5,55.5C 139.649,54.448 139.483,53.448 139,52.5C 134.377,50.8084 133.544,48.1418 136.5,44.5 Z"/></g>
<g><path style="opacity:1" fill="#7c7c7c" d="M 151.5,44.5 C 151.334,48.5138 151.501,52.5138 152,56.5C 152.183,53.6353 152.683,50.9686 153.5,48.5C 153.5,51.5 153.5,54.5 153.5,57.5C 152.5,57.5 151.5,57.5 150.5,57.5C 150.182,52.9677 150.515,48.6344 151.5,44.5 Z"/></g>
<g><path style="opacity:1" fill="#121212" d="M 233.5,55.5 C 232.054,56.6129 230.387,56.7796 228.5,56C 227.017,50.9735 229.017,48.8069 234.5,49.5C 234.5,48.5 234.5,47.5 234.5,46.5C 232.473,46.6621 230.473,46.4955 228.5,46C 231.137,43.9263 233.637,44.093 236,46.5C 236.824,49.8823 236.657,53.2156 235.5,56.5C 234.817,56.1373 234.15,55.8039 233.5,55.5 Z"/></g>
<g><path style="opacity:1" fill="#686868" d="M 240.5,44.5 C 240.334,48.5138 240.501,52.5138 241,56.5C 241.183,53.6353 241.683,50.9686 242.5,48.5C 242.5,51.5 242.5,54.5 242.5,57.5C 241.5,57.5 240.5,57.5 239.5,57.5C 239.182,52.9677 239.515,48.6344 240.5,44.5 Z"/></g>
<g><path style="opacity:1" fill="#181818" d="M 414.5,55.5 C 413.054,56.6129 411.387,56.7796 409.5,56C 408.017,50.9735 410.017,48.8069 415.5,49.5C 415.5,48.5 415.5,47.5 415.5,46.5C 413.473,46.6621 411.473,46.4955 409.5,46C 412.137,43.9263 414.637,44.093 417,46.5C 417.824,49.8823 417.657,53.2156 416.5,56.5C 415.817,56.1373 415.15,55.8039 414.5,55.5 Z"/></g>
<g><path style="opacity:1" fill="#868686" d="M 158.5,48.5 C 159.317,50.9686 159.817,53.6353 160,56.5C 160.497,53.854 160.664,51.1873 160.5,48.5C 161.477,51.2869 161.81,54.2869 161.5,57.5C 160.5,57.5 159.5,57.5 158.5,57.5C 158.5,54.5 158.5,51.5 158.5,48.5 Z"/></g>
<g><path style="opacity:1" fill="#838383" d="M 249.5,46.5 C 250.482,49.9619 250.815,53.6286 250.5,57.5C 249.5,57.5 248.5,57.5 247.5,57.5C 247.5,54.1667 247.5,50.8333 247.5,47.5C 248.319,50.3054 248.819,53.3054 249,56.5C 249.498,53.1832 249.665,49.8499 249.5,46.5 Z"/></g>
<g><path style="opacity:1" fill="#161616" d="M 279.5,44.5 C 284.167,44.5 286.5,46.8333 286.5,51.5C 283.428,51.1826 280.428,51.5159 277.5,52.5C 277.977,53.4776 278.643,54.3109 279.5,55C 281.5,55.3333 283.5,55.6667 285.5,56C 277.566,58.3973 274.399,55.5639 276,47.5C 277.145,46.3636 278.312,45.3636 279.5,44.5 Z"/></g>
<g><path style="opacity:1" fill="#d2d2d2" d="M 278.5,46.5 C 282.241,45.5985 284.241,46.9319 284.5,50.5C 282.167,50.5 279.833,50.5 277.5,50.5C 277.433,49.0413 277.766,47.7079 278.5,46.5 Z"/></g>
<g><path style="opacity:1" fill="#6e6e6e" d="M 302.5,48.5 C 304.5,49.8333 306.5,49.8333 308.5,48.5C 309.043,48.56 309.376,48.8933 309.5,49.5C 306.833,50.8333 304.167,50.8333 301.5,49.5C 301.624,48.8933 301.957,48.56 302.5,48.5 Z"/></g>
<g><path style="opacity:1" fill="#434343" d="M 313.5,38.5 C 314.816,41.0866 315.483,44.0866 315.5,47.5C 315.167,50.5 314.833,53.5 314.5,56.5C 313.504,50.5368 313.171,44.5368 313.5,38.5 Z"/></g>
<g><path style="opacity:1" fill="#7d7d7d" d="M 358.5,47.5 C 358.5,50.8333 358.5,54.1667 358.5,57.5C 357.5,57.5 356.5,57.5 355.5,57.5C 355.5,54.5 355.5,51.5 355.5,48.5C 356.317,50.9686 356.817,53.6353 357,56.5C 357.181,53.3054 357.681,50.3054 358.5,47.5 Z"/></g>
<g><path style="opacity:1" fill="#6f6f6f" d="M 370.5,48.5 C 372.5,49.8333 374.5,49.8333 376.5,48.5C 377.043,48.56 377.376,48.8933 377.5,49.5C 374.833,50.8333 372.167,50.8333 369.5,49.5C 369.624,48.8933 369.957,48.56 370.5,48.5 Z"/></g>
<g><path style="opacity:1" fill="#8b8b8b" d="M 382.5,44.5 C 382.334,48.5138 382.501,52.5138 383,56.5C 383.183,53.6353 383.683,50.9686 384.5,48.5C 384.5,51.5 384.5,54.5 384.5,57.5C 383.5,57.5 382.5,57.5 381.5,57.5C 381.182,52.9677 381.515,48.6344 382.5,44.5 Z"/></g>
<g><path style="opacity:1" fill="#8b8b8b" d="M 422.5,44.5 C 422.334,48.5138 422.501,52.5138 423,56.5C 423.183,53.6353 423.683,50.9686 424.5,48.5C 424.5,51.5 424.5,54.5 424.5,57.5C 423.5,57.5 422.5,57.5 421.5,57.5C 421.182,52.9677 421.515,48.6344 422.5,44.5 Z"/></g>
<g><path style="opacity:1" fill="#1c1c1c" d="M 259.5,39.5 C 264.715,38.7024 269.215,40.0358 273,43.5C 274.602,54.0638 270.102,58.3971 259.5,56.5C 259.5,50.8333 259.5,45.1667 259.5,39.5 Z"/></g>
<g><path style="opacity:1" fill="#f8f8f8" d="M 262.5,41.5 C 269.825,40.9924 272.658,44.3258 271,51.5C 270.578,53.4257 269.411,54.4257 267.5,54.5C 265.833,54.5 264.167,54.5 262.5,54.5C 262.5,50.1667 262.5,45.8333 262.5,41.5 Z"/></g>
<g><path style="opacity:1" fill="#adadad" d="M 262.5,41.5 C 262.5,45.8333 262.5,50.1667 262.5,54.5C 264.167,54.5 265.833,54.5 267.5,54.5C 265.735,55.4614 263.735,55.7947 261.5,55.5C 261.181,50.6367 261.514,45.97 262.5,41.5 Z"/></g>
<g><path style="opacity:1" fill="#161616" d="M 580.5,44.5 C 587.049,44.9071 587.049,45.9071 580.5,47.5C 581.421,49.756 583.088,50.756 585.5,50.5C 586.179,56.2354 583.845,57.902 578.5,55.5C 579.909,55.3459 581.576,55.1792 583.5,55C 583.957,54.586 584.291,54.086 584.5,53.5C 582.78,52.0803 580.946,50.747 579,49.5C 578.387,47.5048 578.887,45.8381 580.5,44.5 Z"/></g>
<g><path style="opacity:1" fill="#dcdcdc" d="M 233.5,55.5 C 232.167,55.5 230.833,55.5 229.5,55.5C 229.162,51.8493 230.828,50.1826 234.5,50.5C 234.634,52.2915 234.301,53.9582 233.5,55.5 Z"/></g>
<g><path style="opacity:1" fill="#dcdcdc" d="M 414.5,55.5 C 413.167,55.5 411.833,55.5 410.5,55.5C 410.162,51.8493 411.828,50.1826 415.5,50.5C 415.634,52.2915 415.301,53.9582 414.5,55.5 Z"/></g>
<g><path style="opacity:1" fill="#801609" d="M 48.5,51.5 C 50.0862,53.6705 51.4196,56.0038 52.5,58.5C 52.1667,58.5 51.8333,58.5 51.5,58.5C 50.8333,57.8333 50.1667,57.1667 49.5,56.5C 49.5,55.8333 49.1667,55.5 48.5,55.5C 48.0248,53.2163 47.0248,51.2163 45.5,49.5C 46.7582,48.9836 47.7582,49.6503 48.5,51.5 Z"/></g>
<g><path style="opacity:1" fill="#1a2217" d="M 29.5,46.5 C 29.5,47.1667 29.5,47.8333 29.5,48.5C 27.5591,51.4594 25.5591,54.4594 23.5,57.5C 20.1006,58.2885 16.7672,59.2885 13.5,60.5C 12.8933,60.3764 12.56,60.0431 12.5,59.5C 11.6935,58.2719 10.6935,57.2719 9.5,56.5C 11.675,54.4259 14.3417,53.0926 17.5,52.5C 18.6302,51.3777 19.2969,50.0443 19.5,48.5C 20.8333,48.1667 22.1667,47.8333 23.5,47.5C 23.8656,48.6946 24.699,49.3613 26,49.5C 27.1739,48.4558 28.3406,47.4558 29.5,46.5 Z"/></g>
<g><path style="opacity:1" fill="#0d140b" d="M 50.5,49.5 C 53.8165,51.1373 57.1499,52.8039 60.5,54.5C 62.1667,53.1667 63.8333,53.1667 65.5,54.5C 66.2975,54.0431 66.6309,53.3764 66.5,52.5C 67.494,53.9989 67.494,55.6656 66.5,57.5C 64.6233,57.9003 63.1233,58.9003 62,60.5C 59.0316,58.9217 55.8649,58.255 52.5,58.5C 51.4196,56.0038 50.0862,53.6705 48.5,51.5C 49.8333,51.5 50.5,50.8333 50.5,49.5 Z"/></g>
<g><path style="opacity:1" fill="#252820" d="M 30.5,49.5 C 30.8333,49.5 31.1667,49.5 31.5,49.5C 33.4651,51.6284 35.6318,53.6284 38,55.5C 40.3842,53.727 42.5509,51.727 44.5,49.5C 44.8333,49.5 45.1667,49.5 45.5,49.5C 47.0248,51.2163 48.0248,53.2163 48.5,55.5C 47.1667,56.8333 45.8333,56.8333 44.5,55.5C 44.1541,53.2951 43.4874,53.1284 42.5,55C 42.9891,56.1385 43.3225,57.3052 43.5,58.5C 46.1131,59.9927 48.1131,59.3261 49.5,56.5C 50.1667,57.1667 50.8333,57.8333 51.5,58.5C 50.8288,59.8471 50.8288,61.0138 51.5,62C 50.9056,62.4643 50.2389,62.631 49.5,62.5C 48.0502,63.6576 47.0502,63.1576 46.5,61C 40.4165,59.0728 34.4165,59.2394 28.5,61.5C 28.5,60.8333 28.5,60.1667 28.5,59.5C 27.5041,59.4142 26.6708,59.7476 26,60.5C 25.8333,59.8333 25.6667,59.1667 25.5,58.5C 26.7554,55.2514 28.4221,52.2514 30.5,49.5 Z"/></g>
<g><path style="opacity:1" fill="#252525" d="M 288.5,44.5 C 290.884,46.9176 292.55,49.9176 293.5,53.5C 294.452,50.3046 295.785,47.3046 297.5,44.5C 297.833,45 298.167,45.5 298.5,46C 294.012,59.9598 290.679,59.4598 288.5,44.5 Z"/></g>
<g><path style="opacity:1" fill="#885a22" d="M 44.5,55.5 C 44.7373,56.791 44.404,57.791 43.5,58.5C 43.3225,57.3052 42.9891,56.1385 42.5,55C 43.4874,53.1284 44.1541,53.2951 44.5,55.5 Z"/></g>
<g><path style="opacity:1" fill="#00370e" d="M 28.5,59.5 C 29.1534,58.1932 29.8201,56.8599 30.5,55.5C 34.0826,54.2704 35.2493,55.6038 34,59.5C 32.2245,58.4639 30.3911,58.4639 28.5,59.5 Z"/></g>
<g><path style="opacity:1" fill="#2d2d2d" d="M 177.5,53.5 C 178.552,53.3505 179.552,53.5172 180.5,54C 180.012,56.1761 179.012,58.0094 177.5,59.5C 177.254,57.7805 177.254,55.7805 177.5,53.5 Z"/></g>
<g><path style="opacity:1" fill="#532b12" d="M 29.5,48.5 C 30.1667,48.5 30.5,48.8333 30.5,49.5C 28.4221,52.2514 26.7554,55.2514 25.5,58.5C 25.6667,59.1667 25.8333,59.8333 26,60.5C 26.6708,59.7476 27.5041,59.4142 28.5,59.5C 28.5,60.1667 28.5,60.8333 28.5,61.5C 28.0175,63.8701 26.8508,64.5368 25,63.5C 22.6275,64.3172 22.1275,65.6505 23.5,67.5C 22.1667,67.5 20.8333,67.5 19.5,67.5C 19.5,66.1667 19.5,64.8333 19.5,63.5C 15.6613,65.1672 11.6613,65.6672 7.5,65C 5.90269,62.8123 5.56935,60.6457 6.5,58.5C 8.0747,60.7861 10.0747,61.1194 12.5,59.5C 12.56,60.0431 12.8933,60.3764 13.5,60.5C 16.7672,59.2885 20.1006,58.2885 23.5,57.5C 25.5591,54.4594 27.5591,51.4594 29.5,48.5 Z"/></g>
<g><path style="opacity:1" fill="#434c17" d="M 44.5,55.5 C 45.8333,56.8333 47.1667,56.8333 48.5,55.5C 49.1667,55.5 49.5,55.8333 49.5,56.5C 48.1131,59.3261 46.1131,59.9927 43.5,58.5C 44.404,57.791 44.7373,56.791 44.5,55.5 Z"/></g>
<g><path style="opacity:1" fill="#502f15" d="M 66.5,57.5 C 66.3893,58.1174 66.056,58.6174 65.5,59C 67.1933,59.484 68.5267,58.984 69.5,57.5C 70.5952,60.0966 70.2618,62.5966 68.5,65C 64.2625,65.8037 60.2625,65.3037 56.5,63.5C 56.5,64.8333 56.5,66.1667 56.5,67.5C 54.0504,67.702 51.717,67.3686 49.5,66.5C 50.8333,65.1667 50.8333,63.8333 49.5,62.5C 50.2389,62.631 50.9056,62.4643 51.5,62C 50.8288,61.0138 50.8288,59.8471 51.5,58.5C 51.8333,58.5 52.1667,58.5 52.5,58.5C 55.8649,58.255 59.0316,58.9217 62,60.5C 63.1233,58.9003 64.6233,57.9003 66.5,57.5 Z"/></g>
<g><path style="opacity:1" fill="#5c473a" d="M 49.5,62.5 C 50.8333,63.8333 50.8333,65.1667 49.5,66.5C 47.4471,66.5979 45.7804,65.9313 44.5,64.5C 41.6404,63.7561 38.6404,63.0894 35.5,62.5C 33.6639,63.0276 31.9972,63.6942 30.5,64.5C 28.351,65.7362 26.0177,66.7362 23.5,67.5C 22.1275,65.6505 22.6275,64.3172 25,63.5C 26.8508,64.5368 28.0175,63.8701 28.5,61.5C 34.4165,59.2394 40.4165,59.0728 46.5,61C 47.0502,63.1576 48.0502,63.6576 49.5,62.5 Z"/></g>
<g><path style="opacity:1" fill="#141414" d="M 171.5,60.5 C 169.636,61.7928 167.636,61.7928 165.5,60.5C 167.22,60.2537 169.22,60.2537 171.5,60.5 Z"/></g>
<g><path style="opacity:1" fill="#270804" d="M 44.5,64.5 C 39.8333,64.5 35.1667,64.5 30.5,64.5C 31.9972,63.6942 33.6639,63.0276 35.5,62.5C 38.6404,63.0894 41.6404,63.7561 44.5,64.5 Z"/></g>
</svg>
