<?xml version="1.0" standalone="no"?>
<!DOCTYPE svg PUBLIC "-//W3C//DTD SVG 20010904//EN"
 "http://www.w3.org/TR/2001/REC-SVG-20010904/DTD/svg10.dtd">
<svg version="1.0" xmlns="http://www.w3.org/2000/svg"
 width="600.000000pt" height="72.000000pt" viewBox="0 0 600.000000 72.000000"
 preserveAspectRatio="xMidYMid meet">

<g transform="translate(0.000000,72.000000) scale(0.100000,-0.100000)"
fill="#000000" stroke="none">
<path d="M557 655 c-28 -35 -87 -137 -87 -150 0 -4 7 -2 15 5 8 6 19 9 25 5 7
-4 9 2 5 18 -5 17 -2 28 9 34 12 7 72 123 63 123 -1 0 -14 -16 -30 -35z"/>
<path d="M190 666 c0 -15 43 -91 56 -99 18 -10 18 -31 -1 -70 -14 -29 -14 -30
0 -13 14 19 15 18 15 -12 l0 -32 -37 21 c-48 26 -73 57 -72 89 1 18 3 20 6 7
3 -12 10 -16 20 -13 13 5 14 4 4 -8 -13 -15 -7 -36 8 -36 20 0 7 54 -18 76
-25 21 -27 21 -53 6 -16 -9 -28 -24 -28 -34 0 -9 -5 -20 -10 -23 -6 -4 -7 -11
-4 -17 4 -6 8 -24 9 -40 2 -15 8 -35 15 -42 6 -8 15 -27 18 -41 l8 -27 19 24
c19 22 19 22 1 8 -18 -14 -19 -13 -13 2 3 10 2 20 -3 23 -16 10 -11 20 19 38
29 17 30 17 49 -8 11 -14 27 -25 37 -25 23 0 55 -18 55 -31 0 -6 -6 -9 -14 -6
-11 5 -12 0 -3 -23 15 -38 -1 -84 -29 -88 -16 -2 -23 4 -28 22 -3 15 -12 26
-18 26 -9 0 -9 -3 0 -12 7 -7 12 -20 12 -30 0 -13 8 -18 29 -18 16 0 31 -6 34
-15 9 -22 -14 -31 -29 -11 -7 10 -15 13 -18 7 -4 -6 -14 -7 -23 -4 -11 4 -14
3 -9 -6 10 -16 -21 -51 -45 -51 -10 0 -26 -10 -36 -23 -10 -13 -24 -22 -31
-19 -18 6 -24 -21 -12 -53 10 -25 14 -27 53 -22 23 2 49 8 58 11 11 5 18 1 22
-13 6 -25 25 -26 91 -6 27 8 70 15 96 15 26 0 69 -7 96 -15 68 -20 84 -19 84
6 0 16 4 19 17 15 9 -4 36 -10 60 -13 38 -5 43 -3 54 20 14 30 5 61 -15 54
-10 -4 -12 0 -9 14 3 10 9 19 14 19 19 0 7 36 -17 54 -26 18 -26 18 -15 -2 8
-15 8 -22 -2 -25 -9 -4 -9 -6 1 -6 6 -1 12 -5 12 -10 0 -16 -92 -3 -114 17
-11 10 -29 22 -38 25 -25 9 -23 37 3 37 21 0 21 0 -2 19 -15 12 -28 16 -33 10
-13 -12 -193 -12 -201 1 -4 6 31 10 97 10 l103 0 11 44 c8 35 7 43 -3 39 -7
-3 -13 -1 -13 4 0 11 44 33 65 33 8 0 19 9 25 20 12 23 37 25 64 5 15 -11 17
-17 7 -29 -7 -9 -8 -17 -2 -20 14 -9 54 61 48 84 -3 10 -1 20 5 22 5 2 2 20
-7 41 -22 54 -84 74 -70 24 4 -15 3 -18 -3 -9 -10 15 -42 5 -42 -13 0 -7 6
-16 13 -18 9 -4 9 -6 0 -6 -18 -1 -16 -21 2 -21 18 0 20 21 3 38 -13 13 0 16
19 4 22 -14 2 -49 -37 -68 -21 -10 -36 -23 -33 -28 4 -5 1 -6 -5 -2 -6 3 -16
-2 -21 -11 -10 -17 -12 -17 -21 0 -16 25 -194 26 -209 0 -15 -27 -21 -12 -12
29 6 25 5 38 -3 41 -6 2 -8 8 -4 12 12 13 40 -17 35 -37 -5 -16 3 -18 89 -18
52 0 94 3 94 7 0 11 -59 99 -79 117 -18 16 -20 15 -42 -11 -13 -16 -31 -39
-40 -52 -15 -24 -15 -24 -48 41 -28 57 -81 125 -81 104z m450 -160 c0 -3 -4
-8 -10 -11 -5 -3 -10 -1 -10 4 0 6 5 11 10 11 6 0 10 -2 10 -4z m37 -42 c-3
-3 -12 -4 -19 -1 -8 3 -5 6 6 6 11 1 17 -2 13 -5z m-293 -33 c3 -5 15 -7 25
-4 13 3 23 -2 31 -17 10 -18 9 -25 -5 -39 -17 -15 -17 -15 -12 2 4 10 3 16 -3
12 -5 -3 -15 3 -22 15 -11 17 -38 29 -38 16 0 -14 29 -67 30 -53 0 20 20 24
20 3 0 -17 -27 -29 -35 -15 -4 5 -11 6 -17 3 -7 -4 -8 -2 -4 4 3 6 0 17 -7 24
-12 11 -12 16 0 35 16 24 28 29 37 14z m-54 -15 c0 -11 -19 -15 -25 -6 -3 5 1
10 9 10 9 0 16 -2 16 -4z m-10 -186 l23 -35 -30 30 c-16 17 -27 34 -25 38 2 5
5 7 6 5 1 -2 13 -19 26 -38z m146 8 c-9 -12 -16 -19 -16 -15 0 11 24 47 28 42
2 -2 -3 -14 -12 -27z"/>
<path d="M916 588 c-3 -17 -6 -58 -6 -91 0 -82 18 -63 22 23 l3 65 18 -55 c32
-102 40 -103 74 -7 20 58 22 60 22 27 2 -54 13 -110 22 -110 12 0 -2 164 -15
172 -14 9 -13 11 -40 -66 -26 -75 -23 -76 -57 26 -16 48 -35 55 -43 16z"/>
<path d="M1115 609 c-10 -15 3 -25 16 -12 7 7 7 13 1 17 -6 3 -14 1 -17 -5z"/>
<path d="M1316 612 c-3 -6 -1 -14 5 -17 15 -10 25 3 12 16 -7 7 -13 7 -17 1z"/>
<path d="M1972 608 c-7 -7 -12 -17 -12 -24 0 -7 -6 -15 -12 -18 -10 -5 -10 -7
0 -12 7 -3 12 -26 12 -60 0 -30 5 -54 10 -54 6 0 10 25 10 55 0 42 3 55 15 55
8 0 15 5 15 10 0 6 -7 10 -15 10 -23 0 -18 26 8 38 21 10 21 11 2 11 -12 1
-26 -4 -33 -11z"/>
<path d="M3197 613 c-11 -10 -8 -161 3 -168 6 -4 10 27 10 84 0 91 -1 97 -13
84z"/>
<path d="M3412 608 c-7 -7 -12 -17 -12 -24 0 -7 -6 -15 -12 -18 -10 -5 -10 -7
0 -12 7 -3 12 -26 12 -60 0 -34 4 -53 10 -49 6 3 10 28 10 56 0 37 4 49 15 49
8 0 15 5 15 10 0 6 -7 10 -15 10 -23 0 -18 30 8 40 21 8 21 9 2 9 -12 1 -26
-4 -33 -11z"/>
<path d="M2075 601 c30 -6 30 -6 33 -84 4 -99 22 -93 22 8 0 73 0 74 28 78 15
2 -4 4 -43 4 -44 1 -59 -2 -40 -6z"/>
<path d="M1475 590 c-3 -5 -3 -10 2 -10 4 0 1 -5 -7 -10 -12 -7 -12 -12 -2
-22 6 -6 12 -31 12 -54 0 -43 22 -66 44 -44 7 7 5 10 -7 10 -13 0 -17 9 -17
45 0 33 4 45 15 45 8 0 15 5 15 10 0 6 -7 10 -15 10 -8 0 -15 7 -15 15 0 17
-16 20 -25 5z"/>
<path d="M3009 593 c-1 -5 -1 -11 0 -15 0 -5 -10 -8 -23 -8 -14 0 -28 -5 -31
-10 -5 -8 -11 -7 -21 1 -12 10 -14 1 -14 -55 0 -37 4 -66 10 -66 6 0 10 19 10
43 0 46 13 67 42 67 14 0 18 -8 18 -39 0 -51 37 -91 55 -61 3 6 -1 10 -9 10
-12 0 -16 11 -16 45 0 33 4 45 15 45 8 0 15 5 15 10 0 6 -7 10 -15 10 -8 0
-15 7 -15 15 0 15 -19 22 -21 8z"/>
<path d="M3780 586 c0 -8 -6 -17 -12 -20 -10 -5 -10 -7 0 -12 7 -3 12 -25 12
-54 0 -49 21 -73 44 -50 7 7 5 10 -7 10 -13 0 -17 9 -17 45 0 33 4 45 15 45 8
0 15 5 15 10 0 6 -7 10 -15 10 -8 0 -15 7 -15 15 0 8 -4 15 -10 15 -5 0 -10
-6 -10 -14z"/>
<path d="M4200 586 c0 -8 -6 -17 -12 -20 -10 -5 -10 -7 0 -12 7 -3 12 -25 12
-54 0 -49 21 -73 44 -50 7 7 5 10 -7 10 -13 0 -17 9 -17 45 0 33 4 45 15 45 8
0 15 5 15 10 0 6 -7 10 -15 10 -8 0 -15 7 -15 15 0 8 -4 15 -10 15 -5 0 -10
-6 -10 -14z"/>
<path d="M1115 558 c-9 -24 -1 -113 10 -111 14 4 19 103 6 116 -7 7 -12 5 -16
-5z"/>
<path d="M1180 506 c0 -37 4 -66 10 -66 6 0 10 22 10 49 0 36 4 51 16 55 27
10 44 -13 44 -61 0 -27 4 -42 10 -38 16 10 12 92 -6 109 -18 18 -40 21 -49 6
-5 -8 -11 -7 -21 1 -12 10 -14 1 -14 -55z"/>
<path d="M1320 505 c0 -37 4 -65 10 -65 6 0 10 28 10 65 0 37 -4 65 -10 65 -6
0 -10 -28 -10 -65z"/>
<path d="M1382 558 c-19 -19 -14 -35 18 -58 34 -24 30 -44 -6 -37 -26 5 -33
-7 -10 -16 50 -20 80 43 31 65 -33 15 -32 38 1 38 14 0 23 4 19 10 -8 14 -38
13 -53 -2z"/>
<path d="M1560 507 c0 -38 4 -67 10 -67 6 0 10 20 10 44 0 35 5 48 22 60 12 9
19 19 15 22 -4 4 -13 2 -20 -4 -10 -9 -17 -8 -25 0 -9 9 -12 -4 -12 -55z"/>
<path d="M1640 560 c0 -5 9 -33 20 -61 l21 -52 -23 -24 c-22 -24 -22 -25 -3
-22 29 6 105 169 78 169 -5 0 -16 -21 -24 -47 l-15 -48 -22 48 c-20 44 -32 59
-32 37z"/>
<path d="M1830 550 c-41 -41 -16 -103 40 -103 58 0 84 75 38 107 -30 21 -54
20 -78 -4z m68 -12 c7 -7 12 -21 12 -33 0 -46 -53 -62 -71 -21 -21 45 26 87
59 54z"/>
<path d="M2190 507 c0 -38 4 -67 10 -67 6 0 10 20 10 44 0 35 5 48 22 60 12 9
19 19 15 22 -4 4 -13 2 -20 -4 -10 -9 -17 -8 -25 0 -9 9 -12 -4 -12 -55z"/>
<path d="M2280 560 c-11 -7 -8 -10 16 -10 19 0 34 -6 38 -15 3 -10 -1 -15 -12
-15 -24 0 -62 -28 -62 -45 0 -22 36 -38 58 -26 13 7 23 6 30 -1 9 -9 12 0 12
38 0 69 -36 102 -80 74z m58 -72 c-7 -21 -36 -34 -49 -21 -6 6 -8 16 -5 22 10
15 59 14 54 -1z"/>
<path d="M2390 511 c0 -33 5 -63 10 -66 6 -4 10 11 10 38 0 47 19 74 45 63 11
-4 15 -20 15 -56 0 -27 5 -50 10 -50 6 0 10 25 10 55 0 44 -4 56 -20 65 -14 8
-26 8 -40 0 -14 -7 -20 -7 -20 0 0 5 -4 10 -10 10 -6 0 -10 -26 -10 -59z"/>
<path d="M2542 558 c-19 -19 -14 -44 13 -56 37 -17 32 -42 -7 -42 -29 -1 -31
-2 -14 -11 13 -8 25 -8 42 0 32 14 31 48 -1 63 -33 15 -32 38 1 38 14 0 23 4
19 10 -8 14 -38 13 -53 -2z"/>
<path d="M2640 486 c0 -51 4 -86 10 -86 6 0 10 14 10 30 0 28 2 30 21 20 32
-18 69 11 69 54 0 48 -55 89 -75 56 -5 -8 -11 -7 -21 1 -12 10 -14 -2 -14 -75z
m80 50 c26 -32 -7 -87 -44 -73 -19 8 -22 73 -3 80 22 9 34 7 47 -7z"/>
<path d="M2792 554 c-43 -30 -18 -114 34 -114 25 0 57 37 57 65 0 18 -9 36
-23 47 -27 22 -39 22 -68 2z m66 -40 c3 -34 -18 -60 -43 -50 -21 8 -28 31 -21
62 5 20 12 25 34 22 22 -2 28 -9 30 -34z"/>
<path d="M3261 506 c-1 -77 16 -82 21 -6 2 37 6 45 23 45 17 0 21 -8 25 -48 6
-59 25 -58 24 1 0 55 -23 80 -58 64 -19 -8 -26 -8 -30 1 -2 7 -5 -19 -5 -57z"/>
<path d="M3477 564 c-11 -11 -8 -112 3 -119 6 -4 10 10 10 34 0 28 7 48 20 61
25 25 26 34 1 20 -13 -7 -20 -7 -23 1 -2 6 -7 7 -11 3z"/>
<path d="M3563 563 c-22 -8 -14 -20 10 -16 13 3 29 -2 35 -10 11 -12 7 -16
-23 -21 -65 -13 -58 -71 9 -71 l36 0 0 52 c0 41 -4 54 -19 63 -21 11 -29 11
-48 3z m57 -71 c0 -14 -23 -32 -42 -32 -18 0 -25 20 -11 33 9 10 53 9 53 -1z"/>
<path d="M3688 559 c-26 -15 -22 -35 12 -59 34 -24 30 -44 -6 -37 -26 5 -33
-7 -10 -16 21 -8 54 3 61 20 6 18 -21 53 -42 53 -23 0 -9 25 15 28 12 2 20 8
17 13 -8 12 -25 11 -47 -2z"/>
<path d="M3860 507 c0 -38 4 -67 10 -67 6 0 10 20 10 44 0 35 5 48 22 60 12 9
19 19 15 22 -4 4 -13 2 -20 -4 -10 -9 -17 -8 -25 0 -9 9 -12 -4 -12 -55z"/>
<path d="M3948 564 c-15 -15 -8 -82 11 -105 17 -20 23 -22 39 -12 14 9 22 9
31 0 8 -8 11 6 11 56 0 38 -4 67 -10 67 -5 0 -10 -23 -10 -50 0 -86 -56 -79
-62 7 -2 25 -6 41 -10 37z"/>
<path d="M4085 545 c-14 -13 -25 -31 -25 -40 0 -19 44 -65 62 -65 7 0 20 5 28
10 12 8 10 10 -10 10 -37 0 -52 14 -52 45 0 30 16 45 50 45 13 0 20 4 17 10
-11 18 -45 11 -70 -15z"/>
<path d="M4280 521 c0 -32 6 -55 16 -65 18 -18 23 -19 44 -6 9 5 19 5 27 -2
10 -8 13 3 13 56 0 75 -17 90 -22 20 -2 -32 -9 -51 -21 -58 -24 -15 -37 6 -37
62 0 23 -4 42 -10 42 -5 0 -10 -22 -10 -49z"/>
<path d="M4420 505 c0 -37 4 -65 10 -65 6 0 10 20 10 44 0 35 5 48 22 60 12 9
19 19 15 22 -4 4 -13 1 -22 -6 -10 -8 -15 -9 -15 -1 0 6 -4 11 -10 11 -6 0
-10 -28 -10 -65z"/>
<path d="M4512 554 c-32 -22 -30 -78 3 -100 18 -12 33 -14 52 -8 27 8 27 8 -9
12 -25 2 -42 10 -48 23 -10 18 -7 19 40 19 49 0 51 1 45 23 -7 24 -32 47 -50
47 -6 0 -21 -7 -33 -16z m57 -17 c14 -18 4 -27 -31 -27 -26 0 -37 17 -21 33
11 12 40 8 52 -6z"/>
<path d="M500 474 c0 -14 4 -23 9 -20 5 3 7 15 4 26 -7 28 -13 25 -13 -6z"/>
<path d="M526 487 c3 -10 9 -15 12 -12 3 3 0 11 -7 18 -10 9 -11 8 -5 -6z"/>
<path d="M3085 465 c-3 -8 -7 -22 -10 -30 -9 -29 13 -15 24 15 6 19 6 30 0 30
-5 0 -12 -7 -14 -15z"/>
<path d="M30 440 c0 -11 11 -27 25 -36 29 -19 31 -40 9 -88 -23 -46 -13 -66
31 -66 19 0 35 -4 35 -10 0 -5 8 -10 17 -10 14 0 12 4 -7 17 -14 9 -28 21 -31
26 -4 5 -9 4 -13 -2 -4 -6 -13 -11 -21 -11 -15 0 -11 48 6 64 14 15 11 63 -6
95 -18 36 -45 48 -45 21z"/>
<path d="M711 439 c-30 -32 -38 -85 -17 -119 9 -16 16 -35 16 -44 0 -19 -26
-22 -33 -3 -4 8 -8 9 -14 1 -4 -5 -19 -18 -33 -27 -19 -13 -21 -17 -7 -17 9 0
17 4 17 9 0 6 17 11 38 13 30 2 38 7 40 25 2 13 -4 33 -12 45 -23 32 -20 69 4
75 19 5 39 48 27 59 -3 3 -14 -5 -26 -17z m14 -19 c-3 -5 -11 -10 -16 -10 -6
0 -7 5 -4 10 3 6 11 10 16 10 6 0 7 -4 4 -10z"/>
<path d="M152 433 c-10 -4 -9 -9 4 -24 16 -18 16 -20 -6 -44 -13 -14 -18 -25
-12 -25 6 0 18 10 26 22 9 12 19 19 22 15 10 -10 -45 -89 -56 -82 -6 4 -10 0
-10 -8 0 -17 23 -29 58 -31 22 -2 22 -1 5 12 -10 7 -17 20 -15 28 5 24 52 89
70 95 12 4 7 8 -18 14 -19 4 -39 13 -45 20 -5 7 -16 11 -23 8z"/>
<path d="M599 432 c-1 -4 -1 -10 -1 -13 1 -4 -18 -10 -41 -14 -28 -5 -37 -9
-25 -13 18 -8 62 -68 72 -100 5 -14 1 -21 -14 -25 -26 -7 -38 17 -20 38 8 10
9 15 1 15 -15 0 -27 -53 -13 -58 22 -7 12 -24 -10 -19 -22 6 -22 5 -4 -8 21
-16 36 -11 36 11 0 9 8 14 18 13 26 -3 52 11 51 30 0 11 -2 12 -6 3 -3 -9 -15
1 -33 29 -23 34 -26 45 -17 60 11 18 12 17 34 -3 12 -11 24 -32 26 -47 l4 -26
2 28 c0 18 -7 34 -24 49 -18 15 -22 25 -15 33 8 9 6 14 -5 19 -8 3 -16 2 -16
-2z"/>
<path d="M600 376 c0 -11 30 -39 36 -34 2 3 -5 13 -16 23 -11 10 -20 15 -20
11z"/>
<path d="M112 330 c0 -14 2 -19 5 -12 2 6 2 18 0 25 -3 6 -5 1 -5 -13z"/>
<path d="M910 235 c0 -50 4 -85 10 -85 6 0 10 16 10 35 0 35 0 35 45 35 45 0
45 0 45 -35 0 -19 5 -35 10 -35 6 0 10 35 10 85 0 50 -4 85 -10 85 -5 0 -10
-18 -10 -40 l0 -40 -45 0 -45 0 0 40 c0 22 -4 40 -10 40 -6 0 -10 -35 -10 -85z"/>
<path d="M1450 305 c0 -8 5 -15 10 -15 6 0 10 7 10 15 0 8 -4 15 -10 15 -5 0
-10 -7 -10 -15z"/>
<path d="M1892 250 c6 -81 18 -100 63 -100 49 0 65 25 65 103 0 38 -4 67 -10
67 -6 0 -10 -28 -10 -64 0 -45 -5 -69 -16 -80 -39 -40 -74 1 -74 86 0 37 -4
58 -11 58 -8 0 -10 -21 -7 -70z"/>
<path d="M2150 238 l0 -83 44 -3 c36 -2 47 1 55 17 32 58 -24 132 -67 89 -9
-9 -12 -4 -12 25 0 20 -4 37 -10 37 -6 0 -10 -34 -10 -82z m86 -13 c8 -30 0
-53 -21 -61 -22 -9 -45 14 -45 46 0 33 7 40 36 40 17 0 25 -7 30 -25z"/>
<path d="M2608 314 c-5 -4 -8 -43 -8 -86 l0 -78 48 0 c61 0 92 28 92 82 0 51
-26 79 -80 85 -25 3 -48 1 -52 -3z m94 -31 c43 -39 7 -123 -54 -123 l-28 0 0
70 0 70 32 0 c17 0 40 -7 50 -17z"/>
<path d="M3140 235 c0 -50 4 -85 10 -85 6 0 10 35 10 85 0 50 -4 85 -10 85 -6
0 -10 -35 -10 -85z"/>
<path d="M4450 290 c0 -27 -2 -29 -29 -24 -54 11 -94 -61 -55 -100 10 -11 31
-16 60 -14 l44 1 0 84 c0 49 -4 83 -10 83 -5 0 -10 -13 -10 -30z m-6 -56 c17
-43 -6 -81 -43 -69 -44 14 -32 85 13 85 13 0 27 -7 30 -16z"/>
<path d="M4560 235 c0 -50 4 -85 10 -85 6 0 10 16 10 35 0 32 2 35 29 35 27 0
61 29 61 52 0 21 -43 48 -75 48 l-35 0 0 -85z m78 36 c4 -25 -12 -41 -40 -41
-14 0 -18 8 -18 36 0 33 2 35 28 32 20 -2 28 -9 30 -27z"/>
<path d="M4830 237 l0 -84 45 -1 c48 -2 65 14 65 61 0 43 -51 72 -78 45 -9 -9
-12 -4 -12 25 0 20 -4 37 -10 37 -6 0 -10 -34 -10 -83z m86 -12 c8 -30 0 -53
-21 -61 -22 -9 -45 14 -45 46 0 33 7 40 36 40 17 0 25 -7 30 -25z"/>
<path d="M4970 235 c0 -69 3 -85 15 -85 12 0 15 16 15 85 0 69 -3 85 -15 85
-12 0 -15 -16 -15 -85z"/>
<path d="M5030 305 c0 -8 5 -15 10 -15 6 0 10 7 10 15 0 8 -4 15 -10 15 -5 0
-10 -7 -10 -15z"/>
<path d="M5234 304 c3 -11 13 -49 22 -86 10 -40 22 -68 29 -68 7 0 18 23 25
53 20 83 26 85 40 13 8 -40 19 -66 26 -66 8 0 22 31 34 73 12 39 23 78 26 85
2 8 -1 12 -8 10 -7 -3 -20 -32 -28 -66 -17 -65 -30 -89 -30 -54 0 39 -23 122
-35 122 -6 0 -19 -33 -30 -72 l-19 -73 -15 69 c-9 38 -22 71 -30 74 -9 3 -11
-2 -7 -14z"/>
<path d="M5680 235 c0 -50 4 -85 10 -85 6 0 10 11 10 25 0 14 3 25 6 25 3 0
15 -11 26 -25 24 -31 47 -33 24 -2 -28 39 -29 47 -6 73 16 16 19 24 10 24 -8
0 -24 -12 -37 -27 l-22 -28 -1 53 c0 28 -4 52 -10 52 -6 0 -10 -35 -10 -85z"/>
<path d="M3970 286 c0 -8 -6 -17 -12 -20 -10 -5 -10 -7 0 -12 7 -3 12 -25 12
-55 0 -47 1 -49 28 -49 23 1 24 2 10 11 -23 13 -26 89 -3 89 8 0 15 5 15 10 0
6 -7 10 -15 10 -8 0 -15 7 -15 15 0 8 -4 15 -10 15 -5 0 -10 -6 -10 -14z"/>
<path d="M1080 250 c-40 -40 -16 -100 39 -100 54 0 82 68 43 103 -25 23 -58
21 -82 -3z m70 -15 c17 -21 4 -62 -22 -71 -36 -11 -64 46 -36 74 16 16 43 15
58 -3z"/>
<path d="M1210 236 c0 -19 4 -46 10 -61 8 -22 15 -25 50 -23 l40 3 0 58 c0 31
-4 57 -10 57 -5 0 -10 -20 -10 -44 0 -54 -24 -81 -46 -51 -8 10 -14 36 -14 57
0 21 -4 38 -10 38 -5 0 -10 -15 -10 -34z"/>
<path d="M1362 258 c-19 -19 -14 -35 15 -56 29 -21 24 -47 -8 -39 -11 3 -19 1
-19 -5 0 -5 15 -8 33 -6 27 2 32 7 32 28 0 16 -8 28 -22 35 -31 13 -29 35 3
35 14 0 23 4 19 10 -8 14 -38 13 -53 -2z"/>
<path d="M1450 210 c0 -33 4 -60 10 -60 6 0 10 27 10 60 0 33 -4 60 -10 60 -6
0 -10 -27 -10 -60z"/>
<path d="M1510 210 c0 -46 3 -60 14 -60 11 0 16 14 18 48 3 39 6 47 23 47 17
0 20 -8 23 -47 2 -30 8 -48 15 -48 9 0 11 15 7 51 -6 60 -27 82 -60 61 -12 -7
-20 -8 -20 -2 0 5 -4 10 -10 10 -6 0 -10 -27 -10 -60z"/>
<path d="M1660 250 c-24 -24 -25 -48 -4 -79 12 -17 24 -22 45 -19 18 3 29 0
29 -8 0 -19 -28 -36 -50 -29 -12 4 -20 2 -20 -5 0 -7 14 -10 37 -8 28 2 41 9
50 28 15 30 17 140 3 140 -5 0 -10 -5 -10 -12 0 -9 -3 -9 -12 0 -18 18 -45 15
-68 -8z m68 -39 c4 -40 -8 -55 -36 -47 -42 14 -32 90 11 84 17 -2 23 -11 25
-37z"/>
<path d="M2060 210 c0 -33 4 -60 10 -60 6 0 10 16 10 35 0 22 8 43 21 56 23
23 18 39 -6 19 -10 -8 -15 -9 -15 -1 0 6 -4 11 -10 11 -6 0 -10 -27 -10 -60z"/>
<path d="M2291 261 c-11 -7 -6 -10 19 -13 44 -4 48 -21 8 -33 -26 -8 -33 -15
-33 -35 0 -23 4 -25 43 -26 l42 -2 0 47 c0 26 -5 52 -12 59 -14 14 -47 15 -67
3z m59 -70 c0 -17 -18 -31 -41 -31 -17 0 -9 38 9 43 30 8 32 7 32 -12z"/>
<path d="M2411 213 c-1 -73 16 -86 21 -16 2 37 7 49 22 51 24 5 36 -14 36 -60
0 -21 5 -38 10 -38 11 0 13 52 4 88 -7 26 -48 40 -68 23 -11 -9 -15 -9 -19 1
-3 7 -6 -15 -6 -49z"/>
<path d="M2776 248 c-19 -26 -20 -51 -6 -79 8 -14 21 -19 50 -19 22 0 40 4 40
9 0 4 -11 6 -25 3 -25 -4 -55 12 -55 29 0 5 20 9 45 9 37 0 45 3 45 18 0 24
-31 52 -58 52 -11 0 -28 -10 -36 -22z m74 -18 c0 -6 -16 -10 -35 -10 -38 0
-46 13 -18 29 19 10 53 -2 53 -19z"/>
<path d="M2903 210 c14 -38 27 -59 36 -58 7 2 22 26 32 53 22 57 23 65 9 65
-5 0 -15 -20 -21 -45 -6 -25 -15 -45 -19 -45 -4 0 -13 20 -20 45 -7 25 -18 45
-26 45 -9 0 -7 -15 9 -60z"/>
<path d="M3025 250 c-20 -23 -23 -63 -5 -85 8 -9 28 -15 54 -14 l41 1 -39 8
c-21 4 -42 13 -47 21 -7 11 1 15 36 17 39 3 45 6 45 26 0 46 -52 62 -85 26z
m69 -15 c4 -12 -3 -15 -29 -15 -33 0 -43 8 -28 23 12 13 51 7 57 -8z"/>
<path d="M3219 260 c-25 -15 -32 -58 -14 -86 20 -31 79 -34 95 -5 33 63 -23
125 -81 91z m69 -46 c5 -52 -43 -72 -66 -27 -6 11 -6 27 -1 41 7 18 15 23 36
20 23 -2 29 -9 31 -34z"/>
<path d="M3340 185 c0 -50 4 -85 10 -85 6 0 10 13 10 28 0 26 3 28 30 24 39
-6 60 13 60 54 0 36 -22 64 -50 64 -31 0 -33 -18 -3 -22 23 -2 29 -8 31 -34 2
-19 -3 -36 -13 -44 -25 -20 -50 0 -51 41 -2 54 -3 59 -14 59 -6 0 -10 -35 -10
-85z"/>
<path d="M3490 208 c0 -69 18 -78 22 -10 3 40 6 47 26 50 20 3 22 0 22 -47 0
-28 5 -51 10 -51 6 0 10 15 10 34 0 47 9 66 30 66 21 0 30 -19 30 -66 0 -19 5
-34 10 -34 11 0 13 52 4 87 -7 27 -40 39 -59 23 -10 -8 -19 -9 -27 -3 -7 6
-28 10 -45 10 l-33 0 0 -59z"/>
<path d="M3707 252 c-20 -22 -22 -73 -5 -90 7 -7 30 -11 53 -11 l40 1 -39 8
c-21 4 -42 13 -47 21 -7 11 2 15 42 17 46 3 50 5 43 25 -15 50 -56 63 -87 29z
m67 -18 c4 -10 -3 -14 -29 -14 -37 0 -46 13 -18 28 20 12 39 6 47 -14z"/>
<path d="M3820 210 c0 -33 4 -60 10 -60 6 0 10 17 10 39 0 41 20 67 45 57 10
-4 15 -19 15 -51 0 -25 5 -45 11 -45 6 0 9 20 7 51 -3 60 -24 82 -58 61 -12
-7 -20 -8 -20 -2 0 5 -4 10 -10 10 -6 0 -10 -27 -10 -60z"/>
<path d="M4105 260 c-4 -6 7 -10 24 -10 41 0 40 -23 -1 -35 -26 -8 -33 -15
-33 -35 0 -23 4 -25 43 -26 l42 -2 0 47 c0 26 -5 52 -12 59 -15 15 -54 16 -63
2z m55 -69 c0 -20 -25 -35 -41 -25 -15 9 -10 32 9 37 30 8 32 7 32 -12z"/>
<path d="M4220 210 c0 -33 4 -60 10 -60 6 0 10 17 10 39 0 41 20 67 45 57 10
-4 15 -19 15 -51 0 -25 5 -45 11 -45 6 0 9 20 7 51 -3 60 -24 82 -58 61 -12
-7 -20 -8 -20 -2 0 5 -4 10 -10 10 -6 0 -10 -27 -10 -60z"/>
<path d="M4692 213 l3 -58 48 -1 47 -1 0 59 c0 32 -4 58 -10 58 -5 0 -10 -17
-10 -38 0 -47 -19 -76 -43 -66 -13 5 -17 18 -17 55 0 28 -5 49 -10 49 -7 0
-10 -22 -8 -57z"/>
<path d="M5030 210 c0 -33 4 -60 10 -60 6 0 10 27 10 60 0 33 -4 60 -10 60 -6
0 -10 -27 -10 -60z"/>
<path d="M5100 250 c-41 -41 -13 -101 46 -99 l29 1 -32 9 c-17 5 -35 18 -38
29 -9 29 12 60 40 60 14 0 25 5 25 10 0 18 -49 11 -70 -10z"/>
<path d="M5460 250 c-40 -40 -16 -100 39 -100 52 0 77 53 45 98 -19 28 -57 29
-84 2z m70 -20 c14 -27 4 -57 -21 -65 -25 -8 -49 11 -49 39 0 45 50 63 70 26z"/>
<path d="M5590 210 c0 -33 4 -60 10 -60 6 0 10 18 10 39 0 30 6 44 22 55 12 9
19 19 15 22 -4 4 -13 1 -22 -6 -10 -8 -15 -9 -15 -1 0 6 -4 11 -10 11 -6 0
-10 -27 -10 -60z"/>
<path d="M5800 255 c-17 -20 -6 -43 26 -55 32 -13 26 -35 -9 -35 -15 1 -27 -3
-27 -7 0 -14 57 -9 69 6 15 18 5 41 -25 54 -31 15 -31 32 1 32 14 0 25 5 25
10 0 16 -46 12 -60 -5z"/>
<path d="M88 219 c-22 -23 -22 -33 -3 -49 12 -10 15 -10 15 1 0 8 14 20 31 28
16 7 28 16 24 19 -3 3 -11 0 -17 -6 -7 -7 -18 -12 -25 -12 -11 0 -11 5 -3 20
13 25 1 25 -22 -1z"/>
<path d="M610 216 c0 -2 7 -7 16 -10 8 -3 12 -2 9 4 -6 10 -25 14 -25 6z"/>
<path d="M1785 165 c-3 -8 -7 -22 -10 -30 -8 -25 11 -17 23 10 15 32 15 35 2
35 -6 0 -13 -7 -15 -15z"/>
</g>
</svg>
