<?xml version="1.0" standalone="no"?>
<!DOCTYPE svg PUBLIC "-//W3C//DTD SVG 20010904//EN"
 "http://www.w3.org/TR/2001/REC-SVG-20010904/DTD/svg10.dtd">
<svg version="1.0" xmlns="http://www.w3.org/2000/svg"
 width="1004.000000pt" height="590.000000pt" viewBox="0 0 1004.000000 590.000000"
 preserveAspectRatio="xMidYMid meet">

<g transform="translate(0.000000,590.000000) scale(0.100000,-0.100000)"
fill="#000000" stroke="none">
<path d="M0 2950 l0 -2950 5015 0 5015 0 0 2950 0 2950 -5015 0 -5015 0 0
-2950z m5165 1640 c13 -6 -14 -9 -79 -9 -118 -1 -125 -9 -11 -12 83 -2 219
-18 212 -25 -2 -3 -56 0 -119 6 -274 24 -579 -33 -834 -155 -206 -99 -387
-244 -536 -428 -175 -219 -266 -401 -329 -662 -30 -128 -21 -121 16 11 19 67
46 150 60 185 52 122 146 298 207 384 132 186 367 387 563 484 102 50 253 106
261 98 3 -3 -26 -17 -63 -31 -37 -15 -73 -33 -78 -39 -6 -7 -46 -30 -89 -52
-130 -66 -251 -151 -344 -242 -94 -92 -93 -94 7 -14 62 48 97 67 72 38 -6 -8
-7 -18 -3 -22 4 -5 1 -5 -6 -1 -19 11 -180 -156 -265 -274 -37 -52 -92 -144
-122 -205 -58 -119 -120 -289 -110 -306 4 -5 2 -16 -4 -23 -17 -20 -38 -144
-40 -236 -1 -46 -6 -87 -11 -90 -14 -9 6 -272 30 -389 34 -163 103 -329 211
-507 27 -44 64 -96 82 -115 17 -19 50 -56 71 -82 22 -27 80 -83 130 -125 243
-203 496 -315 809 -358 113 -15 147 -16 275 -6 234 19 392 62 587 158 276 136
518 368 673 644 74 131 161 401 177 550 4 36 11 72 16 80 11 19 3 -86 -12
-158 -6 -30 -9 -56 -6 -58 5 -5 37 158 37 189 0 9 5 17 11 17 24 0 -19 -239
-71 -397 -20 -58 -24 -81 -14 -68 16 19 16 19 9 -5 -3 -14 -29 -70 -56 -125
-227 -465 -633 -783 -1141 -897 -91 -20 -129 -23 -318 -23 -183 1 -230 4 -315
23 -340 74 -598 215 -841 457 -152 152 -245 282 -334 468 -108 224 -144 399
-144 692 1 202 2 213 53 455 27 130 120 333 220 482 264 393 692 658 1161 717
87 11 320 12 345 1z m-177 -57 c-10 -2 -26 -2 -35 0 -10 3 -2 5 17 5 19 0 27
-2 18 -5z m169 0 c-20 -2 -52 -2 -70 0 -17 2 0 4 38 4 39 0 53 -2 32 -4z m450
-64 c56 -21 143 -67 143 -75 0 -3 -15 3 -32 12 -18 10 -69 32 -113 50 -89 37
-88 46 2 13z m88 -107 c-3 -3 -11 0 -18 7 -9 10 -8 11 6 5 10 -3 15 -9 12 -12z
m60 -30 c-3 -3 -11 0 -18 7 -9 10 -8 11 6 5 10 -3 15 -9 12 -12z m45 -12 c8
-5 12 -11 9 -14 -3 -3 -14 1 -25 9 -21 16 -8 20 16 5z m113 -79 c10 -12 9 -13
-3 -5 -8 5 -32 20 -52 33 -21 12 -38 25 -38 28 0 8 80 -40 93 -56z m267 -160
c117 -118 227 -266 292 -395 28 -56 51 -116 44 -116 -2 0 -25 42 -51 93 -90
176 -169 283 -319 433 -78 78 -127 133 -111 121 17 -11 82 -72 145 -136z
m-1985 111 c-43 -37 -94 -71 -90 -60 3 8 24 26 47 41 41 26 62 36 43 19z m154
-652 c11 -5 135 -168 277 -362 141 -194 265 -362 275 -373 19 -19 19 -11 18
310 -1 182 -4 343 -8 360 -4 17 -16 35 -31 42 -14 7 -25 18 -25 25 0 10 23 13
90 13 72 0 90 -3 90 -15 0 -8 -11 -17 -25 -20 -15 -3 -27 -15 -31 -30 -4 -14
-7 -204 -8 -422 l-1 -398 -32 0 c-18 0 -46 9 -63 19 -17 11 -142 173 -295 383
l-265 364 -3 -335 c-1 -185 0 -346 3 -358 3 -13 19 -30 35 -38 17 -9 28 -20
25 -25 -4 -6 -46 -10 -95 -10 -96 0 -118 10 -72 34 16 8 32 23 36 31 11 29 7
745 -4 766 -6 10 -17 19 -25 19 -18 0 -28 17 -19 31 8 14 123 6 153 -11z
m1319 -1 c67 -16 128 -66 142 -117 27 -98 -2 -192 -76 -248 l-41 -31 34 -19
c134 -71 167 -276 62 -376 -65 -62 -108 -70 -396 -76 -227 -4 -253 -2 -253 12
0 9 6 16 14 16 8 0 22 7 30 16 14 13 16 63 16 390 0 375 -3 414 -35 414 -18 0
-28 17 -19 31 9 16 450 6 522 -12z m102 -996 c0 -5 -11 -42 -24 -84 -43 -133
-47 -256 -8 -242 15 6 15 5 3 -11 -24 -29 -46 4 -46 70 0 52 -1 54 -15 32 -8
-12 -25 -34 -37 -48 -21 -24 -23 -24 -50 -10 -20 11 -29 26 -33 50 l-5 34 -28
-52 c-16 -29 -32 -52 -36 -52 -4 0 -19 10 -32 23 l-24 22 -22 -25 c-17 -19
-24 -22 -34 -13 -31 31 28 138 74 131 13 -2 21 -9 19 -18 -21 -87 -6 -104 17
-21 9 30 16 40 23 33 7 -7 7 -20 -1 -43 -19 -55 -12 -56 17 -4 36 66 58 67 54
3 -4 -50 11 -66 22 -24 9 35 54 86 77 86 14 0 24 18 45 85 14 47 30 85 35 85
5 0 9 -3 9 -7z m-488 -30 c21 -24 9 -54 -37 -89 l-37 -28 28 -9 c36 -12 64
-36 64 -54 0 -8 5 -11 10 -8 6 3 10 15 10 26 0 11 7 19 16 19 11 0 14 -5 10
-17 -5 -13 0 -11 18 6 15 15 26 19 26 12 0 -7 -11 -22 -25 -33 -13 -10 -30
-37 -36 -59 -15 -49 -34 -52 -26 -3 l6 35 -20 -26 c-12 -14 -33 -31 -47 -39
-29 -14 -122 -28 -122 -17 0 3 6 38 14 78 10 53 10 73 2 76 -7 3 -5 10 5 18 9
8 19 26 23 41 9 39 54 88 80 88 13 0 30 -8 38 -17z m-582 -9 c0 -3 -5 -15 -11
-26 -11 -20 -9 -21 20 -15 17 4 31 2 31 -3 0 -5 -15 -12 -34 -15 -32 -7 -34
-10 -61 -96 -15 -50 -25 -93 -21 -96 3 -4 32 21 64 55 59 64 76 73 86 46 6
-16 -36 -66 -64 -76 -10 -4 -12 -9 -5 -17 18 -18 75 25 92 69 9 22 20 40 26
40 9 0 7 -14 -9 -80 -3 -14 7 -3 23 25 15 27 36 51 46 53 16 3 17 -2 11 -47
-8 -58 6 -68 24 -18 16 43 56 81 77 73 19 -7 17 -37 -3 -44 -8 -2 -10 2 -5 15
6 16 5 16 -11 4 -21 -18 -48 -69 -44 -82 2 -6 16 -1 31 11 16 12 30 20 32 18
6 -6 -19 -99 -35 -128 -17 -34 -51 -70 -65 -70 -16 0 -50 38 -42 47 4 4 13 -1
20 -11 18 -25 40 -12 65 40 29 59 28 69 -9 71 -42 3 -59 19 -59 57 0 31 -1 30
-30 -19 -30 -52 -55 -65 -54 -29 0 21 0 21 -34 -3 -42 -28 -48 -28 -64 -4 -12
19 -12 19 -36 0 -24 -18 -26 -18 -44 -3 -10 10 -18 14 -18 9 0 -4 -6 -2 -14 4
-12 10 -19 8 -36 -9 -19 -19 -24 -20 -36 -8 -31 31 25 128 74 128 20 0 23 -4
18 -22 -17 -61 -19 -81 -6 -76 9 3 59 132 60 156 0 1 -9 2 -20 2 -11 0 -20 5
-20 10 0 6 9 10 20 10 12 0 26 12 35 30 13 26 35 41 35 24z m-320 -42 c0 -11
-9 -45 -20 -77 -18 -54 -28 -145 -14 -145 16 0 44 23 44 36 0 22 29 74 41 74
5 0 3 -13 -6 -30 -8 -16 -15 -35 -15 -41 0 -18 45 27 66 67 17 31 34 45 34 26
0 -18 -54 -170 -76 -214 -13 -26 -33 -52 -44 -58 -24 -13 -27 2 -3 21 15 13
52 87 68 138 l7 24 -27 -21 c-15 -12 -32 -19 -37 -16 -5 3 -17 -1 -26 -9 -15
-13 -20 -14 -36 -1 -24 17 -23 68 3 147 20 63 16 74 -12 26 -20 -36 -35 -33
-17 3 15 29 51 68 62 68 4 0 8 -8 8 -18z m-70 -6 c0 -7 -7 -30 -15 -49 -10
-24 -11 -37 -4 -39 13 -4 -56 -148 -71 -148 -13 0 -15 -6 30 126 22 65 40 119
40 121 0 2 5 3 10 3 6 0 10 -6 10 -14z m1510 -84 c0 -4 -15 -13 -32 -20 l-33
-13 24 -18 c18 -14 22 -24 18 -42 -8 -33 -44 -54 -63 -38 -20 16 -17 35 8 53
18 13 19 17 7 32 -12 14 -10 19 10 35 23 19 61 26 61 11z"/>
<path d="M3884 4108 l-29 -33 33 29 c17 17 32 31 32 33 0 8 -8 1 -36 -29z"/>
<path d="M3436 3134 c-4 -31 -5 -59 -2 -61 2 -3 8 21 11 52 4 31 5 58 3 61 -3
2 -8 -21 -12 -52z"/>
<path d="M3420 3039 c0 -5 5 -7 10 -4 6 3 10 8 10 11 0 2 -4 4 -10 4 -5 0 -10
-5 -10 -11z"/>
<path d="M3423 2980 c0 -25 2 -35 4 -22 2 12 2 32 0 45 -2 12 -4 2 -4 -23z"/>
<path d="M6551 2574 c0 -11 3 -14 6 -6 3 7 2 16 -1 19 -3 4 -6 -2 -5 -13z"/>
<path d="M6541 2534 c0 -11 3 -14 6 -6 3 7 2 16 -1 19 -3 4 -6 -2 -5 -13z"/>
<path d="M5300 3336 l0 -166 118 0 c188 0 267 29 293 108 15 44 7 123 -15 157
-30 46 -76 58 -243 63 l-153 4 0 -166z"/>
<path d="M5304 3111 c-2 -2 -4 -90 -4 -194 l0 -189 163 4 c145 3 167 6 205 26
79 42 106 159 60 252 -18 35 -35 51 -73 70 -45 22 -66 26 -198 30 -82 3 -151
3 -153 1z"/>
<path d="M5651 2335 c-27 -31 -41 -65 -26 -65 7 0 67 91 62 96 -2 3 -18 -11
-36 -31z"/>
<path d="M5410 2318 c-21 -35 -27 -74 -10 -63 10 6 50 78 50 90 0 16 -23 1
-40 -27z"/>
<path d="M5212 2497 c-17 -21 -44 -88 -37 -95 9 -9 22 10 35 51 6 20 16 37 21
37 9 0 8 -10 -9 -60 -2 -8 7 -4 21 10 36 36 39 64 6 68 -14 2 -31 -3 -37 -11z"/>
<path d="M5160 2366 c0 -7 -2 -29 -5 -47 l-5 -34 14 35 c18 42 19 60 6 60 -5
0 -10 -6 -10 -14z"/>
<path d="M5185 2326 c-10 -28 -20 -57 -23 -63 -7 -20 49 -16 85 6 58 36 53 81
-13 100 -30 9 -31 8 -49 -43z"/>
<path d="M4542 2330 c-12 -13 -22 -29 -22 -36 0 -7 -3 -21 -7 -31 -6 -16 -5
-16 11 -4 22 18 48 69 44 83 -2 6 -14 1 -26 -12z"/>
<path d="M4733 2338 c-24 -32 -26 -40 -6 -30 11 6 25 18 33 26 10 13 10 16 -3
16 -8 0 -19 -6 -24 -12z"/>
<path d="M5752 2288 c-7 -7 -12 -19 -12 -27 0 -11 4 -10 20 4 21 19 26 35 12
35 -4 0 -13 -5 -20 -12z"/>
</g>
</svg>
