<?xml version="1.0" encoding="UTF-8"?>
<!DOCTYPE svg PUBLIC "-//W3C//DTD SVG 1.1//EN" "http://www.w3.org/Graphics/SVG/1.1/DTD/svg11.dtd">
<svg xmlns="http://www.w3.org/2000/svg" version="1.1" width="337px" height="150px" style="shape-rendering:geometricPrecision; text-rendering:geometricPrecision; image-rendering:optimizeQuality; fill-rule:evenodd; clip-rule:evenodd" xmlns:xlink="http://www.w3.org/1999/xlink">
<g><path style="opacity:1" fill="#fefdfd" d="M -0.5,-0.5 C 111.833,-0.5 224.167,-0.5 336.5,-0.5C 336.5,49.5 336.5,99.5 336.5,149.5C 224.167,149.5 111.833,149.5 -0.5,149.5C -0.5,99.5 -0.5,49.5 -0.5,-0.5 Z"/></g>
<g><path style="opacity:1" fill="#e51b22" d="M 239.5,31.5 C 253.096,28.6222 259.929,33.9555 260,47.5C 257.409,58.4542 255.076,69.4542 253,80.5C 245.106,82.4494 236.939,83.116 228.5,82.5C 230.771,72.202 232.605,61.8687 234,51.5C 230.794,49.8756 228.128,50.5422 226,53.5C 223.671,63.1467 221.505,72.8134 219.5,82.5C 211.5,82.5 203.5,82.5 195.5,82.5C 199.219,65.9042 202.552,49.2375 205.5,32.5C 213.5,32.5 221.5,32.5 229.5,32.5C 228.833,34.8194 228.666,37.1527 229,39.5C 232.4,36.5862 235.9,33.9195 239.5,31.5 Z"/></g>
<g><path style="opacity:1" fill="#e51b22" d="M 186.5,55.5 C 187.376,55.6309 188.043,55.2975 188.5,54.5C 184.685,53.1923 181.019,53.1923 177.5,54.5C 162.806,54.9649 148.973,58.6316 136,65.5C 134.842,53.9778 139.009,44.8111 148.5,38C 155.302,32.8819 162.969,30.7152 171.5,31.5C 191.857,31.0164 200.024,40.6831 196,60.5C 192.099,71.4009 184.599,78.5675 173.5,82C 165.16,83.9533 156.827,83.9533 148.5,82C 144.984,80.7441 141.984,78.7441 139.5,76C 154.041,66.5434 169.708,59.7101 186.5,55.5 Z"/></g>
<g><path style="opacity:1" fill="#e51a22" d="M 78.5,32.5 C 87.1667,32.5 95.8333,32.5 104.5,32.5C 104.238,40.2205 104.738,47.8872 106,55.5C 110.088,48.3242 113.922,40.9909 117.5,33.5C 126.147,32.3348 134.814,32.1681 143.5,33C 132.958,49.2524 122.291,65.419 111.5,81.5C 103.862,82.4975 96.1955,82.8308 88.5,82.5C 85.2954,65.8101 81.962,49.1434 78.5,32.5 Z"/></g>
<g><path style="opacity:1" fill="#de8082" d="M 177.5,54.5 C 181.019,53.1923 184.685,53.1923 188.5,54.5C 188.043,55.2975 187.376,55.6309 186.5,55.5C 183.713,54.5233 180.713,54.19 177.5,54.5 Z"/></g>
<g><path style="opacity:1" fill="#1e1c1c" d="M 82.5,93.5 C 85.1667,93.5 87.8333,93.5 90.5,93.5C 89.9084,96.1272 89.5751,98.7938 89.5,101.5C 91.1667,101.5 92.8333,101.5 94.5,101.5C 93.7413,94.5917 96.7413,91.925 103.5,93.5C 102.166,101.171 100.832,108.837 99.5,116.5C 96.8333,116.5 94.1667,116.5 91.5,116.5C 91.8333,113.833 92.1667,111.167 92.5,108.5C 90.5,108.5 88.5,108.5 86.5,108.5C 86.4249,111.206 86.0916,113.873 85.5,116.5C 82.8333,116.5 80.1667,116.5 77.5,116.5C 78.8481,108.737 80.5148,101.07 82.5,93.5 Z"/></g>
<g><path style="opacity:1" fill="#1e1b1c" d="M 114.5,93.5 C 118.605,93.2338 122.605,93.7338 126.5,95C 131.574,104.765 128.907,111.765 118.5,116C 107.501,117.999 102.668,113.499 104,102.5C 106.505,98.1888 110.005,95.1888 114.5,93.5 Z"/></g>
<g><path style="opacity:1" fill="#1d1b1c" d="M 133.5,93.5 C 139.167,93.5 144.833,93.5 150.5,93.5C 150.167,96.1667 149.833,98.8333 149.5,101.5C 147.533,101.261 145.699,101.594 144,102.5C 143,106.833 142,111.167 141,115.5C 138.263,116.61 135.429,116.777 132.5,116C 133.926,111.217 135.26,106.384 136.5,101.5C 134.955,100.548 133.288,100.215 131.5,100.5C 131.767,98.0347 132.434,95.7014 133.5,93.5 Z"/></g>
<g><path style="opacity:1" fill="#1e1b1c" d="M 153.5,93.5 C 158.844,93.334 164.177,93.5006 169.5,94C 173.627,98.8357 173.293,103.502 168.5,108C 165.182,108.879 161.848,109.713 158.5,110.5C 157.652,112.409 157.318,114.409 157.5,116.5C 154.833,116.5 152.167,116.5 149.5,116.5C 150.989,108.875 152.322,101.208 153.5,93.5 Z"/></g>
<g><path style="opacity:1" fill="#1d1b1c" d="M 184.5,93.5 C 195.703,91.2133 200.536,95.5466 199,106.5C 197.123,111.373 193.623,114.54 188.5,116C 175.2,117.37 171.033,111.87 176,99.5C 178.671,97.0976 181.505,95.0976 184.5,93.5 Z"/></g>
<g><path style="opacity:1" fill="#1d1a1b" d="M 203.5,93.5 C 206.572,93.1826 209.572,93.5159 212.5,94.5C 210.961,101.529 209.294,108.529 207.5,115.5C 204.914,116.48 202.247,116.813 199.5,116.5C 201.311,108.92 202.645,101.254 203.5,93.5 Z"/></g>
<g><path style="opacity:1" fill="#1e1b1c" d="M 215.5,93.5 C 218.5,93.5 221.5,93.5 224.5,93.5C 225.165,97.8272 226.665,101.827 229,105.5C 229.945,101.506 230.778,97.506 231.5,93.5C 233.833,93.5 236.167,93.5 238.5,93.5C 236.91,101.116 235.577,108.783 234.5,116.5C 231.428,116.817 228.428,116.484 225.5,115.5C 224,111.833 222.5,108.167 221,104.5C 219.464,108.346 218.631,112.346 218.5,116.5C 215.813,116.664 213.146,116.497 210.5,116C 212.539,108.608 214.206,101.108 215.5,93.5 Z"/></g>
<g><path style="opacity:1" fill="#201e1e" d="M 241.5,93.5 C 247.5,93.5 253.5,93.5 259.5,93.5C 258.908,96.1272 258.575,98.7938 258.5,101.5C 256.5,101.5 254.5,101.5 252.5,101.5C 252.098,105.912 251.265,110.246 250,114.5C 247.478,116.662 244.645,116.995 241.5,115.5C 242.503,110.826 243.503,106.16 244.5,101.5C 243.167,101.5 241.833,101.5 240.5,101.5C 241.092,98.8728 241.425,96.2062 241.5,93.5 Z"/></g>
<g><path style="opacity:1" fill="#f1f1f1" d="M 160.5,99.5 C 161.833,99.5 163.167,99.5 164.5,99.5C 164.833,102.5 163.5,103.833 160.5,103.5C 160.5,102.167 160.5,100.833 160.5,99.5 Z"/></g>
<g><path style="opacity:1" fill="#ebebeb" d="M 185.5,100.5 C 190.675,99.5071 192.509,101.507 191,106.5C 188.872,109.458 186.206,110.124 183,108.5C 182.023,105.183 182.856,102.516 185.5,100.5 Z"/></g>
<g><path style="opacity:1" fill="#eaeaea" d="M 114.5,100.5 C 120.951,100.092 122.618,102.592 119.5,108C 111.362,110.019 109.696,107.519 114.5,100.5 Z"/></g>
</svg>
