<?xml version="1.0" standalone="no"?>
<!DOCTYPE svg PUBLIC "-//W3C//DTD SVG 20010904//EN"
 "http://www.w3.org/TR/2001/REC-SVG-20010904/DTD/svg10.dtd">
<svg version="1.0" xmlns="http://www.w3.org/2000/svg"
 width="337.000000pt" height="150.000000pt" viewBox="0 0 337.000000 150.000000"
 preserveAspectRatio="xMidYMid meet">

<g transform="translate(0.000000,150.000000) scale(0.100000,-0.100000)"
fill="#000000" stroke="none">
<path d="M1599 1165 c-145 -53 -239 -166 -239 -286 l0 -38 55 24 c87 39 222
74 325 85 121 12 150 12 150 0 0 -5 -7 -10 -16 -10 -52 0 -326 -114 -428 -177
l-49 -31 39 -25 c55 -37 123 -51 207 -44 92 7 149 28 212 75 121 91 159 259
83 363 -12 16 -44 40 -72 54 -43 21 -63 25 -140 24 -50 0 -107 -6 -127 -14z"/>
<path d="M2385 1168 c-11 -6 -39 -27 -62 -45 l-42 -35 9 34 c6 18 10 36 10 40
0 5 -51 8 -114 8 -101 0 -115 -2 -120 -17 -6 -21 -106 -470 -106 -478 0 -3 53
-5 118 -5 l118 0 34 145 c24 107 39 150 55 165 42 39 74 1 56 -67 -9 -34 -51
-231 -51 -240 0 -1 53 -3 119 -3 l118 0 41 188 c36 164 40 192 30 230 -16 65
-55 92 -131 92 -34 0 -71 -6 -82 -12z"/>
<path d="M790 1162 c0 -4 18 -91 41 -192 22 -102 45 -211 51 -242 l12 -58 110
0 111 0 145 222 c80 121 153 234 163 249 l19 29 -129 0 -129 0 -59 -119 c-32
-66 -62 -118 -67 -115 -4 3 -8 57 -8 120 l0 114 -130 0 c-71 0 -130 -3 -130
-8z"/>
<path d="M826 548 c-8 -31 -46 -204 -46 -210 0 -5 18 -8 40 -8 35 0 40 3 46
28 10 48 13 52 39 52 28 0 29 -2 16 -48 l-10 -32 43 0 42 0 22 108 c12 59 22
110 22 115 0 4 -18 7 -39 7 -38 0 -39 -1 -46 -40 -6 -36 -10 -40 -35 -40 -27
0 -28 1 -19 32 5 18 9 36 9 40 0 14 -80 9 -84 -4z"/>
<path d="M1120 541 c-47 -24 -80 -75 -80 -122 0 -78 93 -113 181 -69 76 39
105 135 54 185 -30 31 -103 34 -155 6z m89 -65 c29 -35 -39 -95 -74 -66 -19
16 -19 30 1 58 17 25 56 29 73 8z"/>
<path d="M1337 553 c-2 -5 -7 -20 -11 -35 -5 -22 -2 -27 16 -30 25 -3 25 -4 3
-101 l-13 -58 41 3 c38 3 42 6 50 38 26 105 28 110 48 110 12 0 23 10 29 26
20 52 17 54 -74 54 -47 0 -87 -3 -89 -7z"/>
<path d="M1532 503 c-6 -32 -18 -84 -25 -116 l-15 -58 41 3 c36 3 42 6 49 34
7 28 12 32 55 37 58 6 93 41 93 92 0 53 -20 65 -109 65 l-77 0 -12 -57z m116
-20 c-2 -10 -13 -19 -25 -21 -17 -3 -20 1 -16 17 7 26 46 29 41 4z"/>
<path d="M1820 541 c-79 -41 -103 -129 -51 -182 36 -36 92 -39 150 -9 58 29
81 64 81 121 0 39 -4 51 -26 68 -34 27 -106 28 -154 2z m90 -66 c18 -22 -2
-63 -34 -71 -32 -8 -46 1 -46 31 0 46 53 72 80 40z"/>
<path d="M2045 548 c-7 -19 -45 -196 -45 -208 0 -5 18 -10 40 -10 33 0 40 4
45 23 28 122 45 199 45 202 0 11 -81 4 -85 -7z"/>
<path d="M2140 463 c-12 -54 -24 -106 -26 -115 -5 -15 1 -18 34 -18 l40 0 7
48 c10 77 20 80 44 13 l22 -61 42 0 42 0 23 103 c12 56 22 108 22 115 0 7 -14
12 -34 12 -33 0 -34 -1 -46 -60 -7 -33 -16 -58 -20 -55 -3 2 -15 29 -25 59
l-19 56 -42 0 -42 0 -22 -97z"/>
<path d="M2420 541 c0 -11 -3 -26 -6 -35 -4 -12 0 -16 15 -16 23 0 26 -15 12
-70 -25 -95 -26 -90 18 -90 44 0 39 -8 68 110 7 24 16 36 33 40 22 5 36 29 39
68 1 9 -23 12 -89 12 -82 0 -90 -2 -90 -19z"/>
</g>
</svg>
